<svg xmlns="http://www.w3.org/2000/svg" viewBox="0 0 423.6 500"><defs><style>.cls-1{fill:#ff7b7b;}.cls-2{fill:#e26d6d;}.cls-3{fill:#f4f6f9;}.cls-4{fill:#d16969;}.cls-5{fill:#d6d8e5;opacity:0.4;isolation:isolate;}.cls-6{fill:#38226d;}.cls-7{fill:#9c73ff;}.cls-8{fill:#ffcea9;}.cls-9{fill:#8c50ff;}.cls-10{fill:#f4f4f4;}.cls-11{fill:#ededed;}.cls-12{fill:#fff;}.cls-13{fill:#3a2c6d;}.cls-14{fill:none;}</style></defs><title>Covid 19_SVG</title><g id="Слой_2" data-name="Слой 2"><g id="Слой_1-2" data-name="Слой 1"><circle class="cls-1" cx="135.14" cy="276.89" r="51.54"/><path class="cls-2" d="M155.11,324.28A51.56,51.56,0,0,1,111.33,231a55.5,55.5,0,0,0,40.55,93.38C153,324.37,154.05,324.34,155.11,324.28Z"/><circle class="cls-2" cx="149.5" cy="245.12" r="4.88"/><circle class="cls-3" cx="105.37" cy="248.19" r="4.88"/><circle class="cls-3" cx="122.8" cy="245.12" r="3.66"/><circle class="cls-2" cx="129.49" cy="271.4" r="8.17"/><circle class="cls-3" cx="102.05" cy="287.65" r="8.17"/><circle class="cls-2" cx="139.94" cy="300.48" r="8.17"/><circle class="cls-4" cx="165.97" cy="295.6" r="4.88"/><circle class="cls-4" cx="115.13" cy="311.1" r="3.66"/><circle class="cls-4" cx="103.5" cy="269.72" r="3.66"/><circle class="cls-4" cx="161.09" cy="266.14" r="4.88"/><path class="cls-1" d="M129.49,225.66c4.12-8.73,3.63-24,3.63-24h4.3s.53,16.91,3.73,24"/><path class="cls-2" d="M137.48,203h-.07a10.36,10.36,0,0,1-4.28-.67s0-.68,0-.68h4.3S137.45,202.43,137.48,203Z"/><ellipse class="cls-1" cx="135.32" cy="199.58" rx="4.93" ry="2.46"/><ellipse class="cls-3" cx="132.72" cy="198.43" rx="0.94" ry="0.42" transform="translate(-41.74 35.48) rotate(-13.18)"/><path class="cls-1" d="M147.19,227.7c5.25-5.23,8.86-16.38,8.86-16.38l3.11,1.12s-4,12.35-3.55,18.32"/><path class="cls-2" d="M158.85,213.42h0a8.08,8.08,0,0,1-2.91-1.6l.16-.49,3.11,1.12S159,213,158.85,213.42Z"/><ellipse class="cls-1" cx="158.19" cy="210.38" rx="1.89" ry="3.78" transform="translate(-93.35 287.9) rotate(-70.19)"/><ellipse class="cls-3" cx="156.61" cy="208.87" rx="0.32" ry="0.72" transform="translate(-68.95 340.3) rotate(-83.37)"/><path class="cls-1" d="M158.29,232.53c5.44-3.33,10.71-11.95,10.71-11.95l2.37,1.56s-5.84,9.54-6.64,14.64"/><path class="cls-2" d="M170.92,222.9l0,0a6.82,6.82,0,0,1-2.12-1.93l.24-.37,2.37,1.56Z"/><ellipse class="cls-1" cx="170.97" cy="220.22" rx="1.63" ry="3.26" transform="translate(-106.93 242.47) rotate(-56.75)"/><ellipse class="cls-3" cx="169.95" cy="218.63" rx="0.28" ry="0.62" transform="translate(-93.73 303.24) rotate(-69.93)"/><path class="cls-1" d="M114.51,231.3c.73-6.34-2.8-15.8-2.8-15.8l2.69-.91s3.91,10.49,7.43,14.27"/><path class="cls-2" d="M114.72,215.43h0a6.77,6.77,0,0,1-2.82.48s-.15-.42-.15-.42l2.69-.91Z"/><ellipse class="cls-1" cx="112.64" cy="213.73" rx="3.26" ry="1.63" transform="translate(-62.46 47.27) rotate(-18.66)"/><ellipse class="cls-3" cx="110.77" cy="213.55" rx="0.62" ry="0.28" transform="translate(-95.99 90.56) rotate(-31.84)"/><path class="cls-1" d="M184.05,266.33c6,2.06,16,.59,16,.59l.32,2.83s-11.07,1.61-15.51,4.25"/><path class="cls-2" d="M199.53,269.89v-.05a6.81,6.81,0,0,1,.13-2.86l.44-.06.32,2.83Z"/><ellipse class="cls-1" cx="201.63" cy="268.21" rx="1.63" ry="3.26" transform="translate(-29.04 24.52) rotate(-6.49)"/><ellipse class="cls-3" cx="202.19" cy="266.42" rx="0.28" ry="0.62" transform="translate(-77.88 83.61) rotate(-19.67)"/><path class="cls-1" d="M185.18,277c5.47,3.3,15.54,4,15.54,4l-.29,2.83s-11.16-.78-16.06.85"/><path class="cls-2" d="M199.54,283.79v0a6.68,6.68,0,0,1,.73-2.77l.44,0-.29,2.83Z"/><ellipse class="cls-1" cx="201.95" cy="282.6" rx="3.26" ry="1.63" transform="translate(-99.71 454.8) rotate(-84.17)"/><ellipse class="cls-3" cx="202.88" cy="280.97" rx="0.28" ry="0.62" transform="matrix(0.99, -0.13, 0.13, 0.99, -34.27, 28.25)"/><path class="cls-1" d="M180.68,297.63c3.62,5.26,12.51,10.05,12.51,10.05l-1.43,2.46s-9.84-5.32-15-5.85"/><path class="cls-2" d="M191,309.72l0,0a6.87,6.87,0,0,1,1.81-2.23l.39.22-1.43,2.46Z"/><ellipse class="cls-1" cx="193.66" cy="309.63" rx="3.26" ry="1.63" transform="translate(-171.36 321.43) rotate(-59.83)"/><ellipse class="cls-3" cx="195.18" cy="308.53" rx="0.62" ry="0.28" transform="translate(-156.92 405.01) rotate(-73.01)"/><path class="cls-1" d="M180.54,254.44c7.38.65,18.24-3.77,18.24-3.77l1.15,3.1s-12,4.88-16.32,9.08"/><path class="cls-2" d="M199,254.17l0,0a7.83,7.83,0,0,1-.65-3.26l.48-.19,1.15,3.1Z"/><ellipse class="cls-1" cx="200.87" cy="251.7" rx="1.89" ry="3.78" transform="translate(-74.75 85.17) rotate(-20.27)"/><ellipse class="cls-3" cx="201.01" cy="249.52" rx="0.32" ry="0.72" transform="translate(-104.24 152.11) rotate(-33.45)"/><path class="cls-1" d="M184.56,288c5.33,5.15,16.55,8.55,16.55,8.55l-1.06,3.13s-12.42-3.78-18.39-3.2"/><path class="cls-2" d="M199.06,299.36v0a8,8,0,0,1,1.55-2.95l.49.16-1.06,3.13Z"/><ellipse class="cls-1" cx="202.09" cy="298.64" rx="3.78" ry="1.89" transform="translate(-145.58 394.33) rotate(-71.3)"/><ellipse class="cls-3" cx="203.57" cy="297.04" rx="0.72" ry="0.32" transform="translate(-111.67 471.09) rotate(-84.48)"/><path class="cls-1" d="M165,317.81c.62,7.38,6.81,17.34,6.81,17.34l-2.86,1.65s-6.85-11-11.72-14.53"/><path class="cls-2" d="M168.39,335.93l0,0a8,8,0,0,1,3.1-1.2l.27.45-2.86,1.65Z"/><ellipse class="cls-1" cx="171.14" cy="337.38" rx="3.78" ry="1.89" transform="translate(-145.98 131.11) rotate(-30.06)"/><ellipse class="cls-3" cx="173.32" cy="337.15" rx="0.72" ry="0.32" transform="translate(-183.91 210.26) rotate(-43.24)"/><path class="cls-1" d="M169.74,238.69C179,236,190.1,225.5,190.1,225.5l2.86,3.22s-12.31,11.6-15.51,18.72"/><path class="cls-2" d="M192,229.66l0,0a10.33,10.33,0,0,1-2.33-3.65s.49-.46.49-.46l2.86,3.22Z"/><ellipse class="cls-1" cx="193.13" cy="225.76" rx="2.46" ry="4.93" transform="translate(-101.14 184.84) rotate(-41.54)"/><ellipse class="cls-3" cx="192.27" cy="223.05" rx="0.42" ry="0.94" transform="translate(-100.86 251.15) rotate(-54.72)"/><path class="cls-1" d="M178.25,305.15c4.1,8.74,16.18,18.07,16.18,18.07l-2.74,3.32s-13.37-10.36-20.9-12.42"/><path class="cls-2" d="M190.62,325.73l0-.05a10.19,10.19,0,0,1,3.24-2.87s.53.41.53.41l-2.74,3.32Z"/><ellipse class="cls-1" cx="194.64" cy="326.25" rx="4.93" ry="2.46" transform="translate(-180.87 268.63) rotate(-50.46)"/><ellipse class="cls-3" cx="197.19" cy="324.98" rx="0.94" ry="0.42" transform="translate(-181.56 357.34) rotate(-63.63)"/><path class="cls-2" d="M126.33,327.68c-6.39,7.24-10.16,22-10.16,22l-4.13-1.2s4.19-16.38,3.09-24.11"/><path class="cls-4" d="M112.36,347.2l.06,0a10.34,10.34,0,0,1,3.93,1.84l-.18.65-4.13-1.2Z"/><ellipse class="cls-2" cx="113.47" cy="351.11" rx="2.46" ry="4.93" transform="translate(-255.34 362.5) rotate(-73.86)"/><ellipse class="cls-3" cx="115.65" cy="352.94" rx="0.42" ry="0.94" transform="translate(-242.79 450.19) rotate(-87.04)"/><path class="cls-2" d="M90.54,302.75c-9.64-.26-23.4,6.35-23.4,6.35l-1.74-3.93s15.25-7.31,20.47-13.11"/><path class="cls-4" d="M66.61,304.57l0,.06a10.4,10.4,0,0,1,1.11,4.19l-.61.28-1.74-3.93Z"/><ellipse class="cls-2" cx="64.33" cy="307.93" rx="2.46" ry="4.93" transform="translate(-118.82 52.17) rotate(-23.81)"/><ellipse class="cls-3" cx="64.33" cy="310.78" rx="0.42" ry="0.94" transform="translate(-174.02 101.23) rotate(-36.98)"/><path class="cls-2" d="M88.92,254.06c-5.13-8.17-18.25-16-18.25-16L73,234.47s14.53,8.66,22.26,9.79"/><path class="cls-4" d="M74.15,235.14l0,.06a10.19,10.19,0,0,1-2.88,3.24l-.57-.35L73,234.47Z"/><ellipse class="cls-2" cx="70.09" cy="235.11" rx="4.93" ry="2.46" transform="translate(-165.76 167.56) rotate(-57.42)"/><ellipse class="cls-3" cx="67.72" cy="236.68" rx="0.94" ry="0.42" transform="translate(-178.02 221.92) rotate(-70.6)"/><path class="cls-2" d="M101,240.19c-1.68-7.26-9.27-16.27-9.27-16.27l2.6-2s8.41,10,13.76,12.76"/><path class="cls-4" d="M95.05,222.65l0,0a8,8,0,0,1-2.91,1.63s-.33-.4-.33-.4l2.6-2Z"/><ellipse class="cls-2" cx="92.1" cy="221.6" rx="3.8" ry="1.9" transform="translate(-117.53 104.78) rotate(-38.3)"/><ellipse class="cls-3" cx="89.97" cy="222.15" rx="0.73" ry="0.32" transform="translate(-139.87 154.19) rotate(-51.48)"/><path class="cls-2" d="M86,286.42c-7-2.41-18.71-.73-18.71-.73l-.37-3.29S79.8,280.54,85,277.47"/><path class="cls-4" d="M67.91,282.24v.05a7.87,7.87,0,0,1-.15,3.34l-.51.06-.37-3.29Z"/><ellipse class="cls-2" cx="65.45" cy="284.18" rx="1.9" ry="3.8" transform="translate(-31.16 9.03) rotate(-6.38)"/><ellipse class="cls-3" cx="64.79" cy="286.28" rx="0.32" ry="0.73" transform="translate(-92.08 38.2) rotate(-19.55)"/><path class="cls-2" d="M111.53,321.08c-6.32,3.95-12.36,14.06-12.36,14.06l-2.79-1.79s6.71-11.2,7.59-17.16"/><path class="cls-4" d="M96.9,332.45l0,0a7.89,7.89,0,0,1,2.5,2.22l-.27.44-2.79-1.79Z"/><ellipse class="cls-2" cx="96.87" cy="335.58" rx="1.9" ry="3.8" transform="matrix(0.54, -0.84, 0.84, 0.54, -237.85, 235.77)"/><ellipse class="cls-3" cx="98.08" cy="337.42" rx="0.32" ry="0.73" transform="translate(-252.72 317.07) rotate(-70.47)"/><path class="cls-2" d="M148,324.83c-1.35,5.85,1,15.05,1,15.05l-2.62.57s-2.55-10.2-5.44-14.1"/><path class="cls-4" d="M146.12,339.64h0a6.34,6.34,0,0,1,2.69-.16l.1.41-2.62.57S146.22,340,146.12,339.64Z"/><ellipse class="cls-2" cx="147.88" cy="341.44" rx="3.06" ry="1.53" transform="translate(-69.31 39.32) rotate(-12.29)"/><ellipse class="cls-3" cx="149.62" cy="341.8" rx="0.59" ry="0.26" transform="translate(-132.45 97.57) rotate(-25.47)"/><path class="cls-2" d="M139.85,326.77c-3.08,6.78-2.54,18.55-2.54,18.55l-3.32.05s-.59-13-3.14-18.5"/><path class="cls-4" d="M133.93,344.33h0a7.86,7.86,0,0,1,3.31.47s0,.52,0,.52l-3.32.05S134,344.79,133.93,344.33Z"/><ellipse class="cls-2" cx="135.63" cy="346.96" rx="3.8" ry="1.9" transform="translate(-4.88 1.95) rotate(-0.81)"/><ellipse class="cls-3" cx="137.66" cy="347.82" rx="0.73" ry="0.32" transform="translate(-79.98 43.58) rotate(-13.99)"/><path class="cls-2" d="M84.7,266.8c-4.78-3.55-14.08-5.09-14.08-5.09l.52-2.6s10.3,1.72,15,.63"/><path class="cls-4" d="M72,259.23v0a6.13,6.13,0,0,1-.92,2.51s-.41-.07-.41-.07l.52-2.6Z"/><ellipse class="cls-2" cx="69.62" cy="260.12" rx="3.04" ry="1.52" transform="translate(-199.1 277.56) rotate(-78.73)"/><ellipse class="cls-3" cx="68.61" cy="261.56" rx="0.26" ry="0.58" transform="translate(-8.67 2.43) rotate(-1.91)"/><path class="cls-2" d="M101.59,313.15c-6.1,2-13.28,9.12-13.28,9.12l-2-2.09s8-7.92,10-12.7"/><path class="cls-4" d="M87,319.54l0,0A6.82,6.82,0,0,1,88.63,322l-.32.32-2-2.09S86.72,319.83,87,319.54Z"/><ellipse class="cls-2" cx="86.3" cy="322.15" rx="1.64" ry="3.27" transform="translate(-196.8 145.85) rotate(-43.09)"/><ellipse class="cls-3" cx="86.92" cy="323.93" rx="0.28" ry="0.62" transform="translate(-230.75 216.35) rotate(-56.27)"/><circle class="cls-1" cx="218.95" cy="151.48" r="27.18"/><path class="cls-2" d="M229.48,176.48a27.19,27.19,0,0,1-23.09-49.21,29.27,29.27,0,0,0,21.39,49.25C228.35,176.52,228.92,176.51,229.48,176.48Z"/><circle class="cls-2" cx="226.52" cy="134.72" r="2.57"/><circle class="cls-3" cx="203.25" cy="136.35" r="2.57"/><circle class="cls-3" cx="212.44" cy="134.72" r="1.93"/><circle class="cls-2" cx="215.97" cy="148.58" r="4.31"/><circle class="cls-3" cx="201.5" cy="157.16" r="4.31"/><circle class="cls-2" cx="221.48" cy="163.92" r="4.31"/><circle class="cls-4" cx="235.21" cy="161.35" r="2.57"/><circle class="cls-4" cx="208.4" cy="169.52" r="1.93"/><circle class="cls-4" cx="202.26" cy="147.7" r="1.93"/><circle class="cls-4" cx="232.64" cy="145.81" r="2.57"/><path class="cls-1" d="M216,124.46c2.17-4.6,1.91-12.65,1.91-12.65h2.27s.28,8.92,2,12.67"/><path class="cls-2" d="M220.18,112.52h0a5.46,5.46,0,0,1-2.26-.35s0-.36,0-.36h2.27S220.17,112.21,220.18,112.52Z"/><ellipse class="cls-1" cx="219.04" cy="110.71" rx="2.6" ry="1.3"/><ellipse class="cls-3" cx="217.67" cy="110.1" rx="0.5" ry="0.22" transform="translate(-19.37 52.52) rotate(-13.18)"/><path class="cls-1" d="M225.3,125.54c2.77-2.76,4.68-8.64,4.68-8.64l1.64.59s-2.12,6.51-1.88,9.67"/><path class="cls-2" d="M231.45,118h0a4.15,4.15,0,0,1-1.54-.84l.09-.26,1.64.59S231.52,117.78,231.45,118Z"/><ellipse class="cls-1" cx="231.1" cy="116.4" rx="1" ry="2" transform="translate(43.26 294.37) rotate(-70.19)"/><ellipse class="cls-3" cx="230.27" cy="115.61" rx="0.17" ry="0.38" transform="translate(88.84 330.98) rotate(-83.37)"/><path class="cls-1" d="M231.16,128.09c2.87-1.76,5.64-6.31,5.64-6.31l1.26.82s-3.08,5-3.51,7.73"/><path class="cls-2" d="M237.82,123h0a3.63,3.63,0,0,1-1.12-1l.12-.2,1.26.82Z"/><ellipse class="cls-1" cx="237.85" cy="121.59" rx="0.86" ry="1.72" transform="translate(5.76 253.84) rotate(-56.75)"/><ellipse class="cls-3" cx="237.31" cy="120.76" rx="0.15" ry="0.33" transform="translate(42.45 302.22) rotate(-69.93)"/><path class="cls-1" d="M208.07,127.44c.38-3.34-1.48-8.33-1.48-8.33l1.42-.48s2.06,5.53,3.92,7.52"/><path class="cls-2" d="M208.18,119.07h0a3.55,3.55,0,0,1-1.49.26l-.08-.22,1.42-.48Z"/><ellipse class="cls-1" cx="207.08" cy="118.17" rx="1.72" ry="0.86" transform="translate(-26.92 72.47) rotate(-18.66)"/><ellipse class="cls-3" cx="206.09" cy="118.08" rx="0.33" ry="0.15" transform="translate(-31.28 126.48) rotate(-31.84)"/><path class="cls-1" d="M244.74,145.91c3.19,1.09,8.46.32,8.46.32l.17,1.49s-5.84.85-8.18,2.24"/><path class="cls-2" d="M252.91,147.79v0a3.52,3.52,0,0,1,.07-1.51l.23,0,.17,1.49Z"/><ellipse class="cls-1" cx="254.01" cy="146.91" rx="0.86" ry="1.72" transform="translate(-14.98 29.67) rotate(-6.49)"/><ellipse class="cls-3" cx="254.31" cy="145.96" rx="0.15" ry="0.33" transform="translate(-34.29 94.12) rotate(-19.67)"/><path class="cls-1" d="M245.34,151.55c2.88,1.74,8.2,2.11,8.2,2.11l-.16,1.49s-5.88-.42-8.47.44"/><path class="cls-2" d="M252.91,155.12v0a3.51,3.51,0,0,1,.38-1.46l.24,0-.16,1.49Z"/><ellipse class="cls-1" cx="254.18" cy="154.5" rx="1.72" ry="0.86" transform="translate(74.66 391.67) rotate(-84.17)"/><ellipse class="cls-3" cx="254.68" cy="153.63" rx="0.15" ry="0.33" transform="translate(-17.56 33.83) rotate(-7.35)"/><path class="cls-1" d="M243,162.42c1.91,2.77,6.59,5.3,6.59,5.3l-.75,1.3s-5.19-2.81-7.9-3.09"/><path class="cls-2" d="M248.39,168.8l0,0a3.37,3.37,0,0,1,1-1.17l.2.11-.75,1.3Z"/><ellipse class="cls-1" cx="249.81" cy="168.75" rx="1.72" ry="0.86" transform="translate(-21.63 299.9) rotate(-59.83)"/><ellipse class="cls-3" cx="250.61" cy="168.17" rx="0.33" ry="0.15" transform="translate(16.54 358.69) rotate(-73.01)"/><path class="cls-1" d="M242.89,139.64c3.89.34,9.62-2,9.62-2l.61,1.63s-6.35,2.57-8.61,4.79"/><path class="cls-2" d="M252.61,139.5v0a4.17,4.17,0,0,1-.34-1.73l.25-.09.61,1.63Z"/><ellipse class="cls-1" cx="253.62" cy="138.2" rx="1" ry="2" transform="translate(-32.17 96.41) rotate(-20.27)"/><ellipse class="cls-3" cx="253.69" cy="137.05" rx="0.17" ry="0.38" transform="translate(-33.52 162.52) rotate(-33.45)"/><path class="cls-1" d="M245,157.33c2.81,2.72,8.73,4.51,8.73,4.51l-.56,1.65s-6.55-2-9.7-1.69"/><path class="cls-2" d="M252.66,163.34v0a4,4,0,0,1,.81-1.55l.26.08-.56,1.65Z"/><ellipse class="cls-1" cx="254.26" cy="162.96" rx="2" ry="1" transform="translate(18.39 351.55) rotate(-71.3)"/><ellipse class="cls-3" cx="255.04" cy="162.11" rx="0.38" ry="0.17" transform="translate(69.15 400.37) rotate(-84.48)"/><path class="cls-1" d="M234.69,173.06c.33,3.9,3.59,9.15,3.59,9.15l-1.5.87s-3.62-5.82-6.19-7.66"/><path class="cls-2" d="M236.48,182.62h0a4.11,4.11,0,0,1,1.63-.64l.14.24-1.5.87Z"/><ellipse class="cls-1" cx="237.94" cy="183.39" rx="2" ry="1" transform="translate(-59.86 143.85) rotate(-30.06)"/><ellipse class="cls-3" cx="239.08" cy="183.26" rx="0.38" ry="0.17" transform="translate(-60.63 213.54) rotate(-43.24)"/><path class="cls-1" d="M237.2,131.33c4.88-1.42,10.74-7,10.74-7l1.5,1.7S243,132.2,241.26,136"/><path class="cls-2" d="M248.93,126.57l0,0a5.39,5.39,0,0,1-1.24-1.92l.27-.24,1.5,1.7Z"/><ellipse class="cls-1" cx="249.53" cy="124.52" rx="1.3" ry="2.6" transform="translate(-19.82 196.78) rotate(-41.54)"/><ellipse class="cls-3" cx="249.08" cy="123.09" rx="0.22" ry="0.5" transform="translate(4.73 255.31) rotate(-54.72)"/><path class="cls-1" d="M241.68,166.39c2.17,4.61,8.54,9.53,8.54,9.53l-1.44,1.75s-7.06-5.46-11-6.55"/><path class="cls-2" d="M248.21,177.24l0,0a5.33,5.33,0,0,1,1.71-1.51l.28.22-1.44,1.75Z"/><ellipse class="cls-1" cx="250.33" cy="177.52" rx="2.6" ry="1.3" transform="translate(-45.94 257.54) rotate(-50.46)"/><ellipse class="cls-3" cx="251.67" cy="176.85" rx="0.5" ry="0.22" transform="translate(-18.54 323.8) rotate(-63.63)"/><path class="cls-2" d="M214.3,178.27c-3.37,3.82-5.36,11.62-5.36,11.62l-2.18-.63s2.22-8.64,1.63-12.72"/><path class="cls-4" d="M206.93,188.57h0a5.46,5.46,0,0,1,2.07,1s-.1.35-.1.35l-2.18-.63S206.86,188.87,206.93,188.57Z"/><ellipse class="cls-2" cx="207.52" cy="190.62" rx="1.3" ry="2.6" transform="translate(-33.28 336.97) rotate(-73.86)"/><ellipse class="cls-3" cx="208.67" cy="191.59" rx="0.22" ry="0.5" transform="translate(6.55 390.08) rotate(-87.04)"/><path class="cls-2" d="M195.43,165.12c-5.09-.13-12.35,3.35-12.35,3.35l-.91-2.07s8-3.86,10.79-6.92"/><path class="cls-4" d="M182.8,166.08l0,0a5.51,5.51,0,0,1,.58,2.21s-.32.15-.32.15l-.91-2.07Z"/><ellipse class="cls-2" cx="181.6" cy="167.86" rx="1.3" ry="2.6" transform="matrix(0.91, -0.4, 0.4, 0.91, -52.3, 87.58)"/><ellipse class="cls-3" cx="181.6" cy="169.36" rx="0.22" ry="0.5" transform="translate(-65.35 143.32) rotate(-36.98)"/><path class="cls-2" d="M194.57,139.44C191.87,135.13,185,131,185,131l1.22-1.91s7.66,4.56,11.73,5.16"/><path class="cls-4" d="M186.78,129.46l0,0a5.25,5.25,0,0,1-1.51,1.71L185,131l1.22-1.91Z"/><ellipse class="cls-2" cx="184.64" cy="129.45" rx="2.6" ry="1.3" transform="translate(-23.86 215.32) rotate(-57.42)"/><ellipse class="cls-3" cx="183.39" cy="130.27" rx="0.5" ry="0.22" transform="translate(-0.41 259.97) rotate(-70.6)"/><path class="cls-2" d="M201,132.13c-.88-3.83-4.89-8.58-4.89-8.58l1.38-1.09s4.43,5.27,7.25,6.73"/><path class="cls-4" d="M197.8,122.88h0a4.16,4.16,0,0,1-1.53.87s-.18-.21-.18-.21l1.38-1.09Z"/><ellipse class="cls-2" cx="196.25" cy="122.32" rx="2.01" ry="1" transform="translate(-33.58 147.96) rotate(-38.3)"/><ellipse class="cls-3" cx="195.13" cy="122.61" rx="0.38" ry="0.17" transform="translate(-22.33 198.91) rotate(-51.48)"/><path class="cls-2" d="M193,156.51c-3.72-1.27-9.87-.38-9.87-.38l-.19-1.74s6.81-1,9.55-2.6"/><path class="cls-4" d="M183.49,154.3v0a4.19,4.19,0,0,1-.08,1.76l-.27,0-.19-1.74Z"/><ellipse class="cls-2" cx="182.19" cy="155.33" rx="1" ry="2.01" transform="translate(-16.12 21.19) rotate(-6.38)"/><ellipse class="cls-3" cx="181.84" cy="156.43" rx="0.17" ry="0.38" transform="translate(-41.87 69.89) rotate(-19.55)"/><path class="cls-2" d="M206.5,174.79c-3.34,2.08-6.52,7.42-6.52,7.42l-1.48-1s3.54-5.91,4-9"/><path class="cls-4" d="M198.78,180.79h0a4.27,4.27,0,0,1,1.32,1.17l-.14.24-1.48-1Z"/><ellipse class="cls-2" cx="198.76" cy="182.44" rx="1" ry="2.01" transform="translate(-62.15 251.11) rotate(-57.29)"/><ellipse class="cls-3" cx="199.4" cy="183.41" rx="0.17" ry="0.38" transform="translate(-40.11 310.03) rotate(-70.47)"/><path class="cls-2" d="M225.72,176.77c-.71,3.08.51,7.93.51,7.93l-1.38.3s-1.35-5.38-2.87-7.43"/><path class="cls-4" d="M224.74,184.57h0a3.2,3.2,0,0,1,1.42-.08l0,.21-1.38.3Z"/><ellipse class="cls-2" cx="225.67" cy="185.53" rx="1.62" ry="0.81" transform="translate(-34.33 52.31) rotate(-12.29)"/><ellipse class="cls-3" cx="226.58" cy="185.71" rx="0.31" ry="0.14" transform="translate(-57.85 115.5) rotate(-25.47)"/><path class="cls-2" d="M221.43,177.79c-1.63,3.57-1.34,9.78-1.34,9.78l-1.75,0s-.31-6.88-1.66-9.76"/><path class="cls-4" d="M218.31,187.05h0a4.16,4.16,0,0,1,1.74.25,2.44,2.44,0,0,1,0,.27l-1.75,0S218.33,187.29,218.31,187.05Z"/><ellipse class="cls-2" cx="219.21" cy="188.44" rx="2.01" ry="1" transform="translate(-2.63 3.11) rotate(-0.81)"/><ellipse class="cls-3" cx="220.27" cy="188.89" rx="0.38" ry="0.17" transform="translate(-39.12 58.83) rotate(-13.99)"/><path class="cls-2" d="M192.35,146.16c-2.53-1.87-7.43-2.68-7.43-2.68l.27-1.38s5.44.91,7.91.34"/><path class="cls-4" d="M185.63,142.17v0a3.36,3.36,0,0,1-.48,1.33l-.22,0,.27-1.38Z"/><ellipse class="cls-2" cx="184.39" cy="142.64" rx="1.6" ry="0.8" transform="translate(8.46 295.6) rotate(-78.73)"/><ellipse class="cls-3" cx="183.86" cy="143.4" rx="0.14" ry="0.31" transform="translate(-4.67 6.2) rotate(-1.91)"/><path class="cls-2" d="M201.25,170.61c-3.22,1-7,4.8-7,4.8l-1-1.1s4.2-4.17,5.25-6.7"/><path class="cls-4" d="M193.55,174h0a3.78,3.78,0,0,1,.85,1.26l-.17.16-1-1.1Z"/><ellipse class="cls-2" cx="193.19" cy="175.35" rx="0.86" ry="1.72" transform="translate(-67.68 179.28) rotate(-43.09)"/><ellipse class="cls-3" cx="193.52" cy="176.29" rx="0.15" ry="0.33" transform="translate(-60.56 239.34) rotate(-56.27)"/><circle class="cls-1" cx="268.33" cy="265.34" r="27.18"/><path class="cls-2" d="M278.87,290.33a27.19,27.19,0,0,1-23.1-49.2,29.27,29.27,0,0,0,21.39,49.25C277.73,290.38,278.3,290.36,278.87,290.33Z"/><circle class="cls-2" cx="275.91" cy="248.58" r="2.57"/><circle class="cls-3" cx="252.63" cy="250.2" r="2.57"/><circle class="cls-3" cx="261.83" cy="248.58" r="1.93"/><circle class="cls-2" cx="265.35" cy="262.44" r="4.31"/><circle class="cls-3" cx="250.88" cy="271.01" r="4.31"/><circle class="cls-2" cx="270.86" cy="277.78" r="4.31"/><circle class="cls-4" cx="284.59" cy="275.21" r="2.57"/><circle class="cls-4" cx="257.78" cy="283.38" r="1.93"/><circle class="cls-4" cx="251.65" cy="261.56" r="1.93"/><circle class="cls-4" cx="282.02" cy="259.67" r="2.57"/><path class="cls-1" d="M265.35,238.32c2.17-4.6,1.91-12.65,1.91-12.65h2.27s.28,8.91,2,12.67"/><path class="cls-2" d="M269.56,226.38h0a5.29,5.29,0,0,1-2.26-.36v-.35h2.27S269.55,226.07,269.56,226.38Z"/><ellipse class="cls-1" cx="268.43" cy="224.57" rx="2.6" ry="1.3"/><ellipse class="cls-3" cx="267.05" cy="223.96" rx="0.5" ry="0.22" transform="translate(-44.02 66.78) rotate(-13.18)"/><path class="cls-1" d="M274.69,239.4c2.76-2.76,4.67-8.65,4.67-8.65l1.64.6s-2.12,6.51-1.87,9.66"/><path class="cls-2" d="M280.84,231.87h0a4.16,4.16,0,0,1-1.54-.85l.09-.26,1.64.6Z"/><ellipse class="cls-1" cx="280.49" cy="230.26" rx="1" ry="2" transform="translate(-31.21 416.1) rotate(-70.19)"/><ellipse class="cls-3" cx="279.65" cy="229.46" rx="0.17" ry="0.38" transform="translate(19.42 480.73) rotate(-83.37)"/><path class="cls-1" d="M280.54,241.94c2.87-1.76,5.65-6.3,5.65-6.3l1.25.82s-3.08,5-3.5,7.73"/><path class="cls-2" d="M287.2,236.87l0,0a3.49,3.49,0,0,1-1.12-1l.13-.2,1.25.82Z"/><ellipse class="cls-1" cx="287.23" cy="235.45" rx="0.86" ry="1.72" transform="translate(-67.15 346.58) rotate(-56.75)"/><ellipse class="cls-3" cx="286.69" cy="234.61" rx="0.15" ry="0.33" transform="translate(-32.05 423.39) rotate(-69.93)"/><path class="cls-1" d="M257.45,241.3C257.84,238,256,233,256,233l1.42-.48s2.06,5.53,3.92,7.53"/><path class="cls-2" d="M257.56,232.92h0a3.53,3.53,0,0,1-1.49.25L256,233l1.42-.48Z"/><ellipse class="cls-1" cx="256.47" cy="232.03" rx="1.72" ry="0.86" transform="translate(-60.75 94.25) rotate(-18.66)"/><ellipse class="cls-3" cx="255.48" cy="231.93" rx="0.33" ry="0.15" transform="translate(-83.91 169.66) rotate(-31.84)"/><path class="cls-1" d="M294.13,259.77c3.19,1.08,8.46.31,8.46.31l.17,1.49s-5.84.85-8.19,2.25"/><path class="cls-2" d="M302.29,261.65v0a3.7,3.7,0,0,1,.06-1.51l.24,0,.17,1.49Z"/><ellipse class="cls-1" cx="303.4" cy="260.76" rx="0.86" ry="1.72" transform="translate(-27.54 35.98) rotate(-6.49)"/><ellipse class="cls-3" cx="303.7" cy="259.82" rx="0.15" ry="0.33" transform="translate(-69.74 117.39) rotate(-19.67)"/><path class="cls-1" d="M294.72,265.4c2.88,1.74,8.2,2.11,8.2,2.11l-.15,1.5s-5.89-.42-8.47.44"/><path class="cls-2" d="M302.3,269v0a3.6,3.6,0,0,1,.38-1.47l.24,0-.15,1.5Z"/><ellipse class="cls-1" cx="303.57" cy="268.35" rx="1.72" ry="0.86" transform="translate(5.76 543.09) rotate(-84.17)"/><ellipse class="cls-3" cx="304.06" cy="267.49" rx="0.15" ry="0.33" transform="translate(-31.71 41.08) rotate(-7.35)"/><path class="cls-1" d="M292.35,276.28c1.91,2.77,6.6,5.3,6.6,5.3l-.76,1.29s-5.19-2.8-7.9-3.08"/><path class="cls-2" d="M297.78,282.66v0a3.66,3.66,0,0,1,.95-1.18l.21.12-.76,1.29Z"/><ellipse class="cls-1" cx="299.19" cy="282.61" rx="1.72" ry="0.86" transform="translate(-95.5 399.22) rotate(-59.83)"/><ellipse class="cls-3" cx="300" cy="282.03" rx="0.33" ry="0.15" transform="translate(-57.4 486.49) rotate(-73.01)"/><path class="cls-1" d="M292.27,253.5c3.9.34,9.63-2,9.63-2l.6,1.64s-6.35,2.57-8.6,4.79"/><path class="cls-2" d="M302,253.36v0a4.16,4.16,0,0,1-.35-1.72l.26-.1.6,1.64Z"/><ellipse class="cls-1" cx="303" cy="252.05" rx="1" ry="2" transform="translate(-68.55 120.57) rotate(-20.27)"/><ellipse class="cls-3" cx="303.07" cy="250.9" rx="0.17" ry="0.38" transform="translate(-88.1 208.59) rotate(-33.45)"/><path class="cls-1" d="M294.4,271.19c2.81,2.71,8.72,4.51,8.72,4.51l-.55,1.65s-6.56-2-9.71-1.69"/><path class="cls-2" d="M302,277.19v0a4.23,4.23,0,0,1,.81-1.56l.26.09-.55,1.65Z"/><ellipse class="cls-1" cx="303.64" cy="276.81" rx="2" ry="1" transform="matrix(0.32, -0.95, 0.95, 0.32, -55.9, 475.69)"/><ellipse class="cls-3" cx="304.42" cy="275.96" rx="0.38" ry="0.17" transform="matrix(0.1, -1, 1, 0.1, 0.46, 552.43)"/><path class="cls-1" d="M284.07,286.92c.33,3.9,3.6,9.14,3.6,9.14l-1.51.88s-3.62-5.82-6.18-7.67"/><path class="cls-2" d="M285.87,296.48l0,0a4.12,4.12,0,0,1,1.64-.63l.14.23-1.51.88Z"/><ellipse class="cls-1" cx="287.32" cy="297.24" rx="2" ry="1" transform="translate(-110.25 183.9) rotate(-30.06)"/><ellipse class="cls-3" cx="288.47" cy="297.12" rx="0.38" ry="0.17" transform="translate(-125.22 278.28) rotate(-43.24)"/><path class="cls-1" d="M286.58,245.19c4.89-1.42,10.74-6.95,10.74-6.95l1.5,1.69s-6.49,6.12-8.17,9.88"/><path class="cls-2" d="M298.31,240.43l0,0a5.38,5.38,0,0,1-1.23-1.92l.26-.24,1.5,1.69Z"/><ellipse class="cls-1" cx="298.92" cy="238.37" rx="1.3" ry="2.6" transform="translate(-82.9 258.16) rotate(-41.54)"/><ellipse class="cls-3" cx="298.46" cy="236.94" rx="0.22" ry="0.5" transform="translate(-67.36 343.71) rotate(-54.72)"/><path class="cls-1" d="M291.07,280.25c2.16,4.6,8.53,9.53,8.53,9.53l-1.44,1.74s-7.05-5.46-11-6.54"/><path class="cls-2" d="M297.59,291.1l0,0a5.5,5.5,0,0,1,1.71-1.52l.28.23-1.44,1.74Z"/><ellipse class="cls-1" cx="299.71" cy="291.37" rx="2.6" ry="1.3" transform="translate(-115.79 336.98) rotate(-50.46)"/><ellipse class="cls-3" cx="301.06" cy="290.7" rx="0.5" ry="0.22" transform="translate(-93.11 431.34) rotate(-63.63)"/><path class="cls-2" d="M263.68,292.13c-3.37,3.81-5.35,11.61-5.35,11.61l-2.18-.63s2.21-8.64,1.63-12.71"/><path class="cls-4" d="M256.32,302.42h0a5.46,5.46,0,0,1,2.07,1s-.09.34-.09.34l-2.18-.63S256.24,302.73,256.32,302.42Z"/><ellipse class="cls-2" cx="256.9" cy="304.48" rx="1.3" ry="2.6" transform="translate(-107 466.61) rotate(-73.86)"/><ellipse class="cls-3" cx="258.05" cy="305.45" rx="0.22" ry="0.5" transform="translate(-60.33 547.37) rotate(-87.04)"/><path class="cls-2" d="M244.81,279c-5.09-.14-12.34,3.35-12.34,3.35l-.92-2.08s8-3.85,10.8-6.91"/><path class="cls-4" d="M232.19,279.94v0a5.34,5.34,0,0,1,.59,2.21l-.32.15-.92-2.08Z"/><ellipse class="cls-2" cx="230.99" cy="281.71" rx="1.3" ry="2.6" transform="translate(-94.06 117.2) rotate(-23.81)"/><ellipse class="cls-3" cx="230.98" cy="283.21" rx="0.22" ry="0.5" transform="translate(-123.91 195.94) rotate(-36.98)"/><path class="cls-2" d="M244,253.3c-2.71-4.31-9.63-8.42-9.63-8.42l1.22-1.92s7.66,4.57,11.74,5.17"/><path class="cls-4" d="M236.17,243.32l0,0a5.39,5.39,0,0,1-1.52,1.71l-.3-.18,1.22-1.92S235.89,243.17,236.17,243.32Z"/><ellipse class="cls-2" cx="234.02" cy="243.3" rx="2.6" ry="1.3" transform="matrix(0.54, -0.84, 0.84, 0.54, -97.01, 309.48)"/><ellipse class="cls-3" cx="232.77" cy="244.13" rx="0.5" ry="0.22" transform="translate(-74.83 382.57) rotate(-70.6)"/><path class="cls-2" d="M250.35,246c-.89-3.83-4.89-8.58-4.89-8.58l1.37-1.08s4.43,5.27,7.25,6.73"/><path class="cls-4" d="M247.19,236.73l0,0a4.19,4.19,0,0,1-1.54.87l-.17-.22,1.37-1.08Z"/><ellipse class="cls-2" cx="245.63" cy="236.18" rx="2.01" ry="1" transform="translate(-93.51 203.08) rotate(-38.3)"/><ellipse class="cls-3" cx="244.51" cy="236.47" rx="0.38" ry="0.17" transform="translate(-92.78 280.5) rotate(-51.48)"/><path class="cls-2" d="M242.39,270.37c-3.72-1.28-9.87-.39-9.87-.39l-.19-1.74s6.81-1,9.55-2.59"/><path class="cls-4" d="M232.87,268.16v0a4.24,4.24,0,0,1-.07,1.77l-.28,0-.19-1.74Z"/><ellipse class="cls-2" cx="231.58" cy="269.19" rx="1" ry="2.01" transform="translate(-28.46 27.38) rotate(-6.38)"/><ellipse class="cls-3" cx="231.23" cy="270.29" rx="0.17" ry="0.38" transform="translate(-77.13 92.98) rotate(-19.55)"/><path class="cls-2" d="M255.88,288.65c-3.33,2.08-6.52,7.41-6.52,7.41l-1.47-.94s3.54-5.91,4-9.05"/><path class="cls-4" d="M248.16,294.64l0,0a4.11,4.11,0,0,1,1.31,1.17l-.14.23-1.47-.94Z"/><ellipse class="cls-2" cx="248.15" cy="296.29" rx="1" ry="2.01" transform="translate(-135.25 345) rotate(-57.29)"/><ellipse class="cls-3" cx="248.78" cy="297.26" rx="0.17" ry="0.38" transform="translate(-114.54 432.37) rotate(-70.47)"/><path class="cls-2" d="M275.1,290.62c-.71,3.09.51,7.94.51,7.94l-1.38.3s-1.34-5.38-2.87-7.43"/><path class="cls-4" d="M274.12,298.43h0a3.38,3.38,0,0,1,1.42-.09l.05.22-1.38.3Z"/><ellipse class="cls-2" cx="275.05" cy="299.38" rx="1.62" ry="0.81" transform="translate(-57.44 65.43) rotate(-12.29)"/><ellipse class="cls-3" cx="275.97" cy="299.57" rx="0.31" ry="0.14" transform="translate(-102.01 147.81) rotate(-25.47)"/><path class="cls-2" d="M270.82,291.65c-1.63,3.57-1.34,9.78-1.34,9.78l-1.75,0s-.32-6.87-1.66-9.75"/><path class="cls-4" d="M267.69,300.91h0a4,4,0,0,1,1.75.25v.27l-1.75,0S267.71,301.15,267.69,300.91Z"/><ellipse class="cls-2" cx="268.59" cy="302.29" rx="2.01" ry="1" transform="translate(-4.23 3.81) rotate(-0.81)"/><ellipse class="cls-3" cx="269.66" cy="302.75" rx="0.38" ry="0.17" transform="translate(-65.17 74.14) rotate(-13.99)"/><path class="cls-2" d="M241.73,260c-2.52-1.87-7.43-2.69-7.43-2.69l.28-1.37s5.43.91,7.91.34"/><path class="cls-4" d="M235,256v0a3.4,3.4,0,0,1-.49,1.32l-.22,0,.28-1.37Z"/><ellipse class="cls-2" cx="233.78" cy="256.5" rx="1.6" ry="0.8" transform="translate(-63.47 435.63) rotate(-78.73)"/><ellipse class="cls-3" cx="233.24" cy="257.25" rx="0.14" ry="0.31" transform="translate(-8.43 7.9) rotate(-1.91)"/><path class="cls-2" d="M250.63,284.46c-3.21,1-7,4.81-7,4.81l-1-1.1s4.19-4.18,5.24-6.7"/><path class="cls-4" d="M242.94,287.83v0a3.34,3.34,0,0,1,.85,1.26l-.17.16-1-1.1Z"/><ellipse class="cls-2" cx="242.57" cy="289.21" rx="0.86" ry="1.72" transform="translate(-132.15 243.73) rotate(-43.09)"/><ellipse class="cls-3" cx="242.9" cy="290.15" rx="0.15" ry="0.33" transform="translate(-133.28 331.05) rotate(-56.27)"/><ellipse class="cls-5" cx="135.12" cy="380.81" rx="51.56" ry="10.17"/><ellipse class="cls-5" cx="268.3" cy="337.38" rx="27.22" ry="5.87"/><ellipse class="cls-5" cx="219.21" cy="213.42" rx="27.22" ry="5.87"/><ellipse class="cls-5" cx="33.68" cy="193.34" rx="33.68" ry="19.45"/><path class="cls-6" d="M16.38,190c2.48,2,6.15.17,6.33.36A111.67,111.67,0,0,0,31.88,198c1.54,1.22,4,2.85,3.52,5.19-.78,4.18-7.48,2.9-10,1.62s-4.59-3.41-7-4.89c-1.71-1.06-3.39-1.61-3.65-3.77C14.6,194.82,15.94,189.93,16.38,190Z"/><path class="cls-7" d="M14.79,195.25c.33,2.07,2,2.64,3.68,3.69,2.43,1.51,4.57,3.69,7.1,5,2.33,1.18,8.16,2.35,9.8-.64-.89,4-7.48,2.77-10,1.51s-4.59-3.41-7-4.89c-1.71-1.06-3.39-1.61-3.65-3.77A3.86,3.86,0,0,1,14.79,195.25Z"/><path class="cls-6" d="M37.93,182c2.49,2,6.83-.18,7,0a92.53,92.53,0,0,0,8.19,7.4c1.54,1.21,4,2.84,3.52,5.18-.78,4.19-7.48,2.9-10,1.62s-4.59-3.4-7-4.89c-1.71-1.05-3.39-1.6-3.65-3.76C35.86,186.21,37.49,181.91,37.93,182Z"/><path class="cls-7" d="M36.09,186.94c.33,2.06,2,2.63,3.68,3.68,2.43,1.51,4.57,3.69,7.1,5,2.33,1.18,8.16,2.36,9.8-.63-.89,4-7.47,2.77-10,1.5s-4.59-3.4-7-4.89c-1.71-1.06-3.39-1.61-3.65-3.76A3.83,3.83,0,0,1,36.09,186.94Z"/><path class="cls-8" d="M54.53,44.77s-.08,4,.41,14.06a164.14,164.14,0,0,1-1,22.44,60.24,60.24,0,0,1-4.77,17.07c-1.78-8.57.29-10.08.29-10.08l-1-18.21s1-17.58.61-23.83C48.81,42.26,54.53,44.77,54.53,44.77Z"/><path class="cls-9" d="M16.3,98.26c.12,3.75,1.29,20.06,1.81,28.7s.64,19.22.64,19.22-1.49,6.29-2.45,13.68,0,30.73,0,30.73a5.87,5.87,0,0,0,6.36,0s4-18.68,5.81-27.09,2.16-13.26,3.12-18.48c1.15-6.31,3.64-35.75,3.64-35.75l1,0,2.66,33.24a37.4,37.4,0,0,0-1.68,7.54c-.72,5.42.77,32.66.77,32.66a6.6,6.6,0,0,0,6.87-.28s6.64-36.08,6.64-41.57c0-3.63-.62-51.51-.62-51.51Z"/><path class="cls-8" d="M25.3,25.66s.42,8.19.24,8.92-3.76,3.12-4.8,4,5.66,7.47,8.92,9S43.25,45.08,43.43,40s-1.77-9.33-3.35-9.56S25.3,25.66,25.3,25.66Z"/><path class="cls-10" d="M24.39,36s5.94,8.85,14.23,9.69c2.61-2.58,2.85-11.75-.77-14.68,0,0,3.33-2.68,5.6-2.16a12.4,12.4,0,0,1,5.8,6.74c1.53,4.67,2.39,10.06,2.25,18.74s0,35.24,0,35.24-1.17,5.61-8.67,9.79-13.07,4.59-18.15,3.4c-4.2-1-7.67-2.46-9.12-5.5.38-6.09,3.1-22,2.08-29.64S15,54.23,14.6,48s.82-6.06,3.92-8.27A48.5,48.5,0,0,1,24.39,36Z"/><path class="cls-8" d="M21.06,101.82c-1.23-1.38-3.36-9-4.58-13.88a48.94,48.94,0,0,1-.7-16.58c1.1-6.6,4.12-15.74,5-19.52s-.27-5.39-2-6.92c-2-1.79-4.91-1.26-6.81,4A103.5,103.5,0,0,0,7,71.39a52,52,0,0,0,1.47,17c1.27,5.13,3.13,8.88,5.51,13.6.65,1.29,2.13,4.88,3.08,7.48S22.19,103.08,21.06,101.82Z"/><path class="cls-11" d="M7,57.5s5.85,5.81,12.76,4.13c1-.67,3.36-14.25,3.36-14.25s0-7.53-5.77-7.33S7,57.5,7,57.5Z"/><path class="cls-11" d="M51.51,49.86s3.78.48,5.05-1.3c-.24-3-5.27-18.86-13.11-19.72a26.68,26.68,0,0,1,4.9,5.9C51.09,39.38,51.51,49.86,51.51,49.86Z"/><path class="cls-8" d="M44.51,19.24a22.1,22.1,0,0,1-1.49,9,6.94,6.94,0,0,1-2.66,3.45,6.77,6.77,0,0,1-2.56.83c-2,.28-9-1.39-11.35-4.1a12.92,12.92,0,0,1-1-2.78,12.6,12.6,0,0,1,6.42-23C38.42,2.28,43,7.09,44,13.45A39.2,39.2,0,0,1,44.51,19.24Z"/><rect class="cls-12" x="29.23" y="17.07" width="0.41" height="7.67" transform="translate(2.92 45.4) rotate(-78.11)"/><rect class="cls-12" x="28.18" y="21.85" width="0.41" height="6.49" transform="translate(-5.32 42.4) rotate(-68.65)"/><path class="cls-13" d="M25.44,25.66h0l.6-5.55s-4.53-11.73,6.18-9.48c7.06,1.49,8.84,2.13,11-2.61S37.77-1,28.77.2A12.44,12.44,0,0,0,17.63,12.83C17.86,16.32,18.79,23.38,25.44,25.66Z"/><path class="cls-10" d="M44.51,19.24a22.1,22.1,0,0,1-1.49,9,6.94,6.94,0,0,1-2.66,3.45C37.24,31.43,31,26.44,31,26.28a22.84,22.84,0,0,1,1.66-4.92c3.79,0,8-2.84,8.87-2.84A28.3,28.3,0,0,1,44.51,19.24Z"/><ellipse class="cls-5" cx="389.92" cy="480.55" rx="33.68" ry="19.45"/><path id="_Контур_" data-name=" Контур " class="cls-8" d="M417.76,332.43c.39,3.36,4.4,17.88,3.54,22.85s-14.53,13.29-14.53,13.29l-1.85-8.52,7.59-7.39-2.05-14.11Z"/><path id="_Контур_2" data-name=" Контур 2" class="cls-11" d="M407.15,318.13a6,6,0,0,1,7.64,2.3c2,3.35,4.12,14.79,4.3,16.76,0,0-2.83,3.92-7.07,3.26Z"/><path class="cls-6" d="M391.5,480a11.8,11.8,0,0,1-8.88-1.07c-2.14.06-13.74-4.9-15.32-.73-1.38,3.7,3.64,7,6.33,7.68,5.86,1.43,10.17,4.35,12.55,4.84,1.76.37,4,.62,5.43-.76C393.28,488.26,393.14,482.14,391.5,480Z"/><path class="cls-7" d="M386.18,489.67c-2.35-.5-6.69-3.42-12.55-4.84-2.25-.54-6.13-3-6.52-5.94-.52,3.36,4,6.35,6.52,6.95,5.86,1.43,10.17,4.35,12.55,4.84,1.76.37,4,.62,5.43-.76a3.53,3.53,0,0,0,.77-1.41A7.06,7.06,0,0,1,386.18,489.67Z"/><path class="cls-6" d="M410.32,471.51a11.75,11.75,0,0,1-8.88-1.07c-2.14.06-13.74-4.91-15.31-.74-1.39,3.66,3.64,7,6.32,7.69,5.86,1.42,10.17,4.35,12.55,4.85,1.76.37,4,.61,5.43-.77C412.1,479.81,412,473.69,410.32,471.51Z"/><path class="cls-7" d="M405,481.22c-2.35-.5-6.69-3.42-12.55-4.84-2.25-.54-6.13-3-6.47-5.94-.52,3.36,4,6.35,6.47,6.95,5.86,1.42,10.17,4.35,12.55,4.85,1.76.37,4,.61,5.43-.77a3.67,3.67,0,0,0,.77-1.41A7.06,7.06,0,0,1,405,481.22Z"/><path id="_Контур_3" data-name=" Контур 3" class="cls-9" d="M410.55,440a70.5,70.5,0,0,0-2.68-12.7s.8-11,1.2-21.38c.45-11.8,4.55-22.19,1.31-31.59L374,382.4s2.2,47.05,2.7,52.71a104.59,104.59,0,0,0,1.63,13.2c1.66,9.14,4.36,30.86,4.36,30.86,3.85,2.24,8.9,1,8.9,1s-.27-27.47-.52-34.06c-.3-8-.55-7.39-.55-7.39l1.2-20,.79-9.95s1,7.31,1.66,13.87c.58,5.69,1.95,10.84,3.49,21.43,1.33,9.19,3.49,27.66,3.49,27.66,3.85,2.24,9.08.38,9.08.38S411.58,448,410.55,440Z"/><path id="_Контур_4" data-name=" Контур 4" class="cls-8" d="M405.23,318.32c-2.77.14-4.84.85-5.19,0a39.45,39.45,0,0,1-.63-4.34c.32-.8.6-1.66.6-1.66,3.48-2.15,4.62-5.91,5-10.29.78-7.5-3.27-14-10.76-14.8-7.05-.73-12.22,4.22-13.6,11-.75,3.36-2.23,9.69-.22,15.22,1.11,3.08,2.56,5.54,4,6a36.27,36.27,0,0,0,4.17-.36h0s.38,2.08.63,3.41.16,2-2.5,3.7,4,5,8.38,4.68,9.25-3,10.63-5.79C407.27,321.94,407.14,318.23,405.23,318.32Z"/><path id="_Контур_5" data-name=" Контур 5" class="cls-10" d="M401.22,318.74c.77,1.91-1.19,4.25-6.39,5.89s-5.68-.47-5.68-.47-7.64,3.48-10.13,5.21c-3.12,2.19-4.5,8.51-4.93,19.19-.49,12.35-.52,30.67-.12,33.84,0,0,5.85,5.82,13.32,5.2s20-7.22,23.12-12.33c-.09-10.83-1.35-12.6.4-18.83,4-14.29,6.13-20.13,4.18-29.59-1.61-7.83-3.87-8.8-7-8.72A62.18,62.18,0,0,0,401.22,318.74Z"/><path id="_Контур_6" data-name=" Контур 6" class="cls-8" d="M362.38,360.84c6.14,1.55,7.57-2.32,8.39-5.55,2-7.75,3-14.79,4.45-19.15,1.71-5.2,3.51-6,6-7,3-1.18,5.55,1.32,4.52,7.93-1.16,7.81-2.7,13.31-5.62,22.55-.76,2.42-2.47,6.71-5,8.78-3.16,2.56-7.92,2.45-15.14.66-3.08-.77-6.47-2.6-12.27-5.32-1.56-.73-2.77-1.21-5.77-2.61a20.44,20.44,0,0,1-7.69-6c-1.58-2.28-1.78-3.35-1.46-3.87s1.11-.51,2,.46a16.81,16.81,0,0,0,4.42,4.07s-1.94-2-3-3.3a16.33,16.33,0,0,1-2.32-3.79c-.56-1.32.58-3.12,1.45-2.18s1.29,1.91,2.88,3.81A15.91,15.91,0,0,0,341,353a31.21,31.21,0,0,1-2.62-4.22,7.16,7.16,0,0,1-.93-3.81c0-.69,1-1.52,2-.2s1.36,3,3.3,5c1.39,1.46,2.59,2.29,2.62,1.89s-.85-1.2-1.35-2.89,0-3.49.93-3.7.76-.15,1.51,1.44,1.9,2.78,2.77,5.07a10.39,10.39,0,0,0,2.52,4.34C353.18,357.59,356.51,359.37,362.38,360.84Z"/><path id="_Контур_7" data-name=" Контур 7" class="cls-11" d="M383.49,328.09c-4.1-.62-7,1.23-8.8,7.39s-3.06,11.33-3.06,11.33a11.16,11.16,0,0,0,6.87,4.56c4.9,1.18,6.65-1.15,6.65-1.15s1.36-6.48,2.21-10.94S388.56,328.82,383.49,328.09Z"/><polygon class="cls-12" points="385.01 309.04 392.02 306.99 391.81 306.53 384.79 308.58 385.01 309.04"/><polygon class="cls-12" points="385.57 312.36 385.52 312.86 391.37 312.75 391.42 312.25 385.57 312.36"/><path class="cls-11" d="M384.8,319.53c-1.86,0-3.4-2.95-4.56-6a18,18,0,0,1-1.05-6.71.33.33,0,0,1,.47-.29,11.53,11.53,0,0,0,6.11,1.72l1,4.76S385,319.29,384.8,319.53Z"/><path class="cls-13" d="M380.92,297.25s-6.47-9.84,7.55-11.84c10.12-1.45,16.65,5,17.37,12.1.72,6.73-3.43,13.74-6.43,16.51-1.46.53-4.62.82-8.73-1a46.8,46.8,0,0,1-.2-5.55S395.41,297.08,380.92,297.25Z"/><path class="cls-10" d="M414.07,340.86,374,378.22l-2.34,71.84s11.24,5.49,24,2.52L398,425,401.54,450l-.42.76a36.14,36.14,0,0,0,15-12.5Z"/><path class="cls-11" d="M371.63,346.81l-2,8.67s-1.68,6.07-6,4.53a113.45,113.45,0,0,1-11.87-5.83l-5.18,10.63,10.71,5s14.87,5.3,19,0,8.77-19.61,8.77-19.61Z"/><path class="cls-14" d="M383,307.77c1.06.22,2.31.29,3,1.16a3.6,3.6,0,0,1,.24,2.91l-1.28,6.38a2.06,2.06,0,0,1-.72,1.41,1.74,1.74,0,0,1-1.7-.16,8.41,8.41,0,0,1-4-6.13,14.28,14.28,0,0,1,.15-6.44c.39-1.07,1-.66,1.72-.19A7.69,7.69,0,0,0,383,307.77Z"/></g></g></svg>