<svg width="300" height="355" viewBox="0 0 300 355" fill="none" xmlns="http://www.w3.org/2000/svg">
<g clip-path="url(#clip0)">
<path d="M95.7082 232.599C115.867 232.599 132.21 216.257 132.21 196.098C132.21 175.939 115.867 159.596 95.7082 159.596C75.549 159.596 59.2068 175.939 59.2068 196.098C59.2068 216.257 75.549 232.599 95.7082 232.599Z" fill="#FF7B7B"/>
<path d="M109.851 229.66C101.157 233.338 91.3761 233.505 82.5609 230.127C73.7457 226.75 66.5812 220.089 62.5703 211.544C58.5594 202.998 58.014 193.231 61.0484 184.292C64.0828 175.353 70.4613 167.936 78.8456 163.598C73.6183 169.195 70.1402 176.198 68.8387 183.745C67.5372 191.293 68.469 199.056 71.5196 206.081C74.5702 213.106 79.6067 219.087 86.0101 223.288C92.4135 227.49 99.905 229.729 107.564 229.731C108.357 229.724 109.101 229.703 109.851 229.66Z" fill="#E26D6D"/>
<path d="M105.878 177.054C107.787 177.054 109.334 175.506 109.334 173.598C109.334 171.689 107.787 170.142 105.878 170.142C103.969 170.142 102.422 171.689 102.422 173.598C102.422 175.506 103.969 177.054 105.878 177.054Z" fill="#E26D6D"/>
<path d="M74.6246 179.228C76.5334 179.228 78.0807 177.681 78.0807 175.772C78.0807 173.863 76.5334 172.316 74.6246 172.316C72.7159 172.316 71.1685 173.863 71.1685 175.772C71.1685 177.681 72.7159 179.228 74.6246 179.228Z" fill="#F4F6F9"/>
<path d="M86.9688 176.19C88.4004 176.19 89.5609 175.029 89.5609 173.598C89.5609 172.166 88.4004 171.006 86.9688 171.006C85.5373 171.006 84.3768 172.166 84.3768 173.598C84.3768 175.029 85.5373 176.19 86.9688 176.19Z" fill="#F4F6F9"/>
<path d="M91.7068 197.996C94.9024 197.996 97.4929 195.405 97.4929 192.21C97.4929 189.014 94.9024 186.424 91.7068 186.424C88.5112 186.424 85.9207 189.014 85.9207 192.21C85.9207 195.405 88.5112 197.996 91.7068 197.996Z" fill="#E26D6D"/>
<path d="M72.2734 209.504C75.469 209.504 78.0595 206.914 78.0595 203.718C78.0595 200.523 75.469 197.932 72.2734 197.932C69.0778 197.932 66.4872 200.523 66.4872 203.718C66.4872 206.914 69.0778 209.504 72.2734 209.504Z" fill="#F4F6F9"/>
<path d="M99.1077 218.591C102.303 218.591 104.894 216 104.894 212.805C104.894 209.609 102.303 207.018 99.1077 207.018C95.9121 207.018 93.3215 209.609 93.3215 212.805C93.3215 216 95.9121 218.591 99.1077 218.591Z" fill="#E26D6D"/>
<path d="M117.542 212.805C119.451 212.805 120.999 211.257 120.999 209.348C120.999 207.44 119.451 205.892 117.542 205.892C115.634 205.892 114.086 207.44 114.086 209.348C114.086 211.257 115.634 212.805 117.542 212.805Z" fill="#D16969"/>
<path d="M81.5368 222.918C82.9684 222.918 84.1289 221.757 84.1289 220.326C84.1289 218.894 82.9684 217.734 81.5368 217.734C80.1053 217.734 78.9448 218.894 78.9448 220.326C78.9448 221.757 80.1053 222.918 81.5368 222.918Z" fill="#D16969"/>
<path d="M73.3003 193.612C74.7318 193.612 75.8924 192.451 75.8924 191.02C75.8924 189.588 74.7318 188.428 73.3003 188.428C71.8687 188.428 70.7082 189.588 70.7082 191.02C70.7082 192.451 71.8687 193.612 73.3003 193.612Z" fill="#D16969"/>
<path d="M114.086 191.94C115.995 191.94 117.542 190.393 117.542 188.484C117.542 186.576 115.995 185.028 114.086 185.028C112.178 185.028 110.63 186.576 110.63 188.484C110.63 190.393 112.178 191.94 114.086 191.94Z" fill="#D16969"/>
<path d="M91.7068 159.816C94.6247 153.633 94.2776 142.819 94.2776 142.819H97.323C97.323 142.819 97.6983 154.795 99.9646 159.816" fill="#FF7B7B"/>
<path d="M97.3654 143.768H97.3159C96.2833 143.825 95.2504 143.663 94.2847 143.293C94.2847 143.293 94.2847 142.812 94.2847 142.812H97.33C97.33 142.812 97.3442 143.364 97.3654 143.768Z" fill="#E26D6D"/>
<path d="M95.8357 143.088C97.764 143.088 99.3272 142.308 99.3272 141.346C99.3272 140.383 97.764 139.603 95.8357 139.603C93.9074 139.603 92.3442 140.383 92.3442 141.346C92.3442 142.308 93.9074 143.088 95.8357 143.088Z" fill="#FF7B7B"/>
<path d="M94.068 140.815C94.4259 140.731 94.6858 140.533 94.6483 140.373C94.6109 140.213 94.2903 140.152 93.9323 140.235C93.5743 140.319 93.3145 140.517 93.3519 140.677C93.3894 140.837 93.71 140.899 94.068 140.815Z" fill="#F4F6F9"/>
<path d="M104.242 161.261C107.96 157.557 110.517 149.66 110.517 149.66L112.72 150.453C112.72 150.453 109.887 159.2 110.205 163.428" fill="#FF7B7B"/>
<path d="M112.5 151.147C111.742 150.916 111.04 150.531 110.439 150.014L110.552 149.667L112.755 150.46C112.755 150.46 112.606 150.85 112.5 151.147Z" fill="#E26D6D"/>
<path d="M114.552 149.894C114.802 149.199 113.878 148.229 112.487 147.728C111.096 147.227 109.765 147.384 109.515 148.08C109.264 148.775 110.189 149.745 111.58 150.246C112.971 150.747 114.301 150.59 114.552 149.894Z" fill="#FF7B7B"/>
<path d="M111.417 147.972C111.431 147.847 111.216 147.72 110.936 147.688C110.656 147.655 110.418 147.73 110.404 147.854C110.389 147.978 110.604 148.105 110.884 148.138C111.164 148.17 111.402 148.096 111.417 147.972Z" fill="#F4F6F9"/>
<path d="M112.103 164.681C115.956 162.323 119.688 156.218 119.688 156.218L121.367 157.323C121.367 157.323 117.231 164.079 116.664 167.691" fill="#FF7B7B"/>
<path d="M121.048 157.861C120.456 157.517 119.945 157.051 119.547 156.494L119.717 156.232L121.395 157.337L121.048 157.861Z" fill="#E26D6D"/>
<path d="M123.02 157.24C123.37 156.707 122.789 155.708 121.723 155.009C120.656 154.309 119.508 154.175 119.159 154.708C118.809 155.241 119.39 156.24 120.457 156.939C121.523 157.639 122.671 157.773 123.02 157.24Z" fill="#FF7B7B"/>
<path d="M120.77 154.993C120.808 154.89 120.653 154.739 120.426 154.656C120.198 154.573 119.983 154.589 119.945 154.692C119.908 154.794 120.062 154.945 120.29 155.028C120.517 155.112 120.732 155.096 120.77 154.993Z" fill="#F4F6F9"/>
<path d="M81.0978 163.81C81.6147 159.32 79.1147 152.62 79.1147 152.62L81.0198 151.976C81.0198 151.976 83.789 159.405 86.2819 162.082" fill="#FF7B7B"/>
<path d="M81.2465 152.571C80.6126 152.825 79.9316 152.941 79.2493 152.911C79.2493 152.911 79.1431 152.613 79.1431 152.613L81.0482 151.969L81.2465 152.571Z" fill="#E26D6D"/>
<path d="M80.1443 152.458C81.3524 152.05 82.1663 151.229 81.9624 150.625C81.7584 150.021 80.6137 149.862 79.4056 150.27C78.1975 150.678 77.3835 151.498 77.5875 152.103C77.7915 152.707 78.9362 152.865 80.1443 152.458Z" fill="#FF7B7B"/>
<path d="M78.5536 151.4C78.7596 151.272 78.8797 151.093 78.822 151C78.7642 150.907 78.5503 150.935 78.3443 151.063C78.1383 151.191 78.0181 151.37 78.0759 151.463C78.1337 151.557 78.3475 151.528 78.5536 151.4Z" fill="#F4F6F9"/>
<path d="M130.347 188.619C134.596 190.078 141.678 189.037 141.678 189.037L141.905 191.041C141.905 191.041 134.065 192.181 130.921 194.051" fill="#FF7B7B"/>
<path d="M141.31 191.14V191.105C141.197 190.431 141.228 189.74 141.402 189.079L141.714 189.037L141.941 191.041L141.31 191.14Z" fill="#E26D6D"/>
<path d="M143.047 192.252C143.68 192.18 144.077 191.095 143.933 189.828C143.789 188.561 143.158 187.592 142.525 187.664C141.891 187.736 141.495 188.822 141.639 190.089C141.783 191.356 142.413 192.324 143.047 192.252Z" fill="#FF7B7B"/>
<path d="M143.341 189.1C143.444 189.064 143.462 188.849 143.38 188.62C143.299 188.392 143.149 188.237 143.046 188.273C142.943 188.31 142.925 188.525 143.007 188.754C143.088 188.982 143.238 189.137 143.341 189.1Z" fill="#F4F6F9"/>
<path d="M131.147 196.176C135.021 198.513 142.153 199.008 142.153 199.008L141.948 201.013C141.948 201.013 134.044 200.46 130.574 201.615" fill="#FF7B7B"/>
<path d="M141.317 200.984C141.346 200.301 141.522 199.631 141.834 199.023H142.146L141.94 201.027L141.317 200.984Z" fill="#E26D6D"/>
<path d="M144.167 200.259C144.296 198.991 143.887 197.91 143.253 197.845C142.619 197.78 141.999 198.756 141.87 200.025C141.74 201.293 142.15 202.374 142.784 202.439C143.418 202.503 144.037 201.528 144.167 200.259Z" fill="#FF7B7B"/>
<path d="M143.901 198.76C144.009 198.746 144.072 198.54 144.04 198.3C144.008 198.06 143.895 197.877 143.787 197.891C143.678 197.905 143.616 198.111 143.647 198.351C143.679 198.592 143.792 198.775 143.901 198.76Z" fill="#F4F6F9"/>
<path d="M127.96 210.786C130.524 214.511 136.82 217.904 136.82 217.904L135.807 219.646C135.807 219.646 128.839 215.878 125.184 215.503" fill="#FF7B7B"/>
<path d="M135.269 219.348C135.58 218.738 136.017 218.199 136.551 217.769L136.827 217.925L135.814 219.667L135.269 219.348Z" fill="#E26D6D"/>
<path d="M138.147 219.853C138.788 218.751 138.86 217.597 138.309 217.277C137.758 216.957 136.792 217.59 136.151 218.693C135.51 219.795 135.437 220.949 135.988 221.269C136.54 221.589 137.506 220.956 138.147 219.853Z" fill="#FF7B7B"/>
<path d="M138.417 218.544C138.488 218.312 138.46 218.098 138.356 218.066C138.251 218.034 138.109 218.196 138.038 218.428C137.967 218.66 137.994 218.874 138.099 218.906C138.204 218.938 138.346 218.776 138.417 218.544Z" fill="#F4F6F9"/>
<path d="M127.861 180.198C133.088 180.659 140.779 177.528 140.779 177.528L141.593 179.724C141.593 179.724 133.095 183.18 130.035 186.154" fill="#FF7B7B"/>
<path d="M140.935 180.007C140.618 179.279 140.461 178.492 140.475 177.698L140.814 177.564L141.629 179.759L140.935 180.007Z" fill="#E26D6D"/>
<path d="M143.194 180.763C143.887 180.507 144.034 179.175 143.522 177.788C143.01 176.401 142.033 175.485 141.339 175.741C140.646 175.997 140.499 177.329 141.011 178.716C141.523 180.103 142.5 181.02 143.194 180.763Z" fill="#FF7B7B"/>
<path d="M142.642 177.127C142.747 177.058 142.705 176.812 142.55 176.577C142.395 176.342 142.184 176.207 142.08 176.276C141.976 176.345 142.017 176.592 142.172 176.827C142.327 177.062 142.538 177.196 142.642 177.127Z" fill="#F4F6F9"/>
<path d="M130.708 203.966C134.483 207.613 142.429 210.021 142.429 210.021L141.678 212.238C141.678 212.238 132.882 209.561 128.654 209.972" fill="#FF7B7B"/>
<path d="M140.977 212.011C141.193 211.246 141.567 210.534 142.075 209.922L142.422 210.035L141.671 212.252L140.977 212.011Z" fill="#E26D6D"/>
<path d="M144.389 211.942C144.863 210.542 144.68 209.214 143.98 208.977C143.28 208.74 142.328 209.683 141.854 211.084C141.38 212.484 141.563 213.812 142.263 214.049C142.963 214.286 143.915 213.342 144.389 211.942Z" fill="#FF7B7B"/>
<path d="M144.4 210.388C144.427 210.108 144.348 209.871 144.224 209.859C144.099 209.847 143.976 210.064 143.949 210.344C143.922 210.625 144.001 210.862 144.126 210.874C144.25 210.886 144.373 210.668 144.4 210.388Z" fill="#F4F6F9"/>
<path d="M116.856 225.078C117.295 230.305 121.678 237.358 121.678 237.358L119.653 238.527C119.653 238.527 114.802 230.737 111.353 228.237" fill="#FF7B7B"/>
<path d="M119.256 237.911C119.921 237.477 120.669 237.187 121.452 237.061L121.643 237.38L119.618 238.548L119.256 237.911Z" fill="#E26D6D"/>
<path d="M121.873 240.102C123.152 239.361 123.89 238.242 123.519 237.602C123.149 236.962 121.812 237.044 120.532 237.785C119.252 238.525 118.515 239.644 118.885 240.284C119.256 240.924 120.593 240.842 121.873 240.102Z" fill="#FF7B7B"/>
<path d="M122.902 238.93C123.107 238.738 123.204 238.507 123.118 238.416C123.033 238.325 122.797 238.407 122.592 238.6C122.386 238.793 122.29 239.023 122.375 239.115C122.461 239.206 122.697 239.123 122.902 238.93Z" fill="#F4F6F9"/>
<path d="M120.212 169.044C126.771 167.139 134.632 159.703 134.632 159.703L136.657 161.983C136.657 161.983 127.939 170.198 125.673 175.241" fill="#FF7B7B"/>
<path d="M135.977 162.649C135.251 161.913 134.688 161.032 134.327 160.064C134.327 160.064 134.674 159.738 134.674 159.738L136.7 162.018L135.977 162.649Z" fill="#E26D6D"/>
<path d="M139.091 162.491C139.811 161.853 139.359 160.165 138.08 158.722C136.801 157.279 135.181 156.626 134.461 157.264C133.74 157.902 134.193 159.589 135.472 161.033C136.751 162.476 138.371 163.129 139.091 162.491Z" fill="#FF7B7B"/>
<path d="M136.715 158.331C136.81 158.197 136.644 157.916 136.343 157.703C136.043 157.491 135.723 157.428 135.628 157.562C135.533 157.696 135.7 157.977 136 158.189C136.3 158.401 136.62 158.465 136.715 158.331Z" fill="#F4F6F9"/>
<path d="M126.239 216.112C129.143 222.302 137.698 228.909 137.698 228.909L135.758 231.261C135.758 231.261 126.289 223.923 120.956 222.465" fill="#FF7B7B"/>
<path d="M135 230.687V230.652C135.61 229.818 136.393 229.124 137.295 228.619C137.295 228.619 137.67 228.909 137.67 228.909L135.729 231.261L135 230.687Z" fill="#E26D6D"/>
<path d="M139.19 232.146C140.417 230.659 140.811 228.957 140.069 228.344C139.327 227.731 137.73 228.44 136.503 229.927C135.275 231.415 134.881 233.117 135.623 233.729C136.365 234.342 137.962 233.633 139.19 232.146Z" fill="#FF7B7B"/>
<path d="M139.919 230.312C140.082 229.982 140.095 229.656 139.948 229.583C139.801 229.51 139.549 229.718 139.386 230.048C139.223 230.377 139.209 230.703 139.357 230.776C139.504 230.849 139.756 230.641 139.919 230.312Z" fill="#F4F6F9"/>
<path d="M89.4689 232.068C84.9434 237.195 82.2734 247.649 82.2734 247.649L79.3484 246.799C79.3484 246.799 82.3159 235.198 81.5368 229.724" fill="#E26D6D"/>
<path d="M79.5751 245.892H79.6176C80.6271 246.125 81.5757 246.569 82.4009 247.195L82.2734 247.656L79.3484 246.806L79.5751 245.892Z" fill="#D16969"/>
<path d="M83.718 249.629C83.9855 248.705 82.7007 247.521 80.8484 246.985C78.9961 246.449 77.2777 246.764 77.0102 247.688C76.7427 248.612 78.0275 249.796 79.8798 250.332C81.7321 250.868 83.4505 250.553 83.718 249.629Z" fill="#E26D6D"/>
<path d="M82.5707 249.977C82.5792 249.813 82.2884 249.665 81.9213 249.646C81.5541 249.627 81.2496 249.745 81.2411 249.909C81.2326 250.073 81.5234 250.221 81.8905 250.24C82.2577 250.259 82.5623 250.142 82.5707 249.977Z" fill="#F4F6F9"/>
<path d="M64.1218 214.412C57.2946 214.228 47.5496 218.909 47.5496 218.909L46.3173 216.126C46.3173 216.126 57.1176 210.949 60.8145 206.841" fill="#E26D6D"/>
<path d="M47.1742 215.701V215.744C47.6418 216.667 47.9096 217.678 47.9604 218.711L47.5283 218.909L46.2961 216.126L47.1742 215.701Z" fill="#D16969"/>
<path d="M46.9815 221.269C47.8618 220.881 47.9444 219.136 47.1659 217.371C46.3875 215.607 45.0428 214.492 44.1625 214.88C43.2822 215.269 43.1996 217.014 43.9781 218.778C44.7565 220.542 46.1012 221.657 46.9815 221.269Z" fill="#E26D6D"/>
<path d="M45.9494 220.644C46.0807 220.545 46.0077 220.227 45.7866 219.933C45.5654 219.64 45.2797 219.482 45.1485 219.58C45.0173 219.679 45.0902 219.997 45.3113 220.291C45.5325 220.585 45.8182 220.743 45.9494 220.644Z" fill="#F4F6F9"/>
<path d="M62.9745 179.929C59.3414 174.143 50.0496 168.598 50.0496 168.598L51.6997 166.055C51.6997 166.055 61.9901 172.188 67.4646 172.989" fill="#E26D6D"/>
<path d="M52.5141 166.53V166.572C52.0067 167.475 51.3111 168.257 50.4745 168.867L50.0708 168.619L51.6997 166.055L52.5141 166.53Z" fill="#D16969"/>
<path d="M51.1104 167.44C52.1488 165.815 52.3332 164.078 51.5225 163.56C50.7117 163.042 49.2127 163.939 48.1743 165.564C47.136 167.189 46.9515 168.926 47.7623 169.444C48.5731 169.962 50.0721 169.065 51.1104 167.44Z" fill="#E26D6D"/>
<path d="M48.238 167.706C48.3601 167.359 48.3335 167.033 48.1786 166.979C48.0236 166.924 47.799 167.161 47.6769 167.508C47.5548 167.855 47.5814 168.18 47.7363 168.235C47.8913 168.289 48.1159 168.052 48.238 167.706Z" fill="#F4F6F9"/>
<path d="M71.5298 170.106C70.34 164.965 64.9646 158.584 64.9646 158.584L66.806 157.167C66.806 157.167 72.762 164.249 76.551 166.204" fill="#E26D6D"/>
<path d="M67.3159 157.684C66.7176 158.209 66.0154 158.603 65.255 158.839L65.0212 158.555L66.8626 157.139L67.3159 157.684Z" fill="#D16969"/>
<path d="M66.0542 158C67.2206 157.079 67.7928 155.859 67.3322 155.276C66.8716 154.693 65.5527 154.967 64.3862 155.888C63.2198 156.809 62.6476 158.029 63.1082 158.612C63.5688 159.195 64.8878 158.921 66.0542 158Z" fill="#E26D6D"/>
<path d="M63.8957 157.472C64.0735 157.248 64.1383 157.004 64.0404 156.926C63.9424 156.848 63.7189 156.966 63.5411 157.189C63.3632 157.413 63.2985 157.657 63.3964 157.735C63.4943 157.813 63.7179 157.695 63.8957 157.472Z" fill="#F4F6F9"/>
<path d="M60.9065 202.847C55.949 201.14 47.6558 202.33 47.6558 202.33L47.3938 200C47.3938 200 56.5156 198.683 60.1983 196.508" fill="#E26D6D"/>
<path d="M48.0949 199.887V199.922C48.2293 200.709 48.1931 201.516 47.9887 202.288L47.6275 202.33L47.3654 200L48.0949 199.887Z" fill="#D16969"/>
<path d="M46.6612 203.933C47.3997 203.851 47.8646 202.586 47.6994 201.109C47.5342 199.632 46.8016 198.501 46.0631 198.584C45.3245 198.667 44.8597 199.931 45.0249 201.408C45.19 202.885 45.9226 204.016 46.6612 203.933Z" fill="#E26D6D"/>
<path d="M46.0459 203.246C46.1639 203.204 46.182 202.952 46.0865 202.683C45.9909 202.414 45.8178 202.23 45.6999 202.271C45.5819 202.313 45.5638 202.565 45.6593 202.835C45.7549 203.104 45.928 203.288 46.0459 203.246Z" fill="#F4F6F9"/>
<path d="M78.9872 227.394C74.5113 230.191 70.2337 237.351 70.2337 237.351L68.2578 236.084C68.2578 236.084 73.0099 228.152 73.6331 223.931" fill="#E26D6D"/>
<path d="M68.6261 235.446C69.3218 235.838 69.9255 236.374 70.3966 237.018L70.2054 237.33L68.2295 236.062L68.6261 235.446Z" fill="#D16969"/>
<path d="M70.495 239.139C70.8963 238.515 70.2095 237.358 68.961 236.556C67.7125 235.753 66.3751 235.608 65.9738 236.233C65.5725 236.857 66.2593 238.014 67.5078 238.816C68.7563 239.619 70.0937 239.763 70.495 239.139Z" fill="#E26D6D"/>
<path d="M69.9456 239.148C69.9875 239.03 69.8033 238.857 69.5342 238.761C69.2651 238.666 69.013 238.684 68.9711 238.802C68.9293 238.92 69.1135 239.093 69.3826 239.188C69.6517 239.284 69.9038 239.266 69.9456 239.148Z" fill="#F4F6F9"/>
<path d="M104.816 230.05C103.86 234.193 105.524 240.708 105.524 240.708L103.669 241.112C103.669 241.112 101.863 233.888 99.8159 231.126" fill="#E26D6D"/>
<path d="M103.484 240.538C104.104 240.364 104.754 240.326 105.39 240.425L105.46 240.715L103.605 241.119C103.605 241.119 103.555 240.793 103.484 240.538Z" fill="#D16969"/>
<path d="M104.947 242.884C106.117 242.629 106.961 241.949 106.834 241.364C106.707 240.779 105.655 240.512 104.486 240.767C103.317 241.021 102.472 241.702 102.599 242.287C102.727 242.871 103.778 243.139 104.947 242.884Z" fill="#E26D6D"/>
<path d="M106.039 242.24C106.248 242.141 106.381 241.986 106.337 241.894C106.294 241.802 106.089 241.808 105.881 241.908C105.673 242.007 105.539 242.162 105.583 242.254C105.627 242.345 105.831 242.339 106.039 242.24Z" fill="#F4F6F9"/>
<path d="M99.0439 231.423C96.8626 236.225 97.245 244.561 97.245 244.561L94.8938 244.596C94.8938 244.596 94.4759 235.389 92.67 231.494" fill="#E26D6D"/>
<path d="M94.8513 243.86C95.6475 243.801 96.447 243.915 97.1955 244.193V244.561L94.8442 244.596C94.8442 244.596 94.9008 244.186 94.8513 243.86Z" fill="#D16969"/>
<path d="M96.0823 247.066C97.5684 247.045 98.7647 246.426 98.7542 245.683C98.7437 244.94 97.5304 244.354 96.0442 244.375C94.5581 244.396 93.3618 245.016 93.3723 245.759C93.3828 246.502 94.5961 247.087 96.0823 247.066Z" fill="#E26D6D"/>
<path d="M97.5641 246.54C97.8411 246.47 98.0412 246.316 98.0109 246.195C97.9807 246.073 97.7316 246.031 97.4545 246.1C97.1774 246.169 96.9774 246.323 97.0076 246.445C97.0379 246.566 97.287 246.609 97.5641 246.54Z" fill="#F4F6F9"/>
<path d="M59.9858 188.952C56.6006 186.438 50.0142 185.347 50.0142 185.347L50.3824 183.506C50.3824 183.506 57.677 184.724 61.0057 183.952" fill="#E26D6D"/>
<path d="M50.9915 183.591C50.9078 184.224 50.6853 184.831 50.34 185.368L50.0496 185.319L50.4179 183.477L50.9915 183.591Z" fill="#D16969"/>
<path d="M50.3547 184.43C50.5871 183.264 50.3028 182.225 49.7197 182.108C49.1367 181.992 48.4756 182.843 48.2432 184.009C48.0109 185.176 48.2951 186.215 48.8782 186.331C49.4613 186.447 50.1223 185.596 50.3547 184.43Z" fill="#E26D6D"/>
<path d="M48.6111 185.65C48.7128 185.646 48.789 185.46 48.7815 185.233C48.7739 185.006 48.6854 184.825 48.5838 184.829C48.4821 184.832 48.4058 185.019 48.4134 185.245C48.421 185.472 48.5095 185.653 48.6111 185.65Z" fill="#F4F6F9"/>
<path d="M71.9476 221.778C67.6275 223.194 62.5425 228.236 62.5425 228.236L61.1261 226.756C61.1261 226.756 66.7918 221.147 68.2082 217.762" fill="#E26D6D"/>
<path d="M61.6147 226.303C62.1221 226.793 62.5161 227.387 62.7691 228.045L62.5425 228.272L61.1261 226.792C61.1261 226.792 61.4164 226.508 61.6147 226.303Z" fill="#D16969"/>
<path d="M62.7003 229.846C63.1687 229.408 62.8402 228.295 61.9664 227.361C61.0926 226.427 60.0046 226.025 59.5361 226.464C59.0677 226.902 59.3962 228.014 60.27 228.948C61.1437 229.882 62.2318 230.284 62.7003 229.846Z" fill="#E26D6D"/>
<path d="M61.9202 229.659C61.981 229.567 61.8668 229.384 61.6651 229.25C61.4634 229.115 61.2506 229.08 61.1898 229.171C61.129 229.262 61.2432 229.445 61.4449 229.58C61.6466 229.714 61.8594 229.75 61.9202 229.659Z" fill="#F4F6F9"/>
<path d="M155.064 126.53C165.695 126.53 174.313 117.912 174.313 107.28C174.313 96.6494 165.695 88.0312 155.064 88.0312C144.433 88.0312 135.814 96.6494 135.814 107.28C135.814 117.912 144.433 126.53 155.064 126.53Z" fill="#FF7B7B"/>
<path d="M162.521 124.986C157.925 126.984 152.731 127.112 148.042 125.342C143.353 123.572 139.539 120.043 137.41 115.506C135.281 110.969 135.005 105.781 136.64 101.043C138.276 96.3055 141.694 92.3922 146.169 90.1346C143.411 93.0867 141.576 96.7804 140.889 100.761C140.203 104.742 140.694 108.837 142.304 112.543C143.913 116.248 146.57 119.402 149.948 121.618C153.326 123.834 157.278 125.014 161.317 125.014C161.721 125.014 162.125 125.007 162.521 124.986Z" fill="#E26D6D"/>
<path d="M160.425 97.2309C161.43 97.2309 162.245 96.416 162.245 95.4108C162.245 94.4055 161.43 93.5906 160.425 93.5906C159.42 93.5906 158.605 94.4055 158.605 95.4108C158.605 96.416 159.42 97.2309 160.425 97.2309Z" fill="#E26D6D"/>
<path d="M143.945 98.3853C144.95 98.3853 145.765 97.5704 145.765 96.5652C145.765 95.5599 144.95 94.745 143.945 94.745C142.94 94.745 142.125 95.5599 142.125 96.5652C142.125 97.5704 142.94 98.3853 143.945 98.3853Z" fill="#F4F6F9"/>
<path d="M150.453 96.7776C151.208 96.7776 151.82 96.1657 151.82 95.4108C151.82 94.6559 151.208 94.0439 150.453 94.0439C149.698 94.0439 149.086 94.6559 149.086 95.4108C149.086 96.1657 149.698 96.7776 150.453 96.7776Z" fill="#F4F6F9"/>
<path d="M152.953 108.279C154.639 108.279 156.006 106.912 156.006 105.227C156.006 103.541 154.639 102.174 152.953 102.174C151.267 102.174 149.901 103.541 149.901 105.227C149.901 106.912 151.267 108.279 152.953 108.279Z" fill="#E26D6D"/>
<path d="M142.705 114.356C144.391 114.356 145.758 112.989 145.758 111.303C145.758 109.617 144.391 108.251 142.705 108.251C141.02 108.251 139.653 109.617 139.653 111.303C139.653 112.989 141.02 114.356 142.705 114.356Z" fill="#F4F6F9"/>
<path d="M156.856 119.143C158.541 119.143 159.908 117.776 159.908 116.091C159.908 114.405 158.541 113.038 156.856 113.038C155.17 113.038 153.803 114.405 153.803 116.091C153.803 117.776 155.17 119.143 156.856 119.143Z" fill="#E26D6D"/>
<path d="M166.579 116.091C167.585 116.091 168.399 115.276 168.399 114.271C168.399 113.265 167.585 112.45 166.579 112.45C165.574 112.45 164.759 113.265 164.759 114.271C164.759 115.276 165.574 116.091 166.579 116.091Z" fill="#D16969"/>
<path d="M147.592 121.424C148.347 121.424 148.959 120.812 148.959 120.057C148.959 119.302 148.347 118.69 147.592 118.69C146.837 118.69 146.225 119.302 146.225 120.057C146.225 120.812 146.837 121.424 147.592 121.424Z" fill="#D16969"/>
<path d="M143.244 105.97C143.999 105.97 144.61 105.358 144.61 104.603C144.61 103.849 143.999 103.237 143.244 103.237C142.489 103.237 141.877 103.849 141.877 104.603C141.877 105.358 142.489 105.97 143.244 105.97Z" fill="#D16969"/>
<path d="M164.759 105.085C165.764 105.085 166.579 104.27 166.579 103.265C166.579 102.26 165.764 101.445 164.759 101.445C163.754 101.445 162.939 102.26 162.939 103.265C162.939 104.27 163.754 105.085 164.759 105.085Z" fill="#D16969"/>
<path d="M152.974 88.1445C154.511 84.8867 154.327 79.1855 154.327 79.1855H155.935C155.935 79.1855 156.133 85.5028 157.351 88.1586" fill="#FF7B7B"/>
<path d="M155.935 79.6884C155.39 79.7197 154.844 79.6352 154.334 79.4405C154.334 79.4405 154.334 79.1855 154.334 79.1855H155.942C155.942 79.1855 155.928 79.4688 155.935 79.6884Z" fill="#E26D6D"/>
<path d="M155.127 79.3272C156.144 79.3272 156.969 78.915 156.969 78.4065C156.969 77.898 156.144 77.4858 155.127 77.4858C154.111 77.4858 153.286 77.898 153.286 78.4065C153.286 78.915 154.111 79.3272 155.127 79.3272Z" fill="#FF7B7B"/>
<path d="M154.193 78.1182C154.383 78.0736 154.522 77.9695 154.502 77.8857C154.483 77.8019 154.312 77.7702 154.122 77.8148C153.931 77.8594 153.793 77.9634 153.813 78.0472C153.832 78.131 154.003 78.1628 154.193 78.1182Z" fill="#F4F6F9"/>
<path d="M159.561 88.9094C161.523 86.9547 162.875 82.7904 162.875 82.7904L164.037 83.2082C164.037 83.2082 162.535 87.8187 162.705 90.0567" fill="#FF7B7B"/>
<path d="M163.916 83.5694C163.515 83.4511 163.143 83.2483 162.826 82.9745L162.89 82.7904L164.051 83.2082C164.051 83.2082 163.966 83.4136 163.916 83.5694Z" fill="#E26D6D"/>
<path d="M164.995 82.9123C165.128 82.5443 164.639 82.031 163.903 81.7659C163.167 81.5008 162.463 81.5842 162.33 81.9522C162.198 82.3202 162.687 82.8334 163.423 83.0985C164.159 83.3636 164.863 83.2802 164.995 82.9123Z" fill="#FF7B7B"/>
<path d="M163.343 81.8993C163.351 81.8333 163.237 81.7658 163.09 81.7487C162.942 81.7315 162.816 81.7711 162.809 81.8372C162.801 81.9032 162.914 81.9707 163.062 81.9878C163.21 82.005 163.336 81.9654 163.343 81.8993Z" fill="#F4F6F9"/>
<path d="M163.711 90.7153C165.744 89.4688 167.705 86.2465 167.705 86.2465L168.598 86.8272C168.598 86.8272 166.416 90.3683 166.112 92.3017" fill="#FF7B7B"/>
<path d="M168.428 87.1105C168.117 86.9323 167.847 86.691 167.635 86.4023L167.72 86.2606L168.612 86.8414L168.428 87.1105Z" fill="#E26D6D"/>
<path d="M169.472 86.7843C169.656 86.5029 169.35 85.9759 168.787 85.607C168.224 85.2381 167.619 85.1672 167.434 85.4485C167.25 85.7298 167.556 86.2568 168.119 86.6257C168.682 86.9946 169.287 87.0656 169.472 86.7843Z" fill="#FF7B7B"/>
<path d="M168.289 85.6056C168.309 85.5505 168.227 85.4699 168.106 85.4256C167.985 85.3813 167.87 85.3901 167.85 85.4452C167.83 85.5003 167.912 85.5809 168.033 85.6252C168.154 85.6694 168.269 85.6607 168.289 85.6056Z" fill="#F4F6F9"/>
<path d="M147.358 90.255C147.627 87.8895 146.31 84.3555 146.31 84.3555L147.316 84.0156C147.316 84.0156 148.775 87.932 150.092 89.3414" fill="#FF7B7B"/>
<path d="M147.436 84.3272C147.102 84.4636 146.742 84.5265 146.381 84.5113L146.324 84.3555L147.33 84.0156L147.436 84.3272Z" fill="#E26D6D"/>
<path d="M146.854 84.2687C147.492 84.0535 147.921 83.6206 147.814 83.3019C147.706 82.9832 147.102 82.8994 146.465 83.1146C145.827 83.3299 145.398 83.7627 145.505 84.0814C145.613 84.4001 146.217 84.484 146.854 84.2687Z" fill="#FF7B7B"/>
<path d="M146.013 83.7087C146.123 83.6406 146.187 83.545 146.156 83.4952C146.125 83.4453 146.011 83.4601 145.901 83.5282C145.791 83.5963 145.728 83.6919 145.759 83.7418C145.79 83.7916 145.904 83.7768 146.013 83.7087Z" fill="#F4F6F9"/>
<path d="M173.329 103.336C175.588 104.108 179.32 103.562 179.32 103.562L179.441 104.618C179.441 104.618 175.305 105.22 173.647 106.204" fill="#FF7B7B"/>
<path d="M179.115 104.667C179.054 104.311 179.071 103.946 179.164 103.598H179.327L179.448 104.653L179.115 104.667Z" fill="#E26D6D"/>
<path d="M180.03 105.267C180.364 105.229 180.573 104.656 180.497 103.988C180.421 103.319 180.088 102.808 179.754 102.846C179.42 102.884 179.211 103.457 179.287 104.125C179.363 104.794 179.695 105.305 180.03 105.267Z" fill="#FF7B7B"/>
<path d="M180.185 103.592C180.241 103.572 180.25 103.458 180.207 103.336C180.163 103.215 180.083 103.132 180.028 103.152C179.973 103.172 179.963 103.286 180.007 103.408C180.05 103.529 180.13 103.612 180.185 103.592Z" fill="#F4F6F9"/>
<path d="M173.754 107.33C175.793 108.562 179.561 108.824 179.561 108.824L179.448 109.88C179.448 109.88 175.283 109.582 173.449 110.191" fill="#FF7B7B"/>
<path d="M179.115 109.858C179.128 109.498 179.22 109.145 179.384 108.824H179.554L179.441 109.88L179.115 109.858Z" fill="#E26D6D"/>
<path d="M180.62 109.48C180.688 108.811 180.472 108.24 180.138 108.206C179.803 108.172 179.476 108.687 179.408 109.356C179.34 110.026 179.556 110.596 179.89 110.63C180.225 110.664 180.552 110.149 180.62 109.48Z" fill="#FF7B7B"/>
<path d="M180.399 109.025C180.457 109.018 180.491 108.908 180.475 108.78C180.458 108.652 180.397 108.554 180.339 108.562C180.281 108.569 180.247 108.679 180.264 108.807C180.28 108.935 180.341 109.033 180.399 109.025Z" fill="#F4F6F9"/>
<path d="M172.096 115.028C173.449 116.99 176.763 118.782 176.763 118.782L176.232 119.703C176.232 119.703 172.557 117.712 170.637 117.514" fill="#FF7B7B"/>
<path d="M175.914 119.547C176.083 119.22 176.325 118.936 176.622 118.718L176.763 118.796L176.232 119.717L175.914 119.547Z" fill="#E26D6D"/>
<path d="M177.444 119.809C177.782 119.227 177.82 118.619 177.529 118.45C177.239 118.281 176.729 118.615 176.391 119.197C176.053 119.778 176.014 120.387 176.305 120.556C176.596 120.725 177.106 120.391 177.444 119.809Z" fill="#FF7B7B"/>
<path d="M177.58 119.123C177.618 119 177.603 118.886 177.547 118.868C177.491 118.851 177.415 118.937 177.377 119.061C177.339 119.184 177.354 119.298 177.41 119.315C177.466 119.333 177.542 119.246 177.58 119.123Z" fill="#F4F6F9"/>
<path d="M172.018 98.8952C174.773 99.136 178.831 97.4788 178.831 97.4788L179.263 98.6332C179.263 98.6332 174.766 100.453 173.166 102.026" fill="#FF7B7B"/>
<path d="M178.902 98.796C178.736 98.4095 178.654 97.9917 178.661 97.5708L178.839 97.5071L179.271 98.6615L178.902 98.796Z" fill="#E26D6D"/>
<path d="M180.11 99.1942C180.477 99.0587 180.554 98.354 180.283 97.6201C180.012 96.8863 179.495 96.4013 179.128 96.5368C178.761 96.6723 178.684 97.377 178.955 98.1109C179.226 98.8447 179.743 99.3297 180.11 99.1942Z" fill="#FF7B7B"/>
<path d="M179.818 97.274C179.874 97.2373 179.852 97.1071 179.77 96.9831C179.688 96.859 179.577 96.7882 179.522 96.8249C179.466 96.8615 179.487 96.9918 179.569 97.1158C179.651 97.2398 179.763 97.3106 179.818 97.274Z" fill="#F4F6F9"/>
<path d="M173.513 111.424C175.503 113.35 179.695 114.618 179.695 114.618L179.299 115.786C179.299 115.786 174.66 114.37 172.429 114.589" fill="#FF7B7B"/>
<path d="M178.938 115.68C179.046 115.276 179.241 114.901 179.511 114.582L179.695 114.639L179.299 115.807L178.938 115.68Z" fill="#E26D6D"/>
<path d="M180.746 115.637C180.997 114.896 180.9 114.194 180.53 114.069C180.159 113.943 179.655 114.442 179.405 115.183C179.154 115.924 179.251 116.627 179.621 116.752C179.992 116.877 180.495 116.378 180.746 115.637Z" fill="#FF7B7B"/>
<path d="M180.744 114.818C180.758 114.67 180.716 114.545 180.65 114.538C180.584 114.532 180.519 114.647 180.504 114.795C180.49 114.943 180.532 115.068 180.598 115.074C180.664 115.081 180.73 114.966 180.744 114.818Z" fill="#F4F6F9"/>
<path d="M166.211 122.564C166.445 125.326 168.754 129.044 168.754 129.044L167.691 129.66C167.691 129.66 165.127 125.538 163.307 124.235" fill="#FF7B7B"/>
<path d="M167.479 129.334C167.827 129.102 168.22 128.947 168.633 128.881L168.732 129.051L167.67 129.667L167.479 129.334Z" fill="#E26D6D"/>
<path d="M168.867 130.492C169.544 130.1 169.934 129.508 169.738 129.169C169.542 128.831 168.834 128.874 168.157 129.266C167.48 129.657 167.09 130.25 167.286 130.588C167.482 130.927 168.189 130.883 168.867 130.492Z" fill="#FF7B7B"/>
<path d="M169.403 129.875C169.511 129.773 169.562 129.652 169.517 129.603C169.471 129.555 169.347 129.598 169.238 129.7C169.13 129.802 169.079 129.923 169.125 129.972C169.17 130.02 169.295 129.977 169.403 129.875Z" fill="#F4F6F9"/>
<path d="M167.989 93.0099C171.445 92.0042 175.595 88.0524 175.595 88.0524L176.657 89.2564C176.657 89.2564 172.096 93.6261 170.864 96.3173" fill="#FF7B7B"/>
<path d="M176.296 89.6388C175.909 89.2535 175.61 88.7899 175.418 88.279L175.609 88.1091L176.671 89.313L176.296 89.6388Z" fill="#E26D6D"/>
<path d="M177.939 89.5569C178.32 89.2197 178.082 88.3293 177.407 87.5682C176.733 86.807 175.878 86.4633 175.497 86.8005C175.116 87.1376 175.355 88.0281 176.029 88.7892C176.703 89.5504 177.559 89.8941 177.939 89.5569Z" fill="#FF7B7B"/>
<path d="M176.688 87.3643C176.737 87.2941 176.648 87.1456 176.489 87.0326C176.329 86.9196 176.159 86.885 176.11 86.9553C176.06 87.0255 176.149 87.174 176.309 87.287C176.468 87.3999 176.638 87.4346 176.688 87.3643Z" fill="#F4F6F9"/>
<path d="M171.161 117.84C172.698 121.105 177.21 124.589 177.21 124.589L176.19 125.829C176.19 125.829 171.19 121.962 168.399 121.19" fill="#FF7B7B"/>
<path d="M175.786 125.524C176.108 125.084 176.521 124.72 176.997 124.455L177.195 124.61L176.176 125.85L175.786 125.524Z" fill="#E26D6D"/>
<path d="M177.993 126.296C178.641 125.512 178.848 124.614 178.456 124.29C178.064 123.966 177.221 124.34 176.573 125.124C175.926 125.908 175.719 126.806 176.111 127.13C176.503 127.454 177.346 127.08 177.993 126.296Z" fill="#FF7B7B"/>
<path d="M178.391 125.33C178.478 125.155 178.486 124.982 178.409 124.944C178.332 124.905 178.199 125.017 178.112 125.192C178.025 125.367 178.017 125.54 178.094 125.578C178.171 125.616 178.304 125.505 178.391 125.33Z" fill="#F4F6F9"/>
<path d="M151.771 126.254C149.384 128.959 147.975 134.483 147.975 134.483L146.431 134.037C146.431 134.037 148.003 127.918 147.585 125.028" fill="#E26D6D"/>
<path d="M146.551 133.548C147.084 133.678 147.584 133.919 148.017 134.256C148.017 134.256 147.946 134.504 147.946 134.504L146.402 134.058C146.402 134.058 146.501 133.761 146.551 133.548Z" fill="#D16969"/>
<path d="M148.734 135.511C148.875 135.023 148.198 134.398 147.221 134.115C146.244 133.832 145.337 133.999 145.196 134.487C145.055 134.976 145.732 135.601 146.709 135.884C147.686 136.166 148.592 136 148.734 135.511Z" fill="#E26D6D"/>
<path d="M148.13 135.699C148.134 135.614 147.979 135.536 147.784 135.526C147.589 135.516 147.427 135.577 147.422 135.663C147.418 135.749 147.573 135.827 147.768 135.837C147.963 135.847 148.125 135.785 148.13 135.699Z" fill="#F4F6F9"/>
<path d="M138.406 116.941C134.802 116.848 129.66 119.313 129.66 119.313L129.016 117.847C129.016 117.847 134.681 115.113 136.657 112.946" fill="#E26D6D"/>
<path d="M129.462 117.62C129.707 118.108 129.846 118.641 129.873 119.186C129.873 119.186 129.646 119.292 129.646 119.292L129.001 117.826L129.462 117.62Z" fill="#D16969"/>
<path d="M128.286 120.438C128.749 120.235 128.794 119.32 128.387 118.394C127.981 117.469 127.276 116.883 126.813 117.087C126.35 117.29 126.305 118.205 126.712 119.131C127.119 120.056 127.823 120.641 128.286 120.438Z" fill="#E26D6D"/>
<path d="M128.822 120.236C128.891 120.184 128.852 120.015 128.734 119.859C128.616 119.703 128.465 119.618 128.396 119.67C128.328 119.722 128.367 119.89 128.485 120.047C128.603 120.203 128.754 120.288 128.822 120.236Z" fill="#F4F6F9"/>
<path d="M137.797 98.7535C135.885 95.7011 131.02 92.7762 131.02 92.7762L131.884 91.4235C131.884 91.4235 137.309 94.653 140.191 95.0779" fill="#E26D6D"/>
<path d="M132.28 91.6856C132.017 92.1627 131.652 92.5762 131.211 92.8966L131.02 92.7762L131.884 91.4235L132.28 91.6856Z" fill="#D16969"/>
<path d="M131.544 92.1676C132.091 91.3107 132.188 90.3941 131.759 90.1203C131.331 89.8465 130.54 90.3192 129.992 91.1761C129.444 92.033 129.348 92.9497 129.776 93.2235C130.205 93.4973 130.996 93.0246 131.544 92.1676Z" fill="#E26D6D"/>
<path d="M130.019 92.306C130.084 92.1216 130.07 91.9488 129.989 91.9203C129.908 91.8917 129.79 92.018 129.725 92.2025C129.66 92.387 129.673 92.5597 129.754 92.5883C129.835 92.6169 129.954 92.4905 130.019 92.306Z" fill="#F4F6F9"/>
<path d="M142.351 93.5765C141.728 90.864 138.888 87.5 138.888 87.5L139.865 86.728C139.865 86.728 143.003 90.4603 145 91.4943" fill="#E26D6D"/>
<path d="M140.085 87.0255C139.772 87.3058 139.402 87.5159 139.001 87.6416C139.001 87.6416 138.874 87.4929 138.874 87.4929L139.851 86.7209L140.085 87.0255Z" fill="#D16969"/>
<path d="M139.422 87.1862C140.039 86.699 140.342 86.0551 140.1 85.7482C139.858 85.4412 139.161 85.5874 138.544 86.0747C137.927 86.5619 137.623 87.2058 137.866 87.5127C138.108 87.8197 138.805 87.6735 139.422 87.1862Z" fill="#E26D6D"/>
<path d="M138.284 86.9036C138.376 86.7874 138.409 86.6595 138.357 86.6181C138.305 86.5767 138.188 86.6374 138.095 86.7537C138.003 86.87 137.97 86.9978 138.022 87.0392C138.074 87.0806 138.191 87.0199 138.284 86.9036Z" fill="#F4F6F9"/>
<path d="M136.686 110.843C134.051 109.943 129.695 110.574 129.695 110.574L129.561 109.341C129.561 109.341 134.384 108.633 136.324 107.5" fill="#E26D6D"/>
<path d="M129.95 109.278C130.02 109.692 130.001 110.117 129.894 110.524H129.703L129.568 109.292L129.95 109.278Z" fill="#D16969"/>
<path d="M129.197 111.409C129.585 111.366 129.83 110.697 129.742 109.916C129.655 109.135 129.269 108.537 128.88 108.58C128.492 108.624 128.247 109.292 128.335 110.074C128.422 110.855 128.808 111.453 129.197 111.409Z" fill="#E26D6D"/>
<path d="M128.867 111.056C128.93 111.034 128.94 110.902 128.89 110.762C128.841 110.622 128.749 110.526 128.687 110.549C128.624 110.571 128.614 110.702 128.663 110.843C128.713 110.983 128.804 111.078 128.867 111.056Z" fill="#F4F6F9"/>
<path d="M146.246 123.789C143.881 125.262 141.629 129.044 141.629 129.044L140.581 128.336C140.581 128.336 143.088 124.15 143.414 121.962" fill="#E26D6D"/>
<path d="M140.779 128.038C141.145 128.246 141.463 128.529 141.714 128.867L141.615 129.037L140.567 128.329L140.779 128.038Z" fill="#D16969"/>
<path d="M141.966 129.989C142.178 129.66 141.813 129.049 141.151 128.624C140.49 128.199 139.782 128.121 139.571 128.45C139.36 128.78 139.724 129.391 140.386 129.816C141.047 130.24 141.755 130.318 141.966 129.989Z" fill="#E26D6D"/>
<path d="M141.477 129.988C141.499 129.925 141.404 129.834 141.264 129.785C141.123 129.735 140.992 129.746 140.97 129.808C140.947 129.871 141.043 129.962 141.183 130.012C141.323 130.061 141.455 130.051 141.477 129.988Z" fill="#F4F6F9"/>
<path d="M159.858 125.191C159.356 127.373 160.22 130.807 160.22 130.807L159.242 131.02C159.242 131.02 158.286 127.21 157.21 125.758" fill="#E26D6D"/>
<path d="M159.164 130.715C159.491 130.621 159.835 130.602 160.17 130.659V130.807L159.193 131.02L159.164 130.715Z" fill="#D16969"/>
<path d="M159.938 131.971C160.557 131.836 161.004 131.476 160.937 131.167C160.87 130.857 160.313 130.715 159.694 130.85C159.075 130.985 158.628 131.345 158.695 131.655C158.762 131.965 159.319 132.106 159.938 131.971Z" fill="#E26D6D"/>
<path d="M160.504 131.621C160.613 131.569 160.683 131.487 160.659 131.437C160.636 131.388 160.528 131.39 160.419 131.442C160.309 131.494 160.239 131.577 160.263 131.626C160.287 131.676 160.394 131.673 160.504 131.621Z" fill="#F4F6F9"/>
<path d="M156.82 125.914C155.666 128.442 155.871 132.84 155.871 132.84H154.632C154.632 132.84 154.412 127.967 153.456 125.928" fill="#E26D6D"/>
<path d="M154.61 132.472C155.029 132.442 155.449 132.503 155.843 132.649C155.846 132.712 155.846 132.776 155.843 132.84H154.603C154.603 132.84 154.625 132.642 154.61 132.472Z" fill="#D16969"/>
<path d="M155.266 134.159C156.053 134.148 156.685 133.822 156.68 133.43C156.674 133.039 156.032 132.731 155.246 132.742C154.46 132.754 153.827 133.08 153.833 133.471C153.839 133.862 154.48 134.17 155.266 134.159Z" fill="#E26D6D"/>
<path d="M156.035 133.875C156.18 133.839 156.284 133.757 156.268 133.693C156.251 133.628 156.121 133.605 155.977 133.641C155.833 133.677 155.729 133.759 155.745 133.823C155.761 133.888 155.891 133.911 156.035 133.875Z" fill="#F4F6F9"/>
<path d="M136.225 103.513C134.433 102.188 130.963 101.615 130.963 101.615L131.154 100.637C131.154 100.637 135.007 101.282 136.756 100.878" fill="#E26D6D"/>
<path d="M131.466 100.687C131.421 101.021 131.305 101.343 131.126 101.629H130.97L131.161 100.652L131.466 100.687Z" fill="#D16969"/>
<path d="M131.14 101.132C131.262 100.518 131.113 99.9712 130.806 99.91C130.499 99.8489 130.151 100.297 130.029 100.911C129.907 101.524 130.056 102.071 130.363 102.133C130.67 102.194 131.018 101.746 131.14 101.132Z" fill="#E26D6D"/>
<path d="M130.225 101.772C130.28 101.77 130.321 101.671 130.317 101.549C130.313 101.428 130.265 101.331 130.21 101.333C130.156 101.335 130.115 101.435 130.119 101.556C130.123 101.677 130.17 101.774 130.225 101.772Z" fill="#F4F6F9"/>
<path d="M142.528 120.829C140.248 121.537 137.571 124.228 137.571 124.228L136.863 123.449C136.863 123.449 139.837 120.496 140.581 118.704" fill="#E26D6D"/>
<path d="M137.075 123.229C137.334 123.483 137.539 123.787 137.677 124.122L137.557 124.235L136.848 123.456L137.075 123.229Z" fill="#D16969"/>
<path d="M137.654 125.081C137.9 124.851 137.726 124.266 137.267 123.775C136.807 123.284 136.236 123.072 135.99 123.302C135.744 123.531 135.918 124.116 136.377 124.607C136.837 125.098 137.409 125.31 137.654 125.081Z" fill="#E26D6D"/>
<path d="M137.242 124.979C137.275 124.93 137.214 124.832 137.107 124.761C137 124.689 136.886 124.67 136.854 124.719C136.821 124.768 136.882 124.866 136.989 124.937C137.096 125.009 137.21 125.028 137.242 124.979Z" fill="#F4F6F9"/>
<path d="M190.035 207.167C200.666 207.167 209.285 198.549 209.285 187.918C209.285 177.287 200.666 168.669 190.035 168.669C179.404 168.669 170.786 177.287 170.786 187.918C170.786 198.549 179.404 207.167 190.035 207.167Z" fill="#FF7B7B"/>
<path d="M197.5 205.616C192.907 207.598 187.724 207.716 183.046 205.943C178.369 204.171 174.564 200.648 172.438 196.12C170.313 191.592 170.032 186.415 171.656 181.684C173.28 176.953 176.682 173.039 181.14 170.772C178.383 173.724 176.548 177.418 175.861 181.399C175.174 185.38 175.666 189.475 177.275 193.18C178.885 196.885 181.542 200.04 184.919 202.255C188.297 204.471 192.249 205.652 196.289 205.652C196.693 205.652 197.096 205.637 197.5 205.616Z" fill="#E26D6D"/>
<path d="M195.404 177.868C196.409 177.868 197.224 177.053 197.224 176.048C197.224 175.043 196.409 174.228 195.404 174.228C194.398 174.228 193.584 175.043 193.584 176.048C193.584 177.053 194.398 177.868 195.404 177.868Z" fill="#E26D6D"/>
<path d="M178.916 179.016C179.922 179.016 180.737 178.201 180.737 177.195C180.737 176.19 179.922 175.375 178.916 175.375C177.911 175.375 177.096 176.19 177.096 177.195C177.096 178.201 177.911 179.016 178.916 179.016Z" fill="#F4F6F9"/>
<path d="M185.432 177.415C186.187 177.415 186.799 176.803 186.799 176.048C186.799 175.293 186.187 174.681 185.432 174.681C184.677 174.681 184.065 175.293 184.065 176.048C184.065 176.803 184.677 177.415 185.432 177.415Z" fill="#F4F6F9"/>
<path d="M187.925 188.916C189.611 188.916 190.977 187.55 190.977 185.864C190.977 184.178 189.611 182.812 187.925 182.812C186.239 182.812 184.873 184.178 184.873 185.864C184.873 187.55 186.239 188.916 187.925 188.916Z" fill="#E26D6D"/>
<path d="M177.677 194.986C179.363 194.986 180.729 193.619 180.729 191.933C180.729 190.248 179.363 188.881 177.677 188.881C175.991 188.881 174.625 190.248 174.625 191.933C174.625 193.619 175.991 194.986 177.677 194.986Z" fill="#F4F6F9"/>
<path d="M191.827 199.78C193.513 199.78 194.88 198.414 194.88 196.728C194.88 195.042 193.513 193.676 191.827 193.676C190.141 193.676 188.775 195.042 188.775 196.728C188.775 198.414 190.141 199.78 191.827 199.78Z" fill="#E26D6D"/>
<path d="M201.551 196.728C202.556 196.728 203.371 195.913 203.371 194.908C203.371 193.903 202.556 193.088 201.551 193.088C200.546 193.088 199.731 193.903 199.731 194.908C199.731 195.913 200.546 196.728 201.551 196.728Z" fill="#D16969"/>
<path d="M182.564 202.061C183.319 202.061 183.931 201.449 183.931 200.694C183.931 199.939 183.319 199.327 182.564 199.327C181.809 199.327 181.197 199.939 181.197 200.694C181.197 201.449 181.809 202.061 182.564 202.061Z" fill="#D16969"/>
<path d="M178.222 186.608C178.977 186.608 179.589 185.996 179.589 185.241C179.589 184.486 178.977 183.874 178.222 183.874C177.467 183.874 176.856 184.486 176.856 185.241C176.856 185.996 177.467 186.608 178.222 186.608Z" fill="#D16969"/>
<path d="M199.731 185.722C200.736 185.722 201.551 184.907 201.551 183.902C201.551 182.897 200.736 182.082 199.731 182.082C198.726 182.082 197.911 182.897 197.911 183.902C197.911 184.907 198.726 185.722 199.731 185.722Z" fill="#D16969"/>
<path d="M187.925 168.782C189.462 165.524 189.278 159.823 189.278 159.823H190.885C190.885 159.823 191.084 166.133 192.302 168.796" fill="#FF7B7B"/>
<path d="M190.907 160.326C190.361 160.359 189.814 160.272 189.306 160.071V159.823H190.914C190.914 159.823 190.899 160.106 190.907 160.326Z" fill="#E26D6D"/>
<path d="M190.106 159.965C191.123 159.965 191.948 159.552 191.948 159.044C191.948 158.535 191.123 158.123 190.106 158.123C189.089 158.123 188.265 158.535 188.265 159.044C188.265 159.552 189.089 159.965 190.106 159.965Z" fill="#FF7B7B"/>
<path d="M189.172 158.757C189.363 158.712 189.501 158.608 189.481 158.524C189.462 158.44 189.291 158.409 189.101 158.453C188.911 158.498 188.772 158.602 188.792 158.686C188.811 158.77 188.982 158.801 189.172 158.757Z" fill="#F4F6F9"/>
<path d="M194.54 169.547C196.494 167.592 197.847 163.421 197.847 163.421L199.008 163.846C199.008 163.846 197.507 168.456 197.684 170.687" fill="#FF7B7B"/>
<path d="M198.895 164.214C198.493 164.093 198.121 163.888 197.805 163.612L197.868 163.428L199.03 163.853L198.895 164.214Z" fill="#E26D6D"/>
<path d="M199.974 163.543C200.107 163.175 199.618 162.662 198.882 162.396C198.146 162.131 197.442 162.215 197.309 162.583C197.177 162.951 197.666 163.464 198.402 163.729C199.138 163.994 199.842 163.911 199.974 163.543Z" fill="#FF7B7B"/>
<path d="M198.308 162.526C198.315 162.46 198.202 162.393 198.054 162.375C197.907 162.358 197.781 162.398 197.773 162.464C197.765 162.53 197.879 162.597 198.027 162.615C198.174 162.632 198.3 162.592 198.308 162.526Z" fill="#F4F6F9"/>
<path d="M198.683 171.346C200.715 170.099 202.684 166.884 202.684 166.884L203.569 167.465C203.569 167.465 201.388 171.006 201.091 172.939" fill="#FF7B7B"/>
<path d="M203.399 167.755C203.087 167.579 202.816 167.338 202.606 167.047L202.698 166.905L203.584 167.486L203.399 167.755Z" fill="#E26D6D"/>
<path d="M204.446 167.431C204.631 167.149 204.324 166.622 203.762 166.254C203.199 165.885 202.593 165.814 202.409 166.095C202.225 166.376 202.531 166.903 203.094 167.272C203.656 167.641 204.262 167.712 204.446 167.431Z" fill="#FF7B7B"/>
<path d="M203.262 166.242C203.282 166.187 203.2 166.106 203.079 166.062C202.958 166.017 202.843 166.026 202.823 166.081C202.803 166.136 202.885 166.217 203.006 166.261C203.127 166.306 203.242 166.297 203.262 166.242Z" fill="#F4F6F9"/>
<path d="M182.33 170.892C182.606 168.555 181.303 165.014 181.303 165.014L182.309 164.674C182.309 164.674 183.768 168.591 185.085 170.007" fill="#FF7B7B"/>
<path d="M182.408 164.958C182.073 165.092 181.713 165.152 181.353 165.135L181.303 165.014L182.309 164.674L182.408 164.958Z" fill="#E26D6D"/>
<path d="M181.836 164.901C182.473 164.686 182.902 164.253 182.795 163.934C182.687 163.615 182.083 163.531 181.446 163.747C180.808 163.962 180.379 164.395 180.487 164.713C180.594 165.032 181.198 165.116 181.836 164.901Z" fill="#FF7B7B"/>
<path d="M180.992 164.334C181.101 164.266 181.165 164.17 181.134 164.12C181.103 164.07 180.989 164.085 180.879 164.153C180.77 164.221 180.706 164.317 180.737 164.367C180.768 164.417 180.882 164.402 180.992 164.334Z" fill="#F4F6F9"/>
<path d="M208.307 183.973C210.567 184.738 214.299 184.193 214.299 184.193L214.419 185.248C214.419 185.248 210.283 185.85 208.619 186.841" fill="#FF7B7B"/>
<path d="M214.086 185.305C214.027 184.949 214.041 184.585 214.129 184.235H214.299L214.419 185.29L214.086 185.305Z" fill="#E26D6D"/>
<path d="M215.003 185.896C215.337 185.858 215.546 185.285 215.47 184.617C215.394 183.948 215.062 183.437 214.727 183.475C214.393 183.513 214.184 184.086 214.26 184.754C214.336 185.423 214.668 185.934 215.003 185.896Z" fill="#FF7B7B"/>
<path d="M215.16 184.23C215.215 184.211 215.224 184.096 215.181 183.975C215.137 183.853 215.057 183.77 215.002 183.79C214.947 183.81 214.937 183.925 214.981 184.046C215.024 184.168 215.104 184.25 215.16 184.23Z" fill="#F4F6F9"/>
<path d="M208.725 187.96C210.765 189.193 214.533 189.455 214.533 189.455L214.426 190.517C214.426 190.517 210.255 190.22 208.428 190.829" fill="#FF7B7B"/>
<path d="M214.093 190.51C214.108 190.148 214.2 189.793 214.363 189.469H214.533L214.426 190.531L214.093 190.51Z" fill="#E26D6D"/>
<path d="M215.59 190.11C215.659 189.441 215.443 188.871 215.108 188.837C214.773 188.802 214.447 189.317 214.378 189.987C214.31 190.656 214.526 191.226 214.861 191.26C215.195 191.294 215.522 190.78 215.59 190.11Z" fill="#FF7B7B"/>
<path d="M215.378 189.661C215.436 189.653 215.47 189.543 215.454 189.415C215.437 189.287 215.376 189.19 215.318 189.197C215.26 189.205 215.226 189.314 215.243 189.442C215.259 189.57 215.32 189.668 215.378 189.661Z" fill="#F4F6F9"/>
<path d="M207.047 195.666C208.399 197.627 211.721 199.419 211.721 199.419L211.183 200.333C211.183 200.333 207.507 198.35 205.588 198.152" fill="#FF7B7B"/>
<path d="M210.892 200.184C211.056 199.862 211.285 199.577 211.565 199.348L211.714 199.433L211.176 200.347L210.892 200.184Z" fill="#E26D6D"/>
<path d="M212.418 200.44C212.756 199.859 212.794 199.25 212.503 199.081C212.212 198.912 211.703 199.246 211.365 199.828C211.026 200.41 210.988 201.018 211.279 201.187C211.57 201.356 212.08 201.022 212.418 200.44Z" fill="#FF7B7B"/>
<path d="M212.554 199.743C212.591 199.62 212.577 199.506 212.52 199.489C212.464 199.472 212.388 199.558 212.351 199.681C212.313 199.805 212.328 199.919 212.384 199.936C212.44 199.953 212.516 199.867 212.554 199.743Z" fill="#F4F6F9"/>
<path d="M206.99 179.533C209.752 179.773 213.81 178.116 213.81 178.116L214.235 179.278C214.235 179.278 209.738 181.098 208.144 182.67" fill="#FF7B7B"/>
<path d="M213.881 179.433C213.713 179.05 213.628 178.634 213.633 178.215L213.817 178.144L214.242 179.306L213.881 179.433Z" fill="#E26D6D"/>
<path d="M215.085 179.826C215.452 179.69 215.529 178.986 215.258 178.252C214.987 177.518 214.47 177.033 214.103 177.168C213.736 177.304 213.659 178.009 213.93 178.742C214.201 179.476 214.718 179.961 215.085 179.826Z" fill="#FF7B7B"/>
<path d="M214.787 177.9C214.843 177.863 214.821 177.733 214.739 177.609C214.657 177.485 214.546 177.414 214.49 177.451C214.435 177.488 214.456 177.618 214.538 177.742C214.62 177.866 214.732 177.937 214.787 177.9Z" fill="#F4F6F9"/>
<path d="M208.499 192.061C210.489 193.98 214.674 195.255 214.674 195.255L214.285 196.423C214.285 196.423 209.639 195.007 207.408 195.227" fill="#FF7B7B"/>
<path d="M213.881 196.31C213.993 195.906 214.188 195.529 214.455 195.205L214.639 195.269L214.249 196.438L213.881 196.31Z" fill="#E26D6D"/>
<path d="M216.136 195.56C216.387 194.817 216.288 194.113 215.917 193.988C215.545 193.863 215.041 194.364 214.791 195.107C214.54 195.85 214.639 196.554 215.01 196.679C215.382 196.804 215.886 196.303 216.136 195.56Z" fill="#FF7B7B"/>
<path d="M217.445 195.2C217.46 195.052 217.418 194.926 217.351 194.919C217.285 194.913 217.219 195.028 217.204 195.176C217.189 195.325 217.231 195.451 217.297 195.458C217.364 195.464 217.43 195.349 217.445 195.2Z" fill="#F4F6F9"/>
<path d="M201.183 203.201C201.416 205.963 203.732 209.674 203.732 209.674L202.663 210.297C202.663 210.297 200.099 206.176 198.286 204.865" fill="#FF7B7B"/>
<path d="M202.458 209.972C202.808 209.741 203.204 209.589 203.619 209.525L203.718 209.688L202.649 210.312L202.458 209.972Z" fill="#E26D6D"/>
<path d="M203.836 211.124C204.513 210.732 204.903 210.14 204.707 209.801C204.511 209.463 203.803 209.506 203.126 209.898C202.449 210.29 202.059 210.882 202.255 211.22C202.451 211.559 203.159 211.515 203.836 211.124Z" fill="#FF7B7B"/>
<path d="M204.382 210.506C204.491 210.404 204.541 210.283 204.496 210.234C204.45 210.186 204.326 210.229 204.217 210.331C204.109 210.433 204.058 210.555 204.104 210.603C204.149 210.651 204.274 210.608 204.382 210.506Z" fill="#F4F6F9"/>
<path d="M202.96 173.647C206.424 172.642 210.567 168.725 210.567 168.725L211.629 169.922C211.629 169.922 207.033 174.256 205.843 176.919" fill="#FF7B7B"/>
<path d="M211.268 170.276C210.884 169.89 210.586 169.427 210.397 168.916L210.581 168.746L211.643 169.943L211.268 170.276Z" fill="#E26D6D"/>
<path d="M212.916 170.183C213.296 169.845 213.058 168.955 212.384 168.194C211.709 167.433 210.854 167.089 210.474 167.426C210.093 167.763 210.331 168.654 211.006 169.415C211.68 170.176 212.535 170.52 212.916 170.183Z" fill="#FF7B7B"/>
<path d="M211.653 167.992C211.703 167.921 211.613 167.773 211.454 167.66C211.294 167.547 211.124 167.512 211.075 167.583C211.025 167.653 211.114 167.801 211.274 167.914C211.434 168.027 211.603 168.062 211.653 167.992Z" fill="#F4F6F9"/>
<path d="M206.14 198.477C207.67 201.735 212.181 205.227 212.181 205.227L211.161 206.459C211.161 206.459 206.169 202.592 203.371 201.827" fill="#FF7B7B"/>
<path d="M210.758 206.161C211.082 205.722 211.494 205.355 211.969 205.085L212.167 205.248L211.147 206.48L210.758 206.161Z" fill="#E26D6D"/>
<path d="M212.969 206.918C213.616 206.134 213.823 205.236 213.431 204.912C213.039 204.588 212.196 204.961 211.549 205.746C210.901 206.53 210.694 207.428 211.086 207.752C211.479 208.076 212.321 207.702 212.969 206.918Z" fill="#FF7B7B"/>
<path d="M213.356 205.966C213.443 205.791 213.451 205.618 213.374 205.579C213.297 205.541 213.164 205.652 213.077 205.827C212.99 206.003 212.982 206.176 213.059 206.214C213.136 206.252 213.269 206.141 213.356 205.966Z" fill="#F4F6F9"/>
<path d="M186.742 206.891C184.356 209.589 182.953 215.113 182.953 215.113L181.409 214.667C181.409 214.667 182.975 208.548 182.564 205.666" fill="#E26D6D"/>
<path d="M181.53 214.178C182.063 214.308 182.563 214.549 182.996 214.887C182.996 214.887 182.932 215.127 182.932 215.127L181.388 214.681C181.388 214.681 181.473 214.398 181.53 214.178Z" fill="#D16969"/>
<path d="M183.705 216.147C183.846 215.658 183.169 215.033 182.192 214.751C181.215 214.468 180.308 214.635 180.167 215.123C180.026 215.612 180.703 216.237 181.68 216.519C182.657 216.802 183.563 216.635 183.705 216.147Z" fill="#E26D6D"/>
<path d="M183.1 216.334C183.104 216.248 182.95 216.17 182.754 216.16C182.559 216.15 182.397 216.211 182.393 216.297C182.388 216.383 182.543 216.461 182.738 216.471C182.934 216.481 183.096 216.42 183.1 216.334Z" fill="#F4F6F9"/>
<path d="M173.378 197.592C169.773 197.493 164.639 199.965 164.639 199.965L163.987 198.491C163.987 198.491 169.653 195.765 171.636 193.598" fill="#E26D6D"/>
<path d="M164.441 198.258C164.691 198.743 164.834 199.277 164.858 199.823L164.632 199.929L163.98 198.456L164.441 198.258Z" fill="#D16969"/>
<path d="M164.34 201.176C164.805 200.971 164.849 200.05 164.439 199.12C164.028 198.189 163.318 197.601 162.853 197.807C162.388 198.012 162.343 198.932 162.754 199.863C163.165 200.793 163.874 201.381 164.34 201.176Z" fill="#E26D6D"/>
<path d="M163.788 200.876C163.857 200.825 163.817 200.656 163.7 200.5C163.582 200.344 163.431 200.259 163.362 200.311C163.294 200.362 163.333 200.531 163.451 200.687C163.569 200.844 163.72 200.928 163.788 200.876Z" fill="#F4F6F9"/>
<path d="M172.805 179.391C170.885 176.339 165.984 173.428 165.984 173.428L166.848 172.068C166.848 172.068 172.273 175.305 175.163 175.729" fill="#E26D6D"/>
<path d="M167.259 172.323C166.991 172.799 166.624 173.212 166.183 173.534L165.97 173.407L166.834 172.047C166.834 172.047 167.061 172.217 167.259 172.323Z" fill="#D16969"/>
<path d="M166.307 173.504C166.856 172.649 166.955 171.734 166.527 171.46C166.1 171.185 165.309 171.655 164.76 172.509C164.211 173.364 164.112 174.279 164.539 174.553C164.966 174.828 165.757 174.358 166.307 173.504Z" fill="#E26D6D"/>
<path d="M164.988 172.932C165.053 172.747 165.04 172.575 164.959 172.546C164.878 172.517 164.759 172.644 164.694 172.828C164.63 173.013 164.643 173.185 164.724 173.214C164.805 173.243 164.923 173.116 164.988 172.932Z" fill="#F4F6F9"/>
<path d="M177.302 174.221C176.671 171.508 173.839 168.144 173.839 168.144L174.809 167.38C174.809 167.38 177.946 171.112 179.943 172.146" fill="#E26D6D"/>
<path d="M175.064 167.656C174.748 167.936 174.376 168.147 173.973 168.272L173.853 168.116L174.823 167.351L175.064 167.656Z" fill="#D16969"/>
<path d="M174.401 167.831C175.018 167.343 175.321 166.7 175.079 166.393C174.836 166.086 174.14 166.232 173.523 166.719C172.906 167.206 172.602 167.85 172.845 168.157C173.087 168.464 173.784 168.318 174.401 167.831Z" fill="#E26D6D"/>
<path d="M173.26 167.545C173.352 167.429 173.385 167.301 173.333 167.26C173.281 167.218 173.164 167.279 173.071 167.395C172.979 167.512 172.946 167.64 172.998 167.681C173.05 167.722 173.167 167.662 173.26 167.545Z" fill="#F4F6F9"/>
<path d="M171.664 191.48C169.03 190.574 164.674 191.204 164.674 191.204L164.54 189.972C164.54 189.972 169.363 189.263 171.303 188.137" fill="#E26D6D"/>
<path d="M164.922 189.915C164.994 190.332 164.977 190.759 164.873 191.169H164.674L164.54 189.936L164.922 189.915Z" fill="#D16969"/>
<path d="M164.18 192.044C164.569 192.001 164.813 191.332 164.726 190.551C164.638 189.77 164.252 189.172 163.864 189.215C163.475 189.258 163.231 189.927 163.318 190.708C163.405 191.49 163.791 192.088 164.18 192.044Z" fill="#E26D6D"/>
<path d="M163.841 191.692C163.904 191.67 163.914 191.538 163.865 191.398C163.815 191.258 163.724 191.163 163.661 191.185C163.598 191.207 163.588 191.339 163.638 191.479C163.687 191.619 163.778 191.715 163.841 191.692Z" fill="#F4F6F9"/>
<path d="M181.218 204.426C178.86 205.899 176.601 209.674 176.601 209.674L175.559 209.008C175.559 209.008 178.067 204.823 178.392 202.599" fill="#E26D6D"/>
<path d="M175.751 208.669C176.116 208.875 176.433 209.157 176.678 209.497L176.579 209.66L175.538 208.994L175.751 208.669Z" fill="#D16969"/>
<path d="M176.942 210.623C177.153 210.294 176.788 209.683 176.127 209.258C175.465 208.833 174.757 208.756 174.546 209.085C174.335 209.414 174.7 210.025 175.361 210.45C176.023 210.875 176.73 210.952 176.942 210.623Z" fill="#E26D6D"/>
<path d="M176.447 210.626C176.469 210.564 176.374 210.473 176.233 210.423C176.093 210.373 175.962 210.384 175.94 210.446C175.917 210.509 176.013 210.6 176.153 210.65C176.293 210.699 176.425 210.689 176.447 210.626Z" fill="#F4F6F9"/>
<path d="M194.83 205.822C194.327 208.01 195.191 211.445 195.191 211.445L194.214 211.657C194.214 211.657 193.265 207.847 192.181 206.395" fill="#E26D6D"/>
<path d="M194.136 211.353C194.463 211.26 194.806 211.239 195.142 211.289L195.177 211.445L194.2 211.657L194.136 211.353Z" fill="#D16969"/>
<path d="M194.904 212.602C195.524 212.467 195.971 212.106 195.903 211.797C195.836 211.487 195.279 211.346 194.66 211.481C194.041 211.615 193.594 211.976 193.661 212.285C193.729 212.595 194.285 212.736 194.904 212.602Z" fill="#E26D6D"/>
<path d="M195.485 212.262C195.595 212.21 195.665 212.127 195.641 212.078C195.617 212.028 195.51 212.031 195.4 212.083C195.291 212.135 195.221 212.217 195.245 212.267C195.268 212.316 195.376 212.314 195.485 212.262Z" fill="#F4F6F9"/>
<path d="M191.799 206.551C190.644 209.079 190.85 213.477 190.85 213.477H189.61C189.61 213.477 189.384 208.612 188.435 206.572" fill="#E26D6D"/>
<path d="M189.582 213.109C190.003 213.075 190.427 213.135 190.822 213.286V213.477H189.582C189.582 213.477 189.596 213.279 189.582 213.109Z" fill="#D16969"/>
<path d="M190.241 214.782C191.027 214.771 191.66 214.445 191.655 214.054C191.649 213.663 191.007 213.355 190.221 213.366C189.435 213.377 188.802 213.703 188.808 214.094C188.813 214.485 189.455 214.793 190.241 214.782Z" fill="#E26D6D"/>
<path d="M191.022 214.507C191.166 214.471 191.27 214.39 191.254 214.325C191.238 214.261 191.108 214.237 190.964 214.273C190.82 214.309 190.716 214.391 190.732 214.455C190.748 214.52 190.878 214.543 191.022 214.507Z" fill="#F4F6F9"/>
<path d="M171.197 184.136C169.412 182.812 165.935 182.231 165.935 182.231L166.133 181.261C166.133 181.261 169.979 181.905 171.735 181.501" fill="#E26D6D"/>
<path d="M166.431 181.303C166.381 181.636 166.263 181.954 166.084 182.238H165.928L166.126 181.268L166.431 181.303Z" fill="#D16969"/>
<path d="M166.117 181.758C166.239 181.145 166.089 180.597 165.782 180.536C165.476 180.475 165.128 180.923 165.005 181.537C164.883 182.151 165.033 182.698 165.34 182.759C165.646 182.82 165.994 182.372 166.117 181.758Z" fill="#E26D6D"/>
<path d="M165.202 182.396C165.256 182.394 165.298 182.294 165.293 182.173C165.289 182.052 165.242 181.955 165.187 181.957C165.132 181.959 165.091 182.059 165.095 182.18C165.099 182.301 165.147 182.398 165.202 182.396Z" fill="#F4F6F9"/>
<path d="M177.5 201.459C175.227 202.167 172.543 204.865 172.543 204.865L171.834 204.086C171.834 204.086 174.802 201.126 175.545 199.341" fill="#E26D6D"/>
<path d="M172.054 203.846C172.32 204.093 172.526 204.398 172.656 204.738L172.535 204.851L171.827 204.072L172.054 203.846Z" fill="#D16969"/>
<path d="M172.622 205.722C172.868 205.493 172.694 204.908 172.235 204.417C171.775 203.925 171.203 203.713 170.958 203.943C170.712 204.173 170.885 204.758 171.345 205.249C171.805 205.74 172.376 205.952 172.622 205.722Z" fill="#E26D6D"/>
<path d="M172.223 205.621C172.256 205.572 172.195 205.474 172.088 205.403C171.98 205.331 171.867 205.313 171.834 205.361C171.802 205.41 171.862 205.508 171.97 205.579C172.077 205.651 172.191 205.67 172.223 205.621Z" fill="#F4F6F9"/>
<path opacity="0.4" d="M95.694 276.898C115.861 276.898 132.21 273.673 132.21 269.695C132.21 265.718 115.861 262.493 95.694 262.493C75.527 262.493 59.1785 265.718 59.1785 269.695C59.1785 273.673 75.527 276.898 95.694 276.898Z" fill="#D6D8E5"/>
<path opacity="0.4" d="M190.014 243.095C200.661 243.095 209.292 241.234 209.292 238.938C209.292 236.642 200.661 234.78 190.014 234.78C179.367 234.78 170.737 236.642 170.737 238.938C170.737 241.234 179.367 243.095 190.014 243.095Z" fill="#D6D8E5"/>
<path opacity="0.4" d="M155.248 155.305C165.895 155.305 174.526 153.443 174.526 151.147C174.526 148.851 165.895 146.99 155.248 146.99C144.601 146.99 135.97 148.851 135.97 151.147C135.97 153.443 144.601 155.305 155.248 155.305Z" fill="#D6D8E5"/>
<path opacity="0.4" d="M23.8527 150.701C37.0262 150.701 47.7054 144.534 47.7054 136.926C47.7054 129.319 37.0262 123.152 23.8527 123.152C10.6792 123.152 0 129.319 0 136.926C0 144.534 10.6792 150.701 23.8527 150.701Z" fill="#D6D8E5"/>
<path d="M11.6006 134.561C13.3569 135.977 15.9561 134.681 16.0836 134.816C18.1503 136.734 20.3182 138.54 22.5779 140.227C23.6686 141.091 25.4108 142.245 25.0708 143.902C24.5184 146.863 19.7734 145.956 17.9887 145.05C16.204 144.143 14.738 142.635 13.0312 141.586C11.8201 140.836 10.6303 140.446 10.4462 138.916C10.3399 137.974 11.289 134.511 11.6006 134.561Z" fill="#38226D"/>
<path d="M10.4745 138.279C10.7082 139.745 11.8909 140.149 13.0807 140.892C14.8017 141.962 16.3173 143.506 18.1091 144.433C19.7592 145.269 23.8881 146.098 25.0496 143.98C24.4193 146.813 19.7521 145.942 17.9674 145.05C16.1827 144.157 14.7167 142.635 13.0099 141.586C11.7989 140.836 10.6091 140.446 10.4249 138.916C10.4165 138.703 10.4331 138.489 10.4745 138.279V138.279Z" fill="#084AFC"/>
<path d="M26.8626 128.895C28.6261 130.312 31.6997 128.768 31.8201 128.895C33.6475 130.756 35.5844 132.506 37.6204 134.136C38.711 134.993 40.4533 136.147 40.1133 137.805C39.5609 140.772 34.8159 139.858 33.0312 138.952C31.2465 138.045 29.7805 136.544 28.0737 135.489C26.8626 134.745 25.6728 134.356 25.4887 132.826C25.3966 131.877 26.551 128.831 26.8626 128.895Z" fill="#38226D"/>
<path d="M25.5595 132.394C25.7932 133.853 26.9759 134.256 28.1657 135C29.8867 136.069 31.4023 137.613 33.1941 138.541C34.8442 139.377 38.9731 140.212 40.1346 138.095C39.5043 140.928 34.8442 140.057 33.0524 139.157C31.2606 138.258 29.8017 136.749 28.0949 135.694C26.8839 134.943 25.6941 134.554 25.5099 133.031C25.5013 132.817 25.5179 132.604 25.5595 132.394Z" fill="#084AFC"/>
<path d="M38.619 31.7068C38.619 31.7068 38.5623 34.5397 38.9093 41.6643C39.0365 46.9717 38.7998 52.2816 38.2011 57.5567C37.6773 61.7309 36.5389 65.8047 34.8229 69.6459C33.5623 63.5765 35.0283 62.5071 35.0283 62.5071L34.3201 49.6105C34.3201 49.6105 35.0283 37.1601 34.7521 32.7337C34.568 29.9292 38.619 31.7068 38.619 31.7068Z" fill="#FFCEA9"/>
<path d="M11.5439 69.5892C11.6289 72.245 12.4575 83.796 12.8258 89.915C13.194 96.034 13.279 103.527 13.279 103.527C13.279 103.527 12.2238 107.982 11.5439 113.215C10.864 118.449 11.5439 134.979 11.5439 134.979C12.2153 135.411 12.9972 135.642 13.796 135.642C14.5948 135.642 15.3767 135.411 16.0482 134.979C16.0482 134.979 18.881 121.749 20.1629 115.793C21.4447 109.837 21.6926 106.402 22.3725 102.705C23.187 98.2365 24.9504 77.3867 24.9504 77.3867H25.6586L27.5425 100.928C26.9626 102.662 26.5639 104.451 26.3527 106.268C25.8428 110.106 26.898 129.398 26.898 129.398C27.6489 129.815 28.5003 130.017 29.3586 129.982C30.2169 129.947 31.049 129.677 31.7634 129.2C31.7634 129.2 36.466 103.647 36.466 99.7592C36.466 97.1884 36.0269 63.279 36.0269 63.279L11.5439 69.5892Z" fill="#073BC8"/>
<path d="M17.9179 18.1728C17.9179 18.1728 18.2153 23.9731 18.0878 24.4901C17.9603 25.0071 15.4249 26.6997 14.6884 27.3229C13.9518 27.9462 18.6969 32.6133 21.0057 33.6969C23.3145 34.7805 30.6303 31.9263 30.7578 28.3286C30.8853 24.7309 29.5043 21.721 28.3853 21.5581C27.2663 21.3952 17.9179 18.1728 17.9179 18.1728Z" fill="#FFCEA9"/>
<path d="M17.2734 25.4957C17.2734 25.4957 21.4802 31.7635 27.3513 32.3584C29.1997 30.5312 29.3697 24.0368 26.806 21.9618C26.806 21.9618 29.1643 20.0637 30.772 20.432C32.6842 21.4606 34.1476 23.1612 34.8796 25.2054C35.9632 28.5127 36.5723 32.33 36.4731 38.4773C36.374 44.6246 36.4731 63.4348 36.4731 63.4348C36.4731 63.4348 35.6445 67.4079 30.3329 70.3683C25.0213 73.3286 21.0765 73.619 17.4788 72.7762C14.5043 72.068 12.0468 71.034 11.0198 68.881C11.289 64.568 13.2153 53.3003 12.4929 47.8895C11.7706 42.4788 10.6232 38.4065 10.34 33.9943C10.0567 29.5821 10.9207 29.7025 13.1162 28.1374C14.4369 27.1585 15.8262 26.2757 17.2734 25.4957V25.4957Z" fill="#F4F4F4"/>
<path d="M14.915 72.1105C14.0439 71.1331 12.5354 65.7365 11.6714 62.2805C10.8389 58.4231 10.6712 54.452 11.1756 50.5382C11.9547 45.864 14.0935 39.3909 14.7167 36.7139C15.3399 34.0368 14.5255 32.8966 13.3003 31.813C11.8838 30.5453 9.82293 30.9207 8.47732 34.6459C6.71613 39.8031 5.53556 45.1406 4.95749 50.5595C4.6392 54.6027 4.99096 58.6706 5.99857 62.5992C6.898 66.2323 8.21528 68.8881 9.90083 72.2309C10.3612 73.1445 11.4093 75.687 12.0821 77.5283C12.7549 79.3697 15.7153 73.0028 14.915 72.1105Z" fill="#FFCEA9"/>
<path d="M4.95752 40.7224C4.95752 40.7224 9.10058 44.8371 13.9943 43.6473C14.7026 43.1728 16.3739 33.5552 16.3739 33.5552C16.3739 33.5552 16.3739 28.2224 12.2875 28.364C8.20115 28.5057 4.95752 40.7224 4.95752 40.7224Z" fill="#EDEDED"/>
<path d="M36.4802 35.3116C36.4802 35.3116 39.1572 35.6516 40.0566 34.3909C39.8867 32.2663 36.3244 21.034 30.7719 20.4249C32.1239 21.6434 33.2927 23.0507 34.2422 24.6034C36.1827 27.8895 36.4802 35.3116 36.4802 35.3116Z" fill="#EDEDED"/>
<path d="M31.5227 13.6261C31.618 15.801 31.2586 17.9719 30.4674 20C30.118 20.9955 29.4575 21.8522 28.5836 22.4433C28.0247 22.7586 27.4081 22.9585 26.7705 23.0312C25.3541 23.2295 20.3966 22.0467 18.7323 20.1275C18.4217 19.5004 18.1841 18.8398 18.0241 18.1586C16.4799 17.1081 15.3043 15.5996 14.6628 13.8455C14.0214 12.0915 13.9464 10.1804 14.4485 8.38156C14.9507 6.58269 16.0045 4.9867 17.4617 3.81846C18.9188 2.65022 20.7058 1.96862 22.5708 1.86969C27.2096 1.61473 30.4533 5.02124 31.1615 9.52549C31.3832 10.8815 31.5039 12.2522 31.5227 13.6261V13.6261Z" fill="#FFCEA9"/>
<path d="M18.2228 14.1026L18.163 14.3868L23.4784 15.506L23.5383 15.2218L18.2228 14.1026Z" fill="white"/>
<path d="M18.0164 16.8037L17.9106 17.0741L22.1915 18.7475L22.2972 18.4771L18.0164 16.8037Z" fill="white"/>
<path d="M18.017 18.1728L18.4419 14.2422C18.4419 14.2422 15.2337 5.93484 22.8187 7.52833C27.8187 8.58357 29.0793 9.03683 30.6091 5.67989C32.1388 2.32295 26.7493 -0.708217 20.3754 0.141642C18.1784 0.372015 16.1481 1.41931 14.6869 3.07599C13.2256 4.73268 12.4401 6.87785 12.4858 9.0864C12.6487 11.5581 13.3074 16.5581 18.017 18.1728Z" fill="#3A2C6D"/>
<path d="M31.5227 13.6261C31.618 15.801 31.2586 17.9719 30.4674 20C30.118 20.9955 29.4575 21.8522 28.5836 22.4433C26.3739 22.2592 21.9547 18.7252 21.9547 18.6119C22.2128 17.4095 22.6073 16.2405 23.1303 15.1275C25.8145 15.1275 28.796 13.1161 29.4122 13.1161C30.1244 13.2479 30.8289 13.4181 31.5227 13.6261Z" fill="#F4F4F4"/>
<path opacity="0.4" d="M276.147 354.108C289.321 354.108 300 347.94 300 340.333C300 332.725 289.321 326.558 276.147 326.558C262.974 326.558 252.295 332.725 252.295 340.333C252.295 347.94 262.974 354.108 276.147 354.108Z" fill="#D6D8E5"/>
<path d="M295.864 235.432C296.14 237.812 298.98 248.095 298.371 251.615C297.762 255.135 288.081 261.027 288.081 261.027L286.771 254.993L292.146 249.759L290.694 239.766L295.864 235.432Z" fill="#FFCEA9"/>
<path d="M288.35 225.305C289.295 224.866 290.368 224.789 291.365 225.089C292.363 225.39 293.215 226.046 293.761 226.933C295.177 229.306 296.678 237.408 296.806 238.803C296.806 238.803 294.802 241.579 291.799 241.112L288.35 225.305Z" fill="#EDEDED"/>
<path d="M277.266 339.943C275.152 340.526 272.893 340.254 270.977 339.186C269.462 339.228 261.246 335.715 260.127 338.669C259.15 341.289 262.705 343.626 264.61 344.108C268.761 345.12 271.813 347.188 273.499 347.535C274.745 347.797 276.331 347.975 277.344 346.997C278.527 345.793 278.428 341.459 277.266 339.943Z" fill="#38226D"/>
<path d="M273.499 346.792C271.834 346.438 268.761 344.37 264.61 343.364C263.017 342.982 260.269 341.239 259.993 339.157C259.625 341.537 262.826 343.654 264.61 344.079C268.761 345.092 271.813 347.16 273.499 347.507C274.745 347.769 276.331 347.946 277.344 346.969C277.6 346.682 277.787 346.341 277.89 345.97C277.271 346.438 276.553 346.756 275.791 346.899C275.029 347.041 274.244 347.005 273.499 346.792V346.792Z" fill="#084AFC"/>
<path d="M290.595 333.931C288.481 334.517 286.22 334.245 284.306 333.173C282.79 333.215 274.575 329.695 273.463 332.649C272.479 335.241 276.041 337.606 277.939 338.095C282.089 339.101 285.142 341.176 286.827 341.53C288.074 341.792 289.66 341.962 290.673 340.984C291.856 339.809 291.785 335.474 290.595 333.931Z" fill="#38226D"/>
<path d="M286.827 340.807C285.163 340.453 282.089 338.385 277.939 337.38C276.346 336.997 273.598 335.255 273.357 333.173C272.989 335.552 276.19 337.67 277.939 338.095C282.089 339.101 285.142 341.176 286.827 341.53C288.074 341.792 289.66 341.962 290.673 340.984C290.926 340.696 291.112 340.355 291.218 339.986C290.6 340.454 289.882 340.772 289.12 340.914C288.357 341.057 287.573 341.02 286.827 340.807V340.807Z" fill="#084AFC"/>
<path d="M290.758 311.615C290.403 308.565 289.768 305.554 288.86 302.62C288.86 302.62 289.426 294.83 289.71 287.479C290.028 279.122 292.932 271.763 290.637 265.106L264.873 270.822C264.873 270.822 266.431 304.143 266.785 308.152C266.971 311.289 267.356 314.411 267.939 317.5C269.115 323.973 271.027 339.355 271.027 339.355C273.754 340.942 277.33 340.064 277.33 340.064C277.33 340.064 277.139 320.609 276.962 315.942C276.749 310.276 276.572 310.708 276.572 310.708L277.422 296.544L277.982 289.497C277.982 289.497 278.69 294.674 279.157 299.32C279.568 303.35 280.538 306.997 281.629 314.497C282.571 321.006 284.101 334.086 284.101 334.086C286.827 335.673 290.531 334.355 290.531 334.355C290.531 334.355 291.487 317.28 290.758 311.615Z" fill="#073BC8"/>
<path d="M286.99 225.439C285.028 225.538 283.562 226.041 283.314 225.439C283.109 224.424 282.96 223.397 282.868 222.365C283.095 221.799 283.293 221.19 283.293 221.19C285.758 219.667 286.565 217.004 286.834 213.902C287.387 208.591 284.518 203.987 279.214 203.421C274.221 202.904 270.559 206.409 269.582 211.211C269.051 213.591 268.003 218.074 269.426 221.99C270.212 224.171 271.239 225.914 272.259 226.239C273.248 226.211 274.234 226.126 275.212 225.984C275.212 225.984 275.482 227.458 275.659 228.399C275.836 229.341 275.772 229.816 273.888 231.02C272.004 232.224 276.721 234.561 279.823 234.334C282.925 234.108 286.374 232.21 287.351 230.234C288.435 228.003 288.343 225.375 286.99 225.439Z" fill="#FFCEA9"/>
<path d="M284.15 225.736C284.695 227.089 283.307 228.746 279.625 229.908C275.942 231.069 275.602 229.575 275.602 229.575C275.602 229.575 270.191 232.04 268.428 233.265C266.218 234.816 265.241 239.292 264.936 246.855C264.589 255.602 264.568 268.576 264.851 270.821C264.851 270.821 268.994 274.943 274.285 274.504C279.575 274.065 288.449 269.391 290.659 265.772C290.595 258.102 289.703 256.848 290.942 252.436C293.775 242.316 295.283 238.18 293.902 231.48C292.762 225.935 291.161 225.248 288.945 225.304C287.34 225.361 285.739 225.505 284.15 225.736V225.736Z" fill="#F4F4F4"/>
<path d="M256.643 255.552C260.992 256.65 262.004 253.909 262.585 251.622C264.001 246.133 264.71 241.147 265.737 238.059C266.948 234.377 268.222 233.81 269.986 233.102C272.111 232.266 273.916 234.037 273.187 238.718C272.365 244.249 271.275 248.144 269.207 254.688C268.669 256.402 267.458 259.44 265.666 260.906C263.428 262.72 260.057 262.642 254.943 261.374C252.762 260.829 250.361 259.533 246.254 257.606C245.149 257.089 244.292 256.749 242.167 255.758C240.035 254.802 238.167 253.344 236.721 251.508C235.602 249.894 235.46 249.136 235.687 248.768C235.914 248.399 236.473 248.406 237.103 249.093C237.965 250.234 239.026 251.211 240.234 251.976C240.234 251.976 238.86 250.559 238.109 249.639C237.442 248.823 236.889 247.92 236.466 246.955C236.069 246.02 236.877 244.745 237.493 245.411C238.109 246.076 238.407 246.763 239.533 248.109C240.11 248.817 240.771 249.452 241.501 250C240.805 249.055 240.184 248.055 239.646 247.011C239.18 246.191 238.951 245.256 238.987 244.313C238.987 243.824 239.695 243.236 240.404 244.171C241.112 245.106 241.367 246.296 242.741 247.712C243.725 248.746 244.575 249.334 244.596 249.051C244.618 248.768 243.994 248.201 243.64 247.004C243.286 245.807 243.64 244.533 244.299 244.384C244.958 244.235 244.837 244.278 245.368 245.404C245.899 246.53 246.714 247.372 247.33 248.994C247.665 250.149 248.278 251.205 249.115 252.068C250.127 253.251 252.486 254.511 256.643 255.552Z" fill="#FFCEA9"/>
<path d="M271.593 232.358C268.69 231.919 266.636 233.229 265.361 237.592C264.086 241.955 263.194 245.616 263.194 245.616C264.344 247.274 266.085 248.43 268.059 248.846C271.53 249.681 272.769 248.031 272.769 248.031C272.769 248.031 273.732 243.442 274.334 240.283C274.936 237.125 275.184 232.875 271.593 232.358Z" fill="#EDEDED"/>
<path d="M272.67 218.867L277.635 217.415L277.486 217.089L272.514 218.541L272.67 218.867Z" fill="white"/>
<path d="M273.067 221.218L273.031 221.572L277.174 221.494L277.21 221.14L273.067 221.218Z" fill="white"/>
<path d="M272.521 226.296C271.204 226.296 270.113 224.207 269.292 222.047C268.745 220.524 268.492 218.911 268.548 217.295C268.549 217.256 268.56 217.218 268.579 217.184C268.599 217.151 268.626 217.122 268.659 217.102C268.692 217.082 268.73 217.07 268.768 217.067C268.807 217.065 268.846 217.073 268.881 217.089C270.181 217.892 271.68 218.314 273.208 218.307L273.916 221.678C273.916 221.678 272.663 226.126 272.521 226.296Z" fill="#EDEDED"/>
<path d="M269.773 210.517C269.773 210.517 265.191 203.548 275.12 202.132C282.288 201.105 286.912 205.673 287.422 210.701C287.932 215.467 284.993 220.432 282.868 222.394C281.834 222.769 279.596 222.974 276.686 221.686C276.561 220.379 276.513 219.067 276.544 217.755C276.544 217.755 280.035 210.397 269.773 210.517Z" fill="#3A2C6D"/>
<path d="M293.251 241.402L264.873 267.861L263.215 318.739C263.215 318.739 271.176 322.627 280.212 320.524L281.87 300.991L284.377 318.697L284.079 319.235C288.366 317.315 292.041 314.252 294.703 310.382L293.251 241.402Z" fill="#F4F4F4"/>
<path d="M263.194 245.616L261.778 251.756C261.778 251.756 260.588 256.055 257.528 254.965C254.648 253.753 251.841 252.374 249.122 250.836L245.453 258.364L253.038 261.905C253.038 261.905 263.569 265.659 266.494 261.905C269.419 258.152 272.705 248.017 272.705 248.017L263.194 245.616Z" fill="#EDEDED"/>
</g>
<defs>
<clipPath id="clip0">
<rect width="300" height="354.108" fill="white"/>
</clipPath>
</defs>
</svg>
