<svg width="165" height="45" viewBox="0 0 165 45" fill="none" xmlns="http://www.w3.org/2000/svg">
<path d="M40.1265 33.9718C46.6234 33.9718 51.8902 28.705 51.8902 22.2081C51.8902 15.7112 46.6234 10.4445 40.1265 10.4445C33.6297 10.4445 28.3629 15.7112 28.3629 22.2081C28.3629 28.705 33.6297 33.9718 40.1265 33.9718Z" fill="#02DF40"/>
<path d="M44.6883 33.024C41.8817 34.2353 38.7139 34.307 35.8553 33.2239C32.9968 32.1408 30.6718 29.9879 29.3727 27.2208C28.0735 24.4537 27.902 21.2897 28.8946 18.3984C29.8871 15.5072 31.9657 13.1156 34.6905 11.7299C33.0053 13.5341 31.8839 15.7913 31.4643 18.2242C31.0447 20.6571 31.3451 23.1595 32.3286 25.424C33.3121 27.6884 34.9358 29.6161 37.0001 30.9702C39.0644 32.3243 41.4794 33.0456 43.9482 33.0456C44.1949 33.0456 44.4416 33.0369 44.6883 33.024Z" fill="#03B253"/>
<path d="M43.4072 16.0666C44.0215 16.0666 44.5195 15.5686 44.5195 14.9543C44.5195 14.34 44.0215 13.842 43.4072 13.842C42.7929 13.842 42.2949 14.34 42.2949 14.9543C42.2949 15.5686 42.7929 16.0666 43.4072 16.0666Z" fill="#22A74F"/>
<path d="M33.3315 16.7678C33.9458 16.7678 34.4438 16.2698 34.4438 15.6555C34.4438 15.0411 33.9458 14.5432 33.3315 14.5432C32.7172 14.5432 32.2192 15.0411 32.2192 15.6555C32.2192 16.2698 32.7172 16.7678 33.3315 16.7678Z" fill="#F4F6F9"/>
<path d="M37.3133 15.7896C37.7746 15.7896 38.1486 15.4156 38.1486 14.9543C38.1486 14.493 37.7746 14.119 37.3133 14.119C36.852 14.119 36.478 14.493 36.478 14.9543C36.478 15.4156 36.852 15.7896 37.3133 15.7896Z" fill="#F4F6F9"/>
<path d="M38.8368 22.8184C39.867 22.8184 40.7022 21.9832 40.7022 20.953C40.7022 19.9227 39.867 19.0876 38.8368 19.0876C37.8066 19.0876 36.9714 19.9227 36.9714 20.953C36.9714 21.9832 37.8066 22.8184 38.8368 22.8184Z" fill="#22A74F"/>
<path d="M32.5741 26.5275C33.6043 26.5275 34.4395 25.6923 34.4395 24.6621C34.4395 23.6319 33.6043 22.7967 32.5741 22.7967C31.5439 22.7967 30.7087 23.6319 30.7087 24.6621C30.7087 25.6923 31.5439 26.5275 32.5741 26.5275Z" fill="#F4F6F9"/>
<path d="M41.2216 29.4577C42.2518 29.4577 43.087 28.6225 43.087 27.5923C43.087 26.562 42.2518 25.7269 41.2216 25.7269C40.1913 25.7269 39.3562 26.562 39.3562 27.5923C39.3562 28.6225 40.1913 29.4577 41.2216 29.4577Z" fill="#22A74F"/>
<path d="M47.164 27.5923C47.7783 27.5923 48.2763 27.0943 48.2763 26.4799C48.2763 25.8656 47.7783 25.3676 47.164 25.3676C46.5497 25.3676 46.0517 25.8656 46.0517 26.4799C46.0517 27.0943 46.5497 27.5923 47.164 27.5923Z" fill="#00C708"/>
<path d="M35.5605 30.8513C36.0218 30.8513 36.3958 30.4773 36.3958 30.016C36.3958 29.5546 36.0218 29.1807 35.5605 29.1807C35.0991 29.1807 34.7251 29.5546 34.7251 30.016C34.7251 30.4773 35.0991 30.8513 35.5605 30.8513Z" fill="#00C708"/>
<path d="M32.9074 21.4074C33.3687 21.4074 33.7427 21.0335 33.7427 20.5721C33.7427 20.1108 33.3687 19.7368 32.9074 19.7368C32.446 19.7368 32.072 20.1108 32.072 20.5721C32.072 21.0335 32.446 21.4074 32.9074 21.4074Z" fill="#00C708"/>
<path d="M46.0517 20.8665C46.666 20.8665 47.164 20.3685 47.164 19.7542C47.164 19.1398 46.666 18.6418 46.0517 18.6418C45.4374 18.6418 44.9394 19.1398 44.9394 19.7542C44.9394 20.3685 45.4374 20.8665 46.0517 20.8665Z" fill="#00C708"/>
<path d="M38.8368 10.5137C39.776 8.52282 39.6635 5.03873 39.6635 5.03873H40.6459C40.6459 5.03873 40.7671 8.89503 41.5115 10.5224" fill="#14C450"/>
<path d="M40.6589 5.34602C40.3254 5.36608 39.9915 5.3129 39.6808 5.19021V5.03873H40.6632C40.6632 5.03873 40.6546 5.21185 40.6589 5.34602Z" fill="#22A74F"/>
<path d="M40.1698 5.1253C40.7913 5.1253 41.2951 4.8734 41.2951 4.56265C41.2951 4.25191 40.7913 4 40.1698 4C39.5484 4 39.0445 4.25191 39.0445 4.56265C39.0445 4.8734 39.5484 5.1253 40.1698 5.1253Z" fill="#14C450"/>
<path d="M39.599 4.38711C39.7154 4.35986 39.8 4.29627 39.788 4.24506C39.776 4.19386 39.6719 4.17444 39.5556 4.20169C39.4392 4.22895 39.3546 4.29255 39.3666 4.34375C39.3786 4.39495 39.4826 4.41436 39.599 4.38711Z" fill="#F4F6F9"/>
<path d="M42.8792 10.9811C44.0738 9.78659 44.9004 7.23737 44.9004 7.23737L45.6102 7.49705C45.6102 7.49705 44.6927 10.3146 44.8009 11.678" fill="#14C450"/>
<path d="M45.541 7.72211C45.2951 7.6484 45.0679 7.52297 44.8744 7.35423L44.9134 7.2417L45.6232 7.50138L45.541 7.72211Z" fill="#22A74F"/>
<path d="M46.2005 7.312C46.2815 7.08711 45.9826 6.77347 45.5328 6.61145C45.083 6.44943 44.6527 6.5004 44.5717 6.72528C44.4907 6.95017 44.7896 7.26382 45.2394 7.42583C45.6892 7.58785 46.1195 7.53688 46.2005 7.312Z" fill="#14C450"/>
<path d="M45.182 6.6907C45.1867 6.65033 45.1173 6.6091 45.0271 6.59862C44.9369 6.58813 44.8599 6.61236 44.8553 6.65272C44.8506 6.69308 44.9199 6.7343 45.0101 6.74479C45.1004 6.75528 45.1773 6.73106 45.182 6.6907Z" fill="#F4F6F9"/>
<path d="M45.4111 12.0805C46.6533 11.3188 47.8565 9.35382 47.8565 9.35382L48.3975 9.70872C48.3975 9.70872 47.0645 11.8728 46.8827 13.0543" fill="#14C450"/>
<path d="M48.2936 9.88616C48.1025 9.77876 47.9371 9.63108 47.8089 9.45335L47.8651 9.36679L48.4061 9.72169L48.2936 9.88616Z" fill="#22A74F"/>
<path d="M48.9334 9.68803C49.0461 9.51612 48.8588 9.19402 48.5149 8.96859C48.1711 8.74317 47.801 8.69978 47.6883 8.8717C47.5756 9.04361 47.763 9.36573 48.1068 9.59115C48.4506 9.81657 48.8207 9.85995 48.9334 9.68803Z" fill="#14C450"/>
<path d="M48.2096 8.96143C48.2219 8.92775 48.1718 8.87851 48.0977 8.85144C48.0236 8.82437 47.9536 8.82972 47.9413 8.8634C47.929 8.89708 47.9791 8.94632 48.0532 8.97339C48.1273 9.00046 48.1973 8.99511 48.2096 8.96143Z" fill="#F4F6F9"/>
<path d="M35.4176 11.8035C35.5864 10.3752 34.7901 8.21119 34.7901 8.21119L35.4047 8.00345C35.4047 8.00345 36.2962 10.3969 37.1012 11.2625" fill="#14C450"/>
<path d="M35.4652 8.17658C35.2606 8.25876 35.0406 8.29568 34.8204 8.28478L34.7901 8.2112L35.4047 8.00345L35.4652 8.17658Z" fill="#22A74F"/>
<path d="M35.1155 8.14189C35.505 8.01034 35.7675 7.74582 35.7017 7.55106C35.6359 7.3563 35.2668 7.30505 34.8773 7.43659C34.4878 7.56814 34.2253 7.83266 34.2911 8.02742C34.3569 8.22218 34.726 8.27343 35.1155 8.14189Z" fill="#14C450"/>
<path d="M34.5997 7.79545C34.6667 7.75384 34.7057 7.69541 34.6868 7.66495C34.6679 7.63449 34.5982 7.64354 34.5312 7.68515C34.4642 7.72676 34.4252 7.78519 34.4441 7.81565C34.463 7.84611 34.5327 7.83707 34.5997 7.79545Z" fill="#F4F6F9"/>
<path d="M51.293 19.7974C52.6736 20.2649 54.9545 19.9316 54.9545 19.9316L55.0281 20.5765C55.0281 20.5765 52.5005 20.9444 51.4834 21.5503" fill="#14C450"/>
<path d="M54.8247 20.6111C54.7883 20.3938 54.7971 20.1713 54.8506 19.9576H54.9545L55.0281 20.6024L54.8247 20.6111Z" fill="#22A74F"/>
<path d="M55.3846 20.9724C55.5888 20.9491 55.7168 20.5992 55.6703 20.1906C55.6238 19.7821 55.4206 19.4698 55.2163 19.4931C55.0121 19.5163 54.8842 19.8663 54.9306 20.2748C54.9771 20.6833 55.1804 20.9956 55.3846 20.9724Z" fill="#14C450"/>
<path d="M55.4805 19.9547C55.5142 19.9426 55.5201 19.8726 55.4935 19.7983C55.467 19.7241 55.4181 19.6736 55.3843 19.6857C55.3506 19.6978 55.3447 19.7678 55.3713 19.842C55.3978 19.9163 55.4467 19.9667 55.4805 19.9547Z" fill="#F4F6F9"/>
<path d="M51.5483 22.2341C52.7948 22.9872 55.0973 23.1473 55.0973 23.1473L55.0324 23.7965C55.0324 23.7965 52.4832 23.6148 51.3665 23.987" fill="#14C450"/>
<path d="M54.829 23.7922C54.8379 23.5709 54.894 23.354 54.9935 23.156H55.0973L55.0324 23.8052L54.829 23.7922Z" fill="#22A74F"/>
<path d="M55.7437 23.548C55.7854 23.139 55.6535 22.7905 55.449 22.7696C55.2445 22.7487 55.0449 23.0634 55.0031 23.4724C54.9613 23.8814 55.0933 24.2299 55.2978 24.2508C55.5023 24.2716 55.7019 23.957 55.7437 23.548Z" fill="#14C450"/>
<path d="M55.614 23.2732C55.6496 23.2686 55.6702 23.2015 55.6601 23.1233C55.65 23.045 55.613 22.9853 55.5775 22.9899C55.5419 22.9945 55.5213 23.0616 55.5314 23.1399C55.5415 23.2181 55.5785 23.2778 55.614 23.2732Z" fill="#F4F6F9"/>
<path d="M50.5226 26.9431C51.3492 28.1419 53.3791 29.2369 53.3791 29.2369L53.0502 29.7953C53.0502 29.7953 50.8039 28.5834 49.631 28.4622" fill="#14C450"/>
<path d="M52.8727 29.7044C52.9726 29.5073 53.1127 29.3334 53.2839 29.1937L53.3747 29.2456L53.0458 29.8039L52.8727 29.7044Z" fill="#22A74F"/>
<path d="M53.8048 29.8609C54.0115 29.5054 54.0349 29.1335 53.8572 29.0302C53.6794 28.9269 53.3679 29.1313 53.1613 29.4867C52.9546 29.8422 52.9312 30.2141 53.1089 30.3174C53.2866 30.4207 53.5982 30.2163 53.8048 29.8609Z" fill="#14C450"/>
<path d="M53.888 29.4349C53.9111 29.3595 53.902 29.2899 53.8677 29.2794C53.8334 29.2689 53.7869 29.3216 53.7639 29.397C53.7408 29.4724 53.7499 29.5421 53.7842 29.5526C53.8185 29.563 53.865 29.5104 53.888 29.4349Z" fill="#F4F6F9"/>
<path d="M50.4879 17.0837C52.1759 17.2309 54.6559 16.2181 54.6559 16.2181L54.9156 16.9279C54.9156 16.9279 52.1672 18.0402 51.1934 19.001" fill="#14C450"/>
<path d="M54.6991 17.0232C54.5963 16.7886 54.5446 16.5348 54.5477 16.2787L54.6602 16.2354L54.9199 16.9453L54.6991 17.0232Z" fill="#22A74F"/>
<path d="M55.4347 17.2629C55.659 17.1801 55.7065 16.7494 55.5408 16.301C55.3752 15.8525 55.0592 15.5561 54.835 15.6389C54.6107 15.7217 54.5632 16.1524 54.7288 16.6009C54.8945 17.0493 55.2105 17.3457 55.4347 17.2629Z" fill="#14C450"/>
<path d="M55.2529 16.086C55.2868 16.0636 55.2737 15.984 55.2236 15.9083C55.1736 15.8325 55.1055 15.7892 55.0716 15.8116C55.0377 15.834 55.0508 15.9136 55.1009 15.9894C55.1509 16.0652 55.219 16.1084 55.2529 16.086Z" fill="#F4F6F9"/>
<path d="M51.4098 24.7401C52.626 25.913 55.1839 26.692 55.1839 26.692L54.9458 27.4061C54.9458 27.4061 52.1066 26.5405 50.7433 26.6747" fill="#14C450"/>
<path d="M54.6991 27.3369C54.7674 27.0898 54.8869 26.8598 55.0497 26.6617L55.1622 26.7007L54.9242 27.4148L54.6991 27.3369Z" fill="#22A74F"/>
<path d="M56.0773 26.8787C56.2303 26.4245 56.1702 25.9943 55.9432 25.9179C55.7161 25.8414 55.408 26.1475 55.255 26.6017C55.102 27.0558 55.1621 27.486 55.3892 27.5625C55.6163 27.639 55.9244 27.3328 56.0773 26.8787Z" fill="#14C450"/>
<path d="M56.877 26.6587C56.8861 26.5679 56.8605 26.491 56.8199 26.4869C56.7793 26.4828 56.739 26.5532 56.7299 26.644C56.7208 26.7348 56.7464 26.8118 56.787 26.8158C56.8276 26.8199 56.868 26.7495 56.877 26.6587Z" fill="#F4F6F9"/>
<path d="M46.9389 31.5481C47.0818 33.236 48.497 35.5039 48.497 35.5039L47.8435 35.8848C47.8435 35.8848 46.2767 33.3659 45.1688 32.5652" fill="#14C450"/>
<path d="M47.718 35.6857C47.9322 35.5448 48.1743 35.4518 48.4278 35.413L48.4884 35.5126L47.8349 35.8934L47.718 35.6857Z" fill="#22A74F"/>
<path d="M48.5603 36.3897C48.9741 36.1502 49.2124 35.7884 49.0927 35.5815C48.973 35.3746 48.5405 35.401 48.1267 35.6405C47.713 35.88 47.4746 36.2418 47.5943 36.4487C47.7141 36.6556 48.1466 36.6292 48.5603 36.3897Z" fill="#14C450"/>
<path d="M48.8943 36.0125C48.9605 35.9502 48.9915 35.8758 48.9637 35.8462C48.9359 35.8166 48.8597 35.843 48.7935 35.9053C48.7273 35.9675 48.6963 36.0419 48.7241 36.0715C48.7519 36.1011 48.8281 36.0747 48.8943 36.0125Z" fill="#F4F6F9"/>
<path d="M48.0253 13.4871C50.1417 12.8725 52.6736 10.4791 52.6736 10.4791L53.3228 11.2106C53.3228 11.2106 50.5139 13.8593 49.7868 15.4867" fill="#14C450"/>
<path d="M53.1021 11.4269C52.8673 11.1911 52.6858 10.9078 52.5697 10.5959L52.6823 10.4921L53.3315 11.2235L53.1021 11.4269Z" fill="#22A74F"/>
<path d="M54.1092 11.3697C54.3418 11.1636 54.1963 10.6195 53.7841 10.1543C53.372 9.68912 52.8494 9.47907 52.6168 9.68514C52.3842 9.8912 52.5297 10.4354 52.9419 10.9005C53.354 11.3657 53.8766 11.5758 54.1092 11.3697Z" fill="#14C450"/>
<path d="M53.3375 10.0309C53.3679 9.98793 53.3134 9.89717 53.2158 9.82814C53.1183 9.75911 53.0146 9.73795 52.9842 9.78088C52.9538 9.82381 53.0083 9.91457 53.1058 9.9836C53.2034 10.0526 53.3071 10.0738 53.3375 10.0309Z" fill="#F4F6F9"/>
<path d="M49.9686 28.6613C50.9034 30.6522 53.6604 32.786 53.6604 32.786L53.0372 33.539C53.0372 33.539 49.9859 31.1759 48.2763 30.7085" fill="#14C450"/>
<path d="M52.7905 33.3572C52.9883 33.0885 53.2405 32.8644 53.5306 32.6994L53.6518 32.7989L53.0285 33.552L52.7905 33.3572Z" fill="#22A74F"/>
<path d="M54.1416 33.8195C54.5372 33.3403 54.6637 32.7913 54.4241 32.5935C54.1844 32.3957 53.6694 32.6239 53.2738 33.1031C52.8781 33.5824 52.7517 34.1313 52.9913 34.3291C53.2309 34.527 53.7459 34.2988 54.1416 33.8195Z" fill="#14C450"/>
<path d="M54.3783 33.2377C54.4314 33.1306 54.4363 33.0248 54.3892 33.0015C54.342 32.9781 54.2608 33.046 54.2077 33.1531C54.1546 33.2602 54.1498 33.3659 54.1969 33.3892C54.244 33.4126 54.3253 33.3447 54.3783 33.2377Z" fill="#F4F6F9"/>
<path d="M38.114 33.803C36.6555 35.452 35.7985 38.8279 35.7985 38.8279L34.855 38.5552C34.855 38.5552 35.8115 34.8158 35.5605 33.0543" fill="#22A74F"/>
<path d="M34.9286 38.2566C35.2545 38.3356 35.5599 38.4832 35.8245 38.6894C35.8245 38.6894 35.7855 38.8365 35.7855 38.8365L34.842 38.5639C34.842 38.5639 34.8939 38.3908 34.9286 38.2566Z" fill="#00C708"/>
<path d="M36.2577 39.4596C36.3441 39.1611 35.9302 38.779 35.3332 38.6063C34.7362 38.4335 34.1822 38.5354 34.0958 38.8339C34.0094 39.1324 34.4234 39.5144 35.0203 39.6872C35.6173 39.86 36.1713 39.758 36.2577 39.4596Z" fill="#22A74F"/>
<path d="M35.8882 39.5737C35.8909 39.5212 35.7964 39.4736 35.677 39.4674C35.5576 39.4613 35.4587 39.4988 35.456 39.5514C35.4533 39.6039 35.5478 39.6515 35.6672 39.6576C35.7865 39.6638 35.8855 39.6262 35.8882 39.5737Z" fill="#F4F6F9"/>
<path d="M29.947 28.1203C27.744 28.0597 24.6061 29.5702 24.6061 29.5702L24.208 28.67C24.208 28.67 27.6704 27.0036 28.8823 25.6793" fill="#22A74F"/>
<path d="M24.485 28.5271C24.6382 28.8237 24.7253 29.1501 24.7403 29.4836L24.6018 29.5485L24.2036 28.6483L24.485 28.5271Z" fill="#00C708"/>
<path d="M24.4233 30.3105C24.7076 30.185 24.7347 29.6224 24.4838 29.0538C24.2329 28.4852 23.7991 28.126 23.5148 28.2514C23.2305 28.3768 23.2034 28.9395 23.4543 29.5081C23.7052 30.0767 24.139 30.4359 24.4233 30.3105Z" fill="#22A74F"/>
<path d="M24.0864 30.1275C24.1284 30.0959 24.1042 29.9928 24.0323 29.8973C23.9604 29.8019 23.8681 29.7501 23.8261 29.7817C23.784 29.8134 23.8083 29.9164 23.8802 30.0119C23.9521 30.1074 24.0444 30.1591 24.0864 30.1275Z" fill="#F4F6F9"/>
<path d="M29.5964 16.9972C28.4235 15.1318 25.4285 13.353 25.4285 13.353L25.9565 12.522C25.9565 12.522 29.2718 14.4999 31.0376 14.7596" fill="#22A74F"/>
<path d="M26.2075 12.6777C26.0437 12.9687 25.8194 13.2211 25.5496 13.4178L25.4198 13.3399L25.9478 12.5089C25.9478 12.5089 26.0863 12.6128 26.2075 12.6777Z" fill="#00C708"/>
<path d="M25.6253 13.3993C25.9609 12.8773 26.0214 12.318 25.7603 12.1502C25.4993 11.9824 25.0157 12.2696 24.6801 12.7917C24.3445 13.3137 24.284 13.8729 24.545 14.0407C24.806 14.2085 25.2897 13.9214 25.6253 13.3993Z" fill="#22A74F"/>
<path d="M24.8198 13.0498C24.8595 12.9371 24.8514 12.8316 24.8018 12.8141C24.7522 12.7966 24.6798 12.8739 24.6401 12.9866C24.6004 13.0993 24.6085 13.2049 24.6581 13.2223C24.7077 13.2398 24.7801 13.1626 24.8198 13.0498Z" fill="#F4F6F9"/>
<path d="M32.3447 13.8377C31.9595 12.18 30.2283 10.1242 30.2283 10.1242L30.8212 9.65677C30.8212 9.65677 32.7386 11.9377 33.9591 12.5696" fill="#22A74F"/>
<path d="M30.977 9.82557C30.7842 9.99708 30.557 10.1255 30.3105 10.2021L30.2369 10.1069L30.8299 9.63947L30.977 9.82557Z" fill="#00C708"/>
<path d="M30.5718 9.93247C30.9489 9.63469 31.1345 9.24122 30.9863 9.05364C30.8382 8.86605 30.4124 8.95537 30.0354 9.25315C29.6583 9.55093 29.4727 9.9444 29.6209 10.132C29.769 10.3196 30.1948 10.2302 30.5718 9.93247Z" fill="#22A74F"/>
<path d="M29.8746 9.75811C29.9312 9.68704 29.9513 9.60891 29.9195 9.58361C29.8877 9.5583 29.816 9.5954 29.7595 9.66646C29.7029 9.73753 29.6828 9.81565 29.7146 9.84096C29.7464 9.86627 29.818 9.82917 29.8746 9.75811Z" fill="#F4F6F9"/>
<path d="M28.8996 24.3852C27.2895 23.8312 24.6278 24.2164 24.6278 24.2164L24.5455 23.4633C24.5455 23.4633 27.4929 23.0305 28.6788 22.3423" fill="#22A74F"/>
<path d="M24.7793 23.4286C24.8232 23.6833 24.8129 23.9443 24.749 24.1947H24.6278L24.5455 23.4416L24.7793 23.4286Z" fill="#00C708"/>
<path d="M24.3257 24.73C24.5633 24.7035 24.7126 24.2949 24.6592 23.8174C24.6058 23.3399 24.3699 22.9744 24.1324 23.0009C23.8948 23.0275 23.7455 23.4361 23.7989 23.9136C23.8523 24.3911 24.0882 24.7566 24.3257 24.73Z" fill="#22A74F"/>
<path d="M24.1187 24.5148C24.1569 24.5012 24.1634 24.4208 24.133 24.3352C24.1026 24.2496 24.0469 24.1912 24.0086 24.2048C23.9703 24.2184 23.9639 24.2988 23.9943 24.3844C24.0247 24.47 24.0804 24.5284 24.1187 24.5148Z" fill="#F4F6F9"/>
<path d="M34.7381 32.2968C33.2969 33.1971 31.9162 35.5039 31.9162 35.5039L31.28 35.0971C31.28 35.0971 32.8121 32.5392 33.0112 31.1802" fill="#22A74F"/>
<path d="M31.3969 34.8893C31.6201 35.0153 31.8135 35.188 31.9638 35.3957L31.9032 35.4953L31.267 35.0884L31.3969 34.8893Z" fill="#00C708"/>
<path d="M32.1247 36.0839C32.2538 35.8828 32.0308 35.5092 31.6266 35.2496C31.2223 34.99 30.7899 34.9425 30.6607 35.1437C30.5315 35.3448 30.7545 35.7183 31.1588 35.978C31.5631 36.2376 31.9955 36.285 32.1247 36.0839Z" fill="#22A74F"/>
<path d="M31.8223 36.0858C31.8359 36.0475 31.7775 35.9918 31.6919 35.9615C31.6063 35.9311 31.5259 35.9375 31.5123 35.9758C31.4987 36.0141 31.5571 36.0698 31.6427 36.1001C31.7283 36.1305 31.8087 36.1241 31.8223 36.0858Z" fill="#F4F6F9"/>
<path d="M43.0566 33.1494C42.7494 34.4868 43.2774 36.5859 43.2774 36.5859L42.6801 36.7158C42.6801 36.7158 42.1001 34.3873 41.438 33.5" fill="#22A74F"/>
<path d="M42.6325 36.5297C42.8323 36.4733 43.0418 36.46 43.2471 36.4908L43.2687 36.586L42.6715 36.7158L42.6325 36.5297Z" fill="#00C708"/>
<path d="M43.1021 37.2929C43.4805 37.2105 43.7538 36.9903 43.7126 36.8011C43.6714 36.6119 43.3312 36.5254 42.9529 36.6078C42.5745 36.6903 42.3012 36.9104 42.3424 37.0996C42.3836 37.2888 42.7237 37.3753 43.1021 37.2929Z" fill="#22A74F"/>
<path d="M43.4572 37.0853C43.5241 37.0534 43.5667 37.0031 43.5523 36.9729C43.5379 36.9427 43.472 36.944 43.4051 36.9759C43.3382 37.0077 43.2956 37.0581 43.31 37.0883C43.3244 37.1185 43.3903 37.1171 43.4572 37.0853Z" fill="#F4F6F9"/>
<path d="M41.2042 33.5952C40.4988 35.1404 40.6243 37.8281 40.6243 37.8281H39.8669C39.8669 37.8281 39.7284 34.8547 39.1484 33.6082" fill="#22A74F"/>
<path d="M39.8496 37.6031C40.1069 37.5822 40.3657 37.6192 40.607 37.7113V37.8281H39.8496C39.8496 37.8281 39.8582 37.7069 39.8496 37.6031Z" fill="#00C708"/>
<path d="M40.2524 38.6256C40.7328 38.6188 41.1195 38.4196 41.1161 38.1806C41.1127 37.9416 40.7205 37.7533 40.2401 37.7601C39.7597 37.7669 39.373 37.9662 39.3764 38.2052C39.3798 38.4442 39.772 38.6324 40.2524 38.6256Z" fill="#22A74F"/>
<path d="M40.7294 38.4573C40.8176 38.4354 40.8811 38.3856 40.8712 38.3462C40.8614 38.3067 40.782 38.2926 40.6939 38.3145C40.6057 38.3365 40.5422 38.3862 40.5521 38.4257C40.5619 38.4651 40.6413 38.4793 40.7294 38.4573Z" fill="#F4F6F9"/>
<path d="M28.6139 19.897C27.5232 19.0876 25.3982 18.7327 25.3982 18.7327L25.5194 18.1398C25.5194 18.1398 27.8695 18.5336 28.9428 18.2869" fill="#22A74F"/>
<path d="M25.7011 18.1657C25.6711 18.3689 25.5988 18.5635 25.4891 18.7371H25.3938L25.515 18.1441L25.7011 18.1657Z" fill="#00C708"/>
<path d="M25.5093 18.4439C25.584 18.0688 25.4926 17.7345 25.3051 17.6971C25.1175 17.6597 24.9049 17.9335 24.8302 18.3086C24.7554 18.6837 24.8469 19.018 25.0344 19.0554C25.2219 19.0928 25.4345 18.819 25.5093 18.4439Z" fill="#22A74F"/>
<path d="M24.9501 18.8336C24.9836 18.8325 25.0087 18.7716 25.0062 18.6975C25.0038 18.6234 24.9746 18.5643 24.9412 18.5654C24.9077 18.5665 24.8826 18.6275 24.8851 18.7015C24.8876 18.7756 24.9167 18.8347 24.9501 18.8336Z" fill="#F4F6F9"/>
<path d="M32.4659 30.4834C31.0766 30.9162 29.4363 32.5652 29.4363 32.5652L29.0035 32.0891C29.0035 32.0891 30.8169 30.28 31.2713 29.1893" fill="#22A74F"/>
<path d="M29.1376 31.942C29.3005 32.093 29.4264 32.2797 29.5055 32.4873L29.4319 32.5565L28.9991 32.0805L29.1376 31.942Z" fill="#00C708"/>
<path d="M29.4848 33.0889C29.6349 32.9485 29.5289 32.5912 29.2481 32.291C28.9672 31.9907 28.6178 31.8612 28.4677 32.0016C28.3176 32.142 28.4235 32.4993 28.7044 32.7995C28.9853 33.0998 29.3347 33.2293 29.4848 33.0889Z" fill="#22A74F"/>
<path d="M29.2411 33.0268C29.261 32.997 29.224 32.9373 29.1584 32.8935C29.0928 32.8497 29.0235 32.8384 29.0035 32.8682C28.9836 32.898 29.0207 32.9577 29.0863 33.0015C29.1519 33.0453 29.2212 33.0567 29.2411 33.0268Z" fill="#F4F6F9"/>
<path d="M20.34 12.024C21.084 12.408 21.456 13.02 21.456 13.86C21.456 14.364 21.276 14.856 20.916 15.336C20.532 15.84 20.04 16.092 19.44 16.092C19.032 16.092 18.624 15.984 18.216 15.768C17.04 15.216 15.768 14.94 14.4 14.94C12.72 14.94 11.256 15.3 10.008 16.02C8.76 16.716 7.8 17.712 7.128 19.008C6.456 20.28 6.12 21.744 6.12 23.4C6.12 26.232 6.876 28.38 8.388 29.844C9.924 31.308 11.928 32.04 14.4 32.04C15.864 32.04 17.136 31.764 18.216 31.212C18.648 31.02 19.032 30.924 19.368 30.924C19.992 30.924 20.52 31.188 20.952 31.716C21.312 32.172 21.492 32.664 21.492 33.192C21.492 33.576 21.396 33.924 21.204 34.236C21.012 34.548 20.736 34.788 20.376 34.956C18.504 35.892 16.512 36.36 14.4 36.36C12.048 36.36 9.888 35.868 7.92 34.884C5.952 33.876 4.38 32.4 3.204 30.456C2.028 28.512 1.44 26.16 1.44 23.4C1.44 20.952 1.992 18.756 3.096 16.812C4.224 14.868 5.772 13.356 7.74 12.276C9.708 11.172 11.928 10.62 14.4 10.62C16.536 10.62 18.516 11.088 20.34 12.024Z" fill="#073BC8"/>
<path d="M78.096 10.728C78.696 10.728 79.212 10.932 79.644 11.34C80.1 11.748 80.328 12.24 80.328 12.816C80.328 13.128 80.256 13.452 80.112 13.788L71.22 34.596C71.004 35.052 70.704 35.4 70.32 35.64C69.936 35.88 69.528 36 69.096 36C68.688 35.976 68.304 35.856 67.944 35.64C67.608 35.4 67.344 35.064 67.152 34.632L58.26 13.752C58.14 13.512 58.08 13.212 58.08 12.852C58.08 12.204 58.32 11.688 58.8 11.304C59.28 10.896 59.772 10.692 60.276 10.692C60.684 10.692 61.068 10.812 61.428 11.052C61.788 11.292 62.064 11.64 62.256 12.096L69.492 29.124L76.116 12.096C76.308 11.664 76.584 11.328 76.944 11.088C77.304 10.848 77.688 10.728 78.096 10.728ZM88.5984 33.804C88.5984 34.428 88.3704 34.956 87.9144 35.388C87.4584 35.796 86.9304 36 86.3304 36C85.6824 36 85.1424 35.796 84.7104 35.388C84.3024 34.956 84.0984 34.428 84.0984 33.804V12.996C84.0984 12.372 84.3144 11.856 84.7464 11.448C85.1784 11.016 85.7304 10.8 86.4024 10.8C87.0024 10.8 87.5184 11.016 87.9504 11.448C88.3824 11.856 88.5984 12.372 88.5984 12.996V33.804ZM104.813 10.8C107.069 10.8 109.001 11.364 110.609 12.492C112.241 13.596 113.477 15.108 114.317 17.028C115.181 18.924 115.613 21.048 115.613 23.4C115.613 25.752 115.181 27.888 114.317 29.808C113.477 31.704 112.241 33.216 110.609 34.344C109.001 35.448 107.069 36 104.813 36H96.2085C95.5845 36 95.0565 35.796 94.6245 35.388C94.2165 34.956 94.0125 34.428 94.0125 33.804V12.996C94.0125 12.372 94.2165 11.856 94.6245 11.448C95.0565 11.016 95.5845 10.8 96.2085 10.8H104.813ZM104.453 31.86C106.613 31.86 108.233 31.068 109.312 29.484C110.393 27.876 110.933 25.848 110.933 23.4C110.933 20.952 110.381 18.936 109.277 17.352C108.197 15.744 106.589 14.94 104.453 14.94H98.5125V31.86H104.453ZM121.043 27.108C120.419 27.108 119.891 26.904 119.459 26.496C119.051 26.088 118.847 25.572 118.847 24.948C118.847 24.348 119.051 23.844 119.459 23.436C119.891 23.028 120.419 22.824 121.043 22.824H127.307C127.931 22.824 128.447 23.04 128.855 23.472C129.287 23.88 129.503 24.396 129.503 25.02C129.503 25.62 129.287 26.124 128.855 26.532C128.447 26.916 127.931 27.108 127.307 27.108H121.043ZM139.6 10.8C140.2 10.8 140.704 11.016 141.112 11.448C141.52 11.856 141.724 12.372 141.724 12.996V33.804C141.724 34.428 141.496 34.956 141.04 35.388C140.584 35.796 140.02 36 139.348 36C138.676 36 138.124 35.796 137.692 35.388C137.26 34.956 137.044 34.428 137.044 33.804V16.74L134.812 18.108C134.452 18.324 134.068 18.432 133.66 18.432C133.06 18.432 132.544 18.204 132.112 17.748C131.704 17.292 131.5 16.788 131.5 16.236C131.5 15.852 131.596 15.492 131.788 15.156C132.004 14.82 132.28 14.556 132.616 14.364L138.052 11.124C138.46 10.908 138.976 10.8 139.6 10.8ZM154.262 10.332C155.918 10.332 157.394 10.8 158.69 11.736C159.986 12.648 160.982 13.86 161.678 15.372C162.374 16.86 162.722 18.456 162.722 20.16C162.722 21.912 162.41 23.844 161.786 25.956C161.186 28.044 160.07 30.024 158.438 31.896C156.83 33.768 154.634 35.1 151.85 35.892C151.562 35.964 151.286 36 151.022 36C150.398 36 149.882 35.844 149.474 35.532C149.066 35.196 148.862 34.68 148.862 33.984C148.862 33.456 149.03 33 149.366 32.616C149.726 32.208 150.194 31.92 150.77 31.752C152.282 31.32 153.674 30.552 154.946 29.448C156.242 28.344 157.19 27.024 157.79 25.488C156.59 26.52 155.222 27.036 153.686 27.036C152.438 27.036 151.202 26.664 149.978 25.92C148.778 25.152 147.794 24.132 147.026 22.86C146.258 21.564 145.874 20.172 145.874 18.684C145.874 17.172 146.246 15.78 146.99 14.508C147.758 13.212 148.778 12.192 150.05 11.448C151.322 10.704 152.726 10.332 154.262 10.332ZM154.262 23.076C155.414 23.076 156.374 22.656 157.142 21.816C157.934 20.976 158.33 19.932 158.33 18.684C158.33 17.436 157.934 16.392 157.142 15.552C156.374 14.712 155.414 14.292 154.262 14.292C153.134 14.292 152.174 14.712 151.382 15.552C150.59 16.392 150.194 17.436 150.194 18.684C150.194 19.932 150.59 20.976 151.382 21.816C152.174 22.656 153.134 23.076 154.262 23.076Z" fill="#073BC8"/>
</svg>
