<svg width="209" height="60" viewBox="0 0 209 60" fill="none" xmlns="http://www.w3.org/2000/svg">
<path d="M48.191 44.8346C55.0917 44.8346 60.6858 39.2405 60.6858 32.3398C60.6858 25.4391 55.0917 19.845 48.191 19.845C41.2903 19.845 35.6962 25.4391 35.6962 32.3398C35.6962 39.2405 41.2903 44.8346 48.191 44.8346Z" fill="#02DF40"/>
<path d="M53.0363 43.8278C50.0552 45.1145 46.6905 45.1907 43.6543 44.0402C40.6181 42.8898 38.1487 40.603 36.7687 37.664C35.3888 34.7249 35.2067 31.3643 36.2609 28.2933C37.3152 25.2224 39.523 22.6822 42.4171 21.2104C40.6271 23.1266 39.4361 25.5242 38.9904 28.1082C38.5447 30.6923 38.8638 33.3503 39.9084 35.7555C40.953 38.1607 42.6776 40.2082 44.8702 41.6464C47.0629 43.0846 49.628 43.8508 52.2502 43.8508C52.5122 43.8508 52.7742 43.8416 53.0363 43.8278Z" fill="#03B253"/>
<path d="M51.6756 25.8166C52.328 25.8166 52.857 25.2876 52.857 24.6351C52.857 23.9826 52.328 23.4537 51.6756 23.4537C51.0231 23.4537 50.4941 23.9826 50.4941 24.6351C50.4941 25.2876 51.0231 25.8166 51.6756 25.8166Z" fill="#22A74F"/>
<path d="M40.9736 26.5613C41.6261 26.5613 42.1551 26.0324 42.1551 25.3799C42.1551 24.7274 41.6261 24.1984 40.9736 24.1984C40.3211 24.1984 39.7922 24.7274 39.7922 25.3799C39.7922 26.0324 40.3211 26.5613 40.9736 26.5613Z" fill="#F4F6F9"/>
<path d="M45.2029 25.5224C45.6929 25.5224 46.0901 25.1251 46.0901 24.6351C46.0901 24.1451 45.6929 23.7479 45.2029 23.7479C44.7129 23.7479 44.3157 24.1451 44.3157 24.6351C44.3157 25.1251 44.7129 25.5224 45.2029 25.5224Z" fill="#F4F6F9"/>
<path d="M46.8211 32.988C47.9153 32.988 48.8024 32.1009 48.8024 31.0066C48.8024 29.9124 47.9153 29.0253 46.8211 29.0253C45.7268 29.0253 44.8398 29.9124 44.8398 31.0066C44.8398 32.1009 45.7268 32.988 46.8211 32.988Z" fill="#22A74F"/>
<path d="M40.1691 36.9276C41.2634 36.9276 42.1505 36.0406 42.1505 34.9463C42.1505 33.8521 41.2634 32.965 40.1691 32.965C39.0749 32.965 38.1878 33.8521 38.1878 34.9463C38.1878 36.0406 39.0749 36.9276 40.1691 36.9276Z" fill="#F4F6F9"/>
<path d="M49.354 40.0399C50.4483 40.0399 51.3354 39.1528 51.3354 38.0585C51.3354 36.9643 50.4483 36.0772 49.354 36.0772C48.2598 36.0772 47.3727 36.9643 47.3727 38.0585C47.3727 39.1528 48.2598 40.0399 49.354 40.0399Z" fill="#22A74F"/>
<path d="M55.6658 38.0585C56.3183 38.0585 56.8472 37.5296 56.8472 36.8771C56.8472 36.2246 56.3183 35.6957 55.6658 35.6957C55.0133 35.6957 54.4844 36.2246 54.4844 36.8771C54.4844 37.5296 55.0133 38.0585 55.6658 38.0585Z" fill="#00C708"/>
<path d="M43.3411 41.5201C43.8311 41.5201 44.2283 41.1229 44.2283 40.6329C44.2283 40.1429 43.8311 39.7457 43.3411 39.7457C42.8511 39.7457 42.4539 40.1429 42.4539 40.6329C42.4539 41.1229 42.8511 41.5201 43.3411 41.5201Z" fill="#00C708"/>
<path d="M40.5231 31.4893C41.0131 31.4893 41.4103 31.0921 41.4103 30.6021C41.4103 30.1121 41.0131 29.7149 40.5231 29.7149C40.0331 29.7149 39.6359 30.1121 39.6359 30.6021C39.6359 31.0921 40.0331 31.4893 40.5231 31.4893Z" fill="#00C708"/>
<path d="M54.4843 30.9147C55.1368 30.9147 55.6658 30.3858 55.6658 29.7333C55.6658 29.0808 55.1368 28.5518 54.4843 28.5518C53.8319 28.5518 53.3029 29.0808 53.3029 29.7333C53.3029 30.3858 53.8319 30.9147 54.4843 30.9147Z" fill="#00C708"/>
<path d="M46.8211 19.9186C47.8186 17.8039 47.6991 14.1033 47.6991 14.1033H48.7426C48.7426 14.1033 48.8714 18.1993 49.6621 19.9278" fill="#14C450"/>
<path d="M48.7564 14.4297C48.4022 14.451 48.0476 14.3945 47.7175 14.2642V14.1033H48.761C48.761 14.1033 48.7518 14.2872 48.7564 14.4297Z" fill="#22A74F"/>
<path d="M48.237 14.1952C48.8971 14.1952 49.4322 13.9277 49.4322 13.5976C49.4322 13.2676 48.8971 13 48.237 13C47.5768 13 47.0417 13.2676 47.0417 13.5976C47.0417 13.9277 47.5768 14.1952 48.237 14.1952Z" fill="#14C450"/>
<path d="M47.6306 13.4112C47.7542 13.3822 47.8441 13.3147 47.8314 13.2603C47.8186 13.2059 47.7081 13.1853 47.5845 13.2142C47.4609 13.2432 47.371 13.3107 47.3838 13.3651C47.3965 13.4195 47.507 13.4401 47.6306 13.4112Z" fill="#F4F6F9"/>
<path d="M51.1147 20.415C52.3835 19.1462 53.2615 16.4386 53.2615 16.4386L54.0155 16.7144C54.0155 16.7144 53.0409 19.7071 53.1558 21.1552" fill="#14C450"/>
<path d="M53.9419 16.9534C53.6808 16.8751 53.4394 16.7419 53.234 16.5627L53.2753 16.4432L54.0292 16.719L53.9419 16.9534Z" fill="#22A74F"/>
<path d="M54.6424 16.5178C54.7285 16.279 54.4109 15.9458 53.9332 15.7737C53.4555 15.6017 52.9985 15.6558 52.9124 15.8946C52.8264 16.1335 53.1439 16.4667 53.6216 16.6387C54.0994 16.8108 54.5564 16.7567 54.6424 16.5178Z" fill="#14C450"/>
<path d="M53.5606 15.8579C53.5656 15.8151 53.492 15.7713 53.3961 15.7601C53.3003 15.749 53.2185 15.7747 53.2136 15.8176C53.2086 15.8605 53.2822 15.9042 53.3781 15.9154C53.4739 15.9265 53.5556 15.9008 53.5606 15.8579Z" fill="#F4F6F9"/>
<path d="M53.804 21.5827C55.1234 20.7736 56.4013 18.6866 56.4013 18.6866L56.976 19.0635C56.976 19.0635 55.5601 21.362 55.367 22.617" fill="#14C450"/>
<path d="M56.8656 19.252C56.6627 19.1379 56.487 18.9811 56.3508 18.7923L56.4105 18.7003L56.9851 19.0773L56.8656 19.252Z" fill="#22A74F"/>
<path d="M57.5452 19.0415C57.6649 18.8589 57.4659 18.5168 57.1007 18.2774C56.7355 18.038 56.3424 17.9919 56.2227 18.1745C56.103 18.3571 56.302 18.6992 56.6672 18.9386C57.0324 19.1781 57.4255 19.2241 57.5452 19.0415Z" fill="#14C450"/>
<path d="M56.7764 18.2698C56.7895 18.234 56.7363 18.1817 56.6576 18.153C56.5789 18.1242 56.5045 18.1299 56.4914 18.1657C56.4783 18.2014 56.5315 18.2537 56.6102 18.2825C56.6889 18.3112 56.7633 18.3056 56.7764 18.2698Z" fill="#F4F6F9"/>
<path d="M43.1894 21.2885C43.3687 19.7714 42.5228 17.4729 42.5228 17.4729L43.1756 17.2523C43.1756 17.2523 44.1226 19.7944 44.9776 20.7138" fill="#14C450"/>
<path d="M43.24 17.4361C43.0226 17.5234 42.7889 17.5627 42.555 17.5511L42.5228 17.4729L43.1756 17.2523L43.24 17.4361Z" fill="#22A74F"/>
<path d="M42.8685 17.3993C43.2822 17.2596 43.561 16.9786 43.4911 16.7718C43.4213 16.5649 43.0292 16.5105 42.6155 16.6502C42.2018 16.7899 41.923 17.0709 41.9929 17.2777C42.0627 17.4846 42.4548 17.539 42.8685 17.3993Z" fill="#14C450"/>
<path d="M42.3206 17.0314C42.3918 16.9872 42.4332 16.9251 42.4131 16.8927C42.393 16.8604 42.319 16.87 42.2479 16.9142C42.1767 16.9584 42.1353 17.0205 42.1554 17.0528C42.1755 17.0852 42.2494 17.0756 42.3206 17.0314Z" fill="#F4F6F9"/>
<path d="M60.0514 29.7792C61.5179 30.2757 63.9405 29.9217 63.9405 29.9217L64.0187 30.6067C64.0187 30.6067 61.334 30.9975 60.2537 31.641" fill="#14C450"/>
<path d="M63.8026 30.6435C63.7639 30.4127 63.7733 30.1764 63.8302 29.9493H63.9405L64.0186 30.6343L63.8026 30.6435Z" fill="#22A74F"/>
<path d="M64.3973 31.0272C64.6143 31.0025 64.7501 30.6308 64.7008 30.1969C64.6514 29.763 64.4355 29.4313 64.2186 29.4559C64.0016 29.4806 63.8658 29.8524 63.9151 30.2863C63.9645 30.7202 64.1804 31.0519 64.3973 31.0272Z" fill="#14C450"/>
<path d="M64.4992 29.9463C64.535 29.9334 64.5412 29.8591 64.513 29.7802C64.4848 29.7013 64.4329 29.6477 64.397 29.6605C64.3612 29.6734 64.355 29.7477 64.3832 29.8266C64.4114 29.9055 64.4633 29.9591 64.4992 29.9463Z" fill="#F4F6F9"/>
<path d="M60.3226 32.3674C61.6466 33.1673 64.0922 33.3374 64.0922 33.3374L64.0232 34.0269C64.0232 34.0269 61.3156 33.8339 60.1295 34.2292" fill="#14C450"/>
<path d="M63.8072 34.0223C63.8167 33.7872 63.8763 33.5568 63.9819 33.3465H64.0922L64.0233 34.0361L63.8072 34.0223Z" fill="#22A74F"/>
<path d="M64.7787 33.7629C64.8231 33.3285 64.683 32.9583 64.4657 32.9362C64.2485 32.914 64.0365 33.2482 63.9921 33.6826C63.9478 34.117 64.0879 34.4872 64.3051 34.5094C64.5223 34.5315 64.7344 34.1973 64.7787 33.7629Z" fill="#14C450"/>
<path d="M64.641 33.4711C64.6788 33.4662 64.7007 33.3949 64.69 33.3118C64.6793 33.2287 64.64 33.1653 64.6022 33.1702C64.5644 33.1751 64.5425 33.2464 64.5532 33.3295C64.5639 33.4125 64.6032 33.476 64.641 33.4711Z" fill="#F4F6F9"/>
<path d="M59.2331 37.369C60.1112 38.6424 62.2672 39.8054 62.2672 39.8054L61.9178 40.3984C61.9178 40.3984 59.5319 39.1113 58.2861 38.9825" fill="#14C450"/>
<path d="M61.7293 40.3019C61.8355 40.0926 61.9842 39.9078 62.166 39.7595L62.2626 39.8146L61.9132 40.4076L61.7293 40.3019Z" fill="#22A74F"/>
<path d="M62.7194 40.4681C62.9389 40.0906 62.9637 39.6956 62.775 39.5859C62.5862 39.4761 62.2553 39.6932 62.0358 40.0708C61.8163 40.4483 61.7914 40.8433 61.9802 40.953C62.169 41.0628 62.4999 40.8457 62.7194 40.4681Z" fill="#14C450"/>
<path d="M62.8077 40.0158C62.8322 39.9356 62.8225 39.8616 62.7861 39.8505C62.7497 39.8394 62.7003 39.8953 62.6759 39.9755C62.6514 40.0556 62.6611 40.1296 62.6975 40.1407C62.7339 40.1518 62.7833 40.0959 62.8077 40.0158Z" fill="#F4F6F9"/>
<path d="M59.1964 26.8969C60.9892 27.0532 63.6233 25.9775 63.6233 25.9775L63.8991 26.7314C63.8991 26.7314 60.98 27.9128 59.9457 28.9334" fill="#14C450"/>
<path d="M63.6693 26.8325C63.56 26.5834 63.5052 26.3138 63.5084 26.0418L63.6279 25.9959L63.9037 26.7498L63.6693 26.8325Z" fill="#22A74F"/>
<path d="M64.4506 27.0872C64.6887 26.9993 64.7392 26.5418 64.5633 26.0655C64.3874 25.5892 64.0517 25.2744 63.8135 25.3623C63.5754 25.4503 63.5249 25.9077 63.7008 26.384C63.8767 26.8604 64.2124 27.1752 64.4506 27.0872Z" fill="#14C450"/>
<path d="M64.2575 25.8372C64.2935 25.8134 64.2795 25.7289 64.2264 25.6484C64.1732 25.5679 64.1009 25.5219 64.0649 25.5457C64.0289 25.5695 64.0428 25.654 64.096 25.7345C64.1491 25.815 64.2214 25.861 64.2575 25.8372Z" fill="#F4F6F9"/>
<path d="M60.1755 35.0291C61.4673 36.2749 64.1841 37.1023 64.1841 37.1023L63.9313 37.8609C63.9313 37.8609 60.9156 36.9414 59.4676 37.084" fill="#14C450"/>
<path d="M63.6693 37.7873C63.7418 37.5248 63.8687 37.2805 64.0416 37.0702L64.1612 37.1115L63.9083 37.8701L63.6693 37.7873Z" fill="#22A74F"/>
<path d="M65.1331 37.3006C65.2956 36.8182 65.2318 36.3613 64.9906 36.28C64.7494 36.1988 64.4222 36.524 64.2597 37.0064C64.0972 37.4888 64.161 37.9457 64.4022 38.0269C64.6434 38.1082 64.9706 37.783 65.1331 37.3006Z" fill="#14C450"/>
<path d="M65.9825 37.067C65.9922 36.9705 65.965 36.8888 65.9218 36.8845C65.8787 36.8802 65.8359 36.9549 65.8262 37.0513C65.8166 37.1478 65.8437 37.2295 65.8869 37.2339C65.9301 37.2382 65.9729 37.1635 65.9825 37.067Z" fill="#F4F6F9"/>
<path d="M55.4268 42.2602C55.5785 44.0531 57.0817 46.4619 57.0817 46.4619L56.3875 46.8665C56.3875 46.8665 54.7234 44.191 53.5466 43.3405" fill="#14C450"/>
<path d="M56.2542 46.655C56.4818 46.5054 56.739 46.4066 57.0082 46.3654L57.0725 46.4711L56.3784 46.8756L56.2542 46.655Z" fill="#22A74F"/>
<path d="M57.1489 47.4028C57.5884 47.1484 57.8416 46.7641 57.7144 46.5443C57.5872 46.3246 57.1279 46.3527 56.6884 46.607C56.2489 46.8614 55.9957 47.2457 56.1229 47.4654C56.2501 47.6852 56.7094 47.6571 57.1489 47.4028Z" fill="#14C450"/>
<path d="M57.5037 47.0021C57.5739 46.936 57.6069 46.8569 57.5774 46.8255C57.5478 46.794 57.4669 46.8221 57.3966 46.8882C57.3263 46.9543 57.2933 47.0334 57.3229 47.0648C57.3524 47.0962 57.4334 47.0682 57.5037 47.0021Z" fill="#F4F6F9"/>
<path d="M56.5806 23.0767C58.8286 22.424 61.5179 19.8818 61.5179 19.8818L62.2074 20.6587C62.2074 20.6587 59.2239 23.4721 58.4516 25.2006" fill="#14C450"/>
<path d="M61.973 20.8885C61.7236 20.6381 61.5308 20.3371 61.4075 20.0059L61.5271 19.8956L62.2166 20.6725L61.973 20.8885Z" fill="#22A74F"/>
<path d="M63.0427 20.8277C63.2897 20.6088 63.1351 20.0309 62.6974 19.5368C62.2597 19.0427 61.7045 18.8196 61.4575 19.0385C61.2104 19.2573 61.365 19.8353 61.8028 20.3294C62.2405 20.8235 62.7957 21.0466 63.0427 20.8277Z" fill="#14C450"/>
<path d="M62.223 19.4057C62.2553 19.3601 62.1974 19.2637 62.0938 19.1903C61.9901 19.117 61.88 19.0946 61.8477 19.1401C61.8155 19.1857 61.8733 19.2821 61.977 19.3555C62.0806 19.4288 62.1907 19.4513 62.223 19.4057Z" fill="#F4F6F9"/>
<path d="M58.6447 39.194C59.6377 41.3087 62.566 43.575 62.566 43.575L61.904 44.3749C61.904 44.3749 58.6631 41.8649 56.8472 41.3684" fill="#14C450"/>
<path d="M61.642 44.1818C61.8522 43.8964 62.12 43.6583 62.4281 43.483L62.5568 43.5888L61.8948 44.3887L61.642 44.1818Z" fill="#22A74F"/>
<path d="M63.0771 44.6728C63.4973 44.1638 63.6316 43.5808 63.3771 43.3706C63.1226 43.1605 62.5756 43.4029 62.1553 43.9119C61.7351 44.421 61.6007 45.004 61.8553 45.2141C62.1098 45.4242 62.6568 45.1819 63.0771 44.6728Z" fill="#14C450"/>
<path d="M63.3285 44.0548C63.3849 43.9411 63.3901 43.8288 63.34 43.804C63.29 43.7791 63.2037 43.8512 63.1473 43.965C63.0909 44.0787 63.0858 44.191 63.1358 44.2158C63.1859 44.2406 63.2722 44.1685 63.3285 44.0548Z" fill="#F4F6F9"/>
<path d="M46.0534 44.6553C44.5042 46.4068 43.5939 49.9925 43.5939 49.9925L42.5918 49.7029C42.5918 49.7029 43.6077 45.731 43.3411 43.86" fill="#22A74F"/>
<path d="M42.6699 49.3857C43.0162 49.4696 43.3406 49.6264 43.6215 49.8454C43.6215 49.8454 43.5802 50.0017 43.5802 50.0017L42.578 49.7121C42.578 49.7121 42.6332 49.5282 42.6699 49.3857Z" fill="#00C708"/>
<path d="M44.0817 50.6634C44.1734 50.3463 43.7338 49.9406 43.0997 49.757C42.4656 49.5735 41.8772 49.6818 41.7854 49.9989C41.6937 50.3159 42.1333 50.7217 42.7674 50.9052C43.4015 51.0887 43.9899 50.9804 44.0817 50.6634Z" fill="#22A74F"/>
<path d="M43.6892 50.7846C43.6921 50.7288 43.5917 50.6783 43.4649 50.6718C43.3381 50.6652 43.233 50.7051 43.2301 50.7609C43.2272 50.8167 43.3277 50.8672 43.4544 50.8738C43.5812 50.8803 43.6863 50.8404 43.6892 50.7846Z" fill="#F4F6F9"/>
<path d="M37.3787 38.6194C35.0388 38.555 31.706 40.1594 31.706 40.1594L31.283 39.2032C31.283 39.2032 34.9607 37.4333 36.2479 36.0266" fill="#22A74F"/>
<path d="M31.5773 39.0515C31.74 39.3666 31.8325 39.7132 31.8485 40.0674L31.7014 40.1364L31.2784 39.1802L31.5773 39.0515Z" fill="#00C708"/>
<path d="M31.5118 40.9457C31.8138 40.8124 31.8425 40.2148 31.576 39.6109C31.3095 39.007 30.8487 38.6254 30.5468 38.7586C30.2448 38.8919 30.216 39.4895 30.4825 40.0934C30.749 40.6973 31.2098 41.0789 31.5118 40.9457Z" fill="#22A74F"/>
<path d="M31.1539 40.7513C31.1985 40.7177 31.1728 40.6083 31.0965 40.5069C31.0201 40.4055 30.922 40.3505 30.8774 40.3841C30.8328 40.4177 30.8585 40.5271 30.9349 40.6286C31.0112 40.73 31.1093 40.7849 31.1539 40.7513Z" fill="#F4F6F9"/>
<path d="M37.0064 26.805C35.7606 24.8236 32.5794 22.9342 32.5794 22.9342L33.1402 22.0516C33.1402 22.0516 36.6616 24.1525 38.5372 24.4283" fill="#22A74F"/>
<path d="M33.4069 22.2171C33.2329 22.5261 32.9946 22.7942 32.7081 23.0032L32.5702 22.9204L33.131 22.0378C33.131 22.0378 33.2781 22.1481 33.4069 22.2171Z" fill="#00C708"/>
<path d="M32.7885 22.9835C33.1449 22.429 33.2091 21.835 32.9319 21.6568C32.6547 21.4786 32.1409 21.7836 31.7845 22.3381C31.428 22.8926 31.3638 23.4866 31.641 23.6648C31.9183 23.843 32.432 23.538 32.7885 22.9835Z" fill="#22A74F"/>
<path d="M31.9329 22.6123C31.975 22.4925 31.9665 22.3804 31.9138 22.3619C31.8611 22.3433 31.7843 22.4253 31.7421 22.5451C31.6999 22.6648 31.7084 22.7769 31.7611 22.7955C31.8138 22.814 31.8907 22.732 31.9329 22.6123Z" fill="#F4F6F9"/>
<path d="M39.9255 23.4491C39.5164 21.6884 37.6775 19.5048 37.6775 19.5048L38.3073 19.0083C38.3073 19.0083 40.3438 21.431 41.6402 22.1022" fill="#22A74F"/>
<path d="M38.4728 19.1876C38.268 19.3698 38.0266 19.5062 37.7649 19.5876L37.6867 19.4864L38.3165 18.99L38.4728 19.1876Z" fill="#00C708"/>
<path d="M38.0424 19.3012C38.4429 18.9849 38.64 18.567 38.4827 18.3677C38.3253 18.1685 37.8731 18.2633 37.4726 18.5796C37.0721 18.8959 36.875 19.3138 37.0324 19.5131C37.1897 19.7123 37.642 19.6174 38.0424 19.3012Z" fill="#22A74F"/>
<path d="M37.3019 19.116C37.3619 19.0405 37.3833 18.9575 37.3495 18.9306C37.3157 18.9038 37.2397 18.9432 37.1796 19.0186C37.1195 19.0941 37.0982 19.1771 37.1319 19.204C37.1657 19.2309 37.2418 19.1915 37.3019 19.116Z" fill="#F4F6F9"/>
<path d="M36.2662 34.6521C34.5561 34.0637 31.7289 34.4728 31.7289 34.4728L31.6416 33.6729C31.6416 33.6729 34.7722 33.2132 36.0318 32.4823" fill="#22A74F"/>
<path d="M31.8898 33.6362C31.9365 33.9066 31.9256 34.1839 31.8577 34.4498H31.7289L31.6416 33.65L31.8898 33.6362Z" fill="#00C708"/>
<path d="M31.4081 35.0184C31.6604 34.9902 31.819 34.5562 31.7623 34.049C31.7056 33.5419 31.4551 33.1536 31.2028 33.1818C30.9504 33.21 30.7919 33.644 30.8486 34.1512C30.9053 34.6584 31.1558 35.0466 31.4081 35.0184Z" fill="#22A74F"/>
<path d="M31.1882 34.7898C31.2289 34.7754 31.2357 34.69 31.2034 34.599C31.1711 34.5081 31.1119 34.4461 31.0713 34.4606C31.0306 34.475 31.0238 34.5604 31.0561 34.6513C31.0884 34.7423 31.1475 34.8043 31.1882 34.7898Z" fill="#F4F6F9"/>
<path d="M42.4677 43.0555C40.9369 44.0117 39.4704 46.4619 39.4704 46.4619L38.7946 46.0298C38.7946 46.0298 40.422 43.313 40.6334 41.8695" fill="#22A74F"/>
<path d="M38.9187 45.8092C39.1559 45.943 39.3613 46.1264 39.5209 46.347L39.4566 46.4527L38.7808 46.0206L38.9187 45.8092Z" fill="#00C708"/>
<path d="M39.6918 47.0779C39.829 46.8643 39.5921 46.4676 39.1627 46.1918C38.7333 45.916 38.274 45.8657 38.1368 46.0793C37.9996 46.2929 38.2365 46.6897 38.6659 46.9654C39.0953 47.2412 39.5546 47.2916 39.6918 47.0779Z" fill="#22A74F"/>
<path d="M39.3706 47.0799C39.3851 47.0393 39.323 46.9801 39.2321 46.9479C39.1412 46.9156 39.0558 46.9225 39.0414 46.9632C39.0269 47.0038 39.0889 47.063 39.1799 47.0952C39.2708 47.1275 39.3562 47.1206 39.3706 47.0799Z" fill="#F4F6F9"/>
<path d="M51.3032 43.9611C50.9768 45.3816 51.5376 47.6112 51.5376 47.6112L50.9033 47.7491C50.9033 47.7491 50.2872 45.2759 49.5839 44.3335" fill="#22A74F"/>
<path d="M50.8527 47.5515C51.0649 47.4915 51.2874 47.4774 51.5055 47.5101L51.5285 47.6112L50.8941 47.7491L50.8527 47.5515Z" fill="#00C708"/>
<path d="M51.3515 48.3621C51.7533 48.2745 52.0436 48.0407 51.9999 47.8397C51.9561 47.6388 51.5948 47.5469 51.1929 47.6344C50.7911 47.722 50.5008 47.9558 50.5445 48.1568C50.5883 48.3577 50.9496 48.4496 51.3515 48.3621Z" fill="#22A74F"/>
<path d="M51.7286 48.1416C51.7997 48.1077 51.8449 48.0543 51.8296 48.0222C51.8143 47.9901 51.7443 47.9915 51.6733 48.0254C51.6022 48.0592 51.557 48.1127 51.5723 48.1447C51.5876 48.1768 51.6576 48.1754 51.7286 48.1416Z" fill="#F4F6F9"/>
<path d="M49.3357 44.4346C48.5863 46.0758 48.7197 48.9306 48.7197 48.9306H47.9152C47.9152 48.9306 47.7681 45.7724 47.1521 44.4484" fill="#22A74F"/>
<path d="M47.8968 48.6915C48.1702 48.6694 48.445 48.7086 48.7013 48.8065V48.9306H47.8968C47.8968 48.9306 47.906 48.8019 47.8968 48.6915Z" fill="#00C708"/>
<path d="M48.3246 49.7777C48.8349 49.7705 49.2456 49.5588 49.242 49.3049C49.2384 49.0511 48.8219 48.8511 48.3116 48.8583C47.8014 48.8656 47.3906 49.0772 47.3942 49.3311C47.3978 49.5849 47.8143 49.7849 48.3246 49.7777Z" fill="#22A74F"/>
<path d="M48.8314 49.5989C48.925 49.5756 48.9924 49.5227 48.982 49.4808C48.9715 49.4389 48.8872 49.4239 48.7936 49.4472C48.6999 49.4705 48.6325 49.5234 48.6429 49.5653C48.6534 49.6072 48.7377 49.6222 48.8314 49.5989Z" fill="#F4F6F9"/>
<path d="M35.9628 29.885C34.8044 29.0253 32.5472 28.6484 32.5472 28.6484L32.6759 28.0186C32.6759 28.0186 35.1721 28.4369 36.3122 28.1749" fill="#22A74F"/>
<path d="M32.869 28.0462C32.8371 28.2619 32.7604 28.4686 32.6438 28.653H32.5426L32.6713 28.0232L32.869 28.0462Z" fill="#00C708"/>
<path d="M32.6652 28.3416C32.7446 27.9432 32.6475 27.5881 32.4483 27.5484C32.2491 27.5087 32.0233 27.7995 31.9439 28.1979C31.8645 28.5963 31.9616 28.9514 32.1608 28.9911C32.36 29.0308 32.5858 28.74 32.6652 28.3416Z" fill="#22A74F"/>
<path d="M32.0713 28.7555C32.1069 28.7543 32.1335 28.6896 32.1309 28.611C32.1283 28.5323 32.0974 28.4695 32.0618 28.4707C32.0263 28.4719 31.9996 28.5366 32.0023 28.6152C32.0049 28.6939 32.0358 28.7567 32.0713 28.7555Z" fill="#F4F6F9"/>
<path d="M40.0542 41.1294C38.5786 41.5891 36.8363 43.3406 36.8363 43.3406L36.3766 42.8349C36.3766 42.8349 38.3027 40.9133 38.7854 39.7549" fill="#22A74F"/>
<path d="M36.5191 42.6786C36.6921 42.839 36.8258 43.0373 36.9098 43.2578L36.8317 43.3313L36.372 42.8257L36.5191 42.6786Z" fill="#00C708"/>
<path d="M36.8878 43.8968C37.0473 43.7477 36.9347 43.3682 36.6364 43.0493C36.3381 42.7304 35.967 42.5928 35.8075 42.742C35.6481 42.8911 35.7606 43.2706 36.059 43.5895C36.3573 43.9084 36.7284 44.046 36.8878 43.8968Z" fill="#22A74F"/>
<path d="M36.629 43.8309C36.6501 43.7992 36.6108 43.7358 36.5411 43.6893C36.4714 43.6428 36.3978 43.6308 36.3767 43.6624C36.3555 43.6941 36.3949 43.7575 36.4645 43.804C36.5342 43.8505 36.6079 43.8626 36.629 43.8309Z" fill="#F4F6F9"/>
<path d="M27.12 16.032C28.112 16.544 28.608 17.36 28.608 18.48C28.608 19.152 28.368 19.808 27.888 20.448C27.376 21.12 26.72 21.456 25.92 21.456C25.376 21.456 24.832 21.312 24.288 21.024C22.72 20.288 21.024 19.92 19.2 19.92C16.96 19.92 15.008 20.4 13.344 21.36C11.68 22.288 10.4 23.616 9.504 25.344C8.608 27.04 8.16 28.992 8.16 31.2C8.16 34.976 9.168 37.84 11.184 39.792C13.232 41.744 15.904 42.72 19.2 42.72C21.152 42.72 22.848 42.352 24.288 41.616C24.864 41.36 25.376 41.232 25.824 41.232C26.656 41.232 27.36 41.584 27.936 42.288C28.416 42.896 28.656 43.552 28.656 44.256C28.656 44.768 28.528 45.232 28.272 45.648C28.016 46.064 27.648 46.384 27.168 46.608C24.672 47.856 22.016 48.48 19.2 48.48C16.064 48.48 13.184 47.824 10.56 46.512C7.936 45.168 5.84 43.2 4.272 40.608C2.704 38.016 1.92 34.88 1.92 31.2C1.92 27.936 2.656 25.008 4.128 22.416C5.632 19.824 7.696 17.808 10.32 16.368C12.944 14.896 15.904 14.16 19.2 14.16C22.048 14.16 24.688 14.784 27.12 16.032Z" fill="#073BC8"/>
<path d="M94.128 14.304C94.928 14.304 95.616 14.576 96.192 15.12C96.8 15.664 97.104 16.32 97.104 17.088C97.104 17.504 97.008 17.936 96.816 18.384L84.96 46.128C84.672 46.736 84.272 47.2 83.76 47.52C83.248 47.84 82.704 48 82.128 48C81.584 47.968 81.072 47.808 80.592 47.52C80.144 47.2 79.792 46.752 79.536 46.176L67.68 18.336C67.52 18.016 67.44 17.616 67.44 17.136C67.44 16.272 67.76 15.584 68.4 15.072C69.04 14.528 69.696 14.256 70.368 14.256C70.912 14.256 71.424 14.416 71.904 14.736C72.384 15.056 72.752 15.52 73.008 16.128L82.656 38.832L91.488 16.128C91.744 15.552 92.112 15.104 92.592 14.784C93.072 14.464 93.584 14.304 94.128 14.304ZM108.131 45.072C108.131 45.904 107.827 46.608 107.219 47.184C106.611 47.728 105.907 48 105.107 48C104.243 48 103.523 47.728 102.947 47.184C102.403 46.608 102.131 45.904 102.131 45.072V17.328C102.131 16.496 102.419 15.808 102.995 15.264C103.571 14.688 104.307 14.4 105.203 14.4C106.003 14.4 106.691 14.688 107.267 15.264C107.843 15.808 108.131 16.496 108.131 17.328V45.072ZM129.75 14.4C132.758 14.4 135.334 15.152 137.478 16.656C139.654 18.128 141.302 20.144 142.422 22.704C143.574 25.232 144.15 28.064 144.15 31.2C144.15 34.336 143.574 37.184 142.422 39.744C141.302 42.272 139.654 44.288 137.478 45.792C135.334 47.264 132.758 48 129.75 48H118.278C117.446 48 116.742 47.728 116.166 47.184C115.622 46.608 115.35 45.904 115.35 45.072V17.328C115.35 16.496 115.622 15.808 116.166 15.264C116.742 14.688 117.446 14.4 118.278 14.4H129.75ZM129.27 42.48C132.15 42.48 134.31 41.424 135.75 39.312C137.19 37.168 137.91 34.464 137.91 31.2C137.91 27.936 137.174 25.248 135.702 23.136C134.262 20.992 132.118 19.92 129.27 19.92H121.35V42.48H129.27ZM151.391 36.144C150.559 36.144 149.855 35.872 149.279 35.328C148.735 34.784 148.463 34.096 148.463 33.264C148.463 32.464 148.735 31.792 149.279 31.248C149.855 30.704 150.559 30.432 151.391 30.432H159.743C160.575 30.432 161.263 30.72 161.807 31.296C162.383 31.84 162.671 32.528 162.671 33.36C162.671 34.16 162.383 34.832 161.807 35.376C161.263 35.888 160.575 36.144 159.743 36.144H151.391ZM176.134 14.4C176.934 14.4 177.606 14.688 178.15 15.264C178.694 15.808 178.966 16.496 178.966 17.328V45.072C178.966 45.904 178.662 46.608 178.054 47.184C177.446 47.728 176.694 48 175.798 48C174.902 48 174.166 47.728 173.59 47.184C173.014 46.608 172.726 45.904 172.726 45.072V22.32L169.75 24.144C169.27 24.432 168.758 24.576 168.214 24.576C167.414 24.576 166.726 24.272 166.15 23.664C165.606 23.056 165.334 22.384 165.334 21.648C165.334 21.136 165.462 20.656 165.718 20.208C166.006 19.76 166.374 19.408 166.822 19.152L174.07 14.832C174.614 14.544 175.302 14.4 176.134 14.4ZM195.682 13.776C197.89 13.776 199.858 14.4 201.586 15.648C203.314 16.864 204.642 18.48 205.57 20.496C206.498 22.48 206.962 24.608 206.962 26.88C206.962 29.216 206.546 31.792 205.714 34.608C204.914 37.392 203.426 40.032 201.25 42.528C199.106 45.024 196.178 46.8 192.466 47.856C192.082 47.952 191.714 48 191.362 48C190.53 48 189.842 47.792 189.298 47.376C188.754 46.928 188.482 46.24 188.482 45.312C188.482 44.608 188.706 44 189.154 43.488C189.634 42.944 190.258 42.56 191.026 42.336C193.042 41.76 194.898 40.736 196.594 39.264C198.322 37.792 199.586 36.032 200.386 33.984C198.786 35.36 196.962 36.048 194.914 36.048C193.25 36.048 191.602 35.552 189.97 34.56C188.37 33.536 187.058 32.176 186.034 30.48C185.01 28.752 184.498 26.896 184.498 24.912C184.498 22.896 184.994 21.04 185.986 19.344C187.01 17.616 188.37 16.256 190.066 15.264C191.762 14.272 193.634 13.776 195.682 13.776ZM195.682 30.768C197.218 30.768 198.498 30.208 199.522 29.088C200.578 27.968 201.106 26.576 201.106 24.912C201.106 23.248 200.578 21.856 199.522 20.736C198.498 19.616 197.218 19.056 195.682 19.056C194.178 19.056 192.898 19.616 191.842 20.736C190.786 21.856 190.258 23.248 190.258 24.912C190.258 26.576 190.786 27.968 191.842 29.088C192.898 30.208 194.178 30.768 195.682 30.768Z" fill="#073BC8"/>
</svg>
