<svg width="61" height="64" viewBox="0 0 61 64" fill="none" xmlns="http://www.w3.org/2000/svg">
<path d="M30.4472 53.2832C41.9972 53.2832 51.3604 43.9201 51.3604 32.37C51.3604 20.82 41.9972 11.4568 30.4472 11.4568C18.8972 11.4568 9.53402 20.82 9.53402 32.37C9.53402 43.9201 18.8972 53.2832 30.4472 53.2832Z" fill="#02DF40"/>
<path d="M38.557 51.5982C33.5675 53.7517 27.9358 53.8792 22.8539 51.9537C17.772 50.0281 13.6388 46.2007 11.3292 41.2814C9.01954 36.3622 8.71472 30.7373 10.4792 25.5973C12.2437 20.4573 15.9391 16.2056 20.7831 13.7421C17.7872 16.9495 15.7937 20.9624 15.0477 25.2875C14.3017 29.6126 14.8357 34.0614 16.5842 38.0871C18.3326 42.1127 21.2192 45.5398 24.8891 47.947C28.559 50.3543 32.8523 51.6367 37.2413 51.6367C37.6799 51.6367 38.1184 51.6213 38.557 51.5982Z" fill="#03B253"/>
<path d="M36.2795 21.4517C37.3716 21.4517 38.257 20.5664 38.257 19.4743C38.257 18.3822 37.3716 17.4969 36.2795 17.4969C35.1874 17.4969 34.3021 18.3822 34.3021 19.4743C34.3021 20.5664 35.1874 21.4517 36.2795 21.4517Z" fill="#22A74F"/>
<path d="M18.3671 22.6983C19.4592 22.6983 20.3446 21.8129 20.3446 20.7208C20.3446 19.6287 19.4592 18.7434 18.3671 18.7434C17.275 18.7434 16.3897 19.6287 16.3897 20.7208C16.3897 21.8129 17.275 22.6983 18.3671 22.6983Z" fill="#F4F6F9"/>
<path d="M25.4459 20.9593C26.266 20.9593 26.9309 20.2945 26.9309 19.4743C26.9309 18.6542 26.266 17.9893 25.4459 17.9893C24.6257 17.9893 23.9609 18.6542 23.9609 19.4743C23.9609 20.2945 24.6257 20.9593 25.4459 20.9593Z" fill="#F4F6F9"/>
<path d="M28.1543 33.4549C29.9858 33.4549 31.4706 31.9701 31.4706 30.1386C31.4706 28.3071 29.9858 26.8224 28.1543 26.8224C26.3228 26.8224 24.8381 28.3071 24.8381 30.1386C24.8381 31.9701 26.3228 33.4549 28.1543 33.4549Z" fill="#22A74F"/>
<path d="M17.0206 40.0489C18.8521 40.0489 20.3369 38.5642 20.3369 36.7327C20.3369 34.9012 18.8521 33.4164 17.0206 33.4164C15.1891 33.4164 13.7044 34.9012 13.7044 36.7327C13.7044 38.5642 15.1891 40.0489 17.0206 40.0489Z" fill="#F4F6F9"/>
<path d="M32.3939 45.2581C34.2254 45.2581 35.7101 43.7733 35.7101 41.9418C35.7101 40.1103 34.2254 38.6255 32.3939 38.6255C30.5624 38.6255 29.0776 40.1103 29.0776 41.9418C29.0776 43.7733 30.5624 45.2581 32.3939 45.2581Z" fill="#22A74F"/>
<path d="M42.9582 41.9418C44.0503 41.9418 44.9357 41.0565 44.9357 39.9644C44.9357 38.8723 44.0503 37.987 42.9582 37.987C41.8661 37.987 40.9808 38.8723 40.9808 39.9644C40.9808 41.0565 41.8661 41.9418 42.9582 41.9418Z" fill="#00C708"/>
<path d="M22.3297 47.7356C23.1498 47.7356 23.8147 47.0708 23.8147 46.2506C23.8147 45.4305 23.1498 44.7656 22.3297 44.7656C21.5096 44.7656 20.8447 45.4305 20.8447 46.2506C20.8447 47.0708 21.5096 47.7356 22.3297 47.7356Z" fill="#00C708"/>
<path d="M17.6131 30.9466C18.4332 30.9466 19.0981 30.2817 19.0981 29.4616C19.0981 28.6414 18.4332 27.9766 17.6131 27.9766C16.7929 27.9766 16.1281 28.6414 16.1281 29.4616C16.1281 30.2817 16.7929 30.9466 17.6131 30.9466Z" fill="#00C708"/>
<path d="M40.9807 29.9848C42.0728 29.9848 42.9582 29.0995 42.9582 28.0074C42.9582 26.9153 42.0728 26.0299 40.9807 26.0299C39.8886 26.0299 39.0033 26.9153 39.0033 28.0074C39.0033 29.0995 39.8886 29.9848 40.9807 29.9848Z" fill="#00C708"/>
<path d="M28.1543 11.5799C29.824 8.04055 29.6239 1.8466 29.6239 1.8466H31.3706C31.3706 1.8466 31.586 8.70225 32.9094 11.5953" fill="#14C450"/>
<path d="M31.3936 2.39291C30.8007 2.42857 30.2072 2.33402 29.6547 2.11591V1.8466H31.4013C31.4013 1.8466 31.3859 2.15438 31.3936 2.39291Z" fill="#22A74F"/>
<path d="M30.5241 2.00054C31.629 2.00054 32.5247 1.55271 32.5247 1.00027C32.5247 0.447839 31.629 0 30.5241 0C29.4193 0 28.5236 0.447839 28.5236 1.00027C28.5236 1.55271 29.4193 2.00054 30.5241 2.00054Z" fill="#14C450"/>
<path d="M29.5093 0.688198C29.7162 0.639751 29.8666 0.526695 29.8453 0.435667C29.824 0.344639 29.639 0.31012 29.4321 0.358567C29.2252 0.407015 29.0748 0.520083 29.0961 0.61111C29.1175 0.702138 29.3024 0.736646 29.5093 0.688198Z" fill="#F4F6F9"/>
<path d="M35.3408 12.4109C37.4645 10.2873 38.9341 5.75531 38.9341 5.75531L40.1959 6.21697C40.1959 6.21697 38.5648 11.226 38.7571 13.6497" fill="#14C450"/>
<path d="M40.0728 6.61708C39.6358 6.48603 39.2317 6.26305 38.8879 5.96308L38.9572 5.76302L40.219 6.22468L40.0728 6.61708Z" fill="#22A74F"/>
<path d="M41.2453 5.88797C41.3893 5.48817 40.8579 4.93058 40.0583 4.64255C39.2587 4.35452 38.4937 4.44512 38.3497 4.84492C38.2057 5.24472 38.7371 5.80231 39.5367 6.09034C40.3364 6.37837 41.1013 6.28776 41.2453 5.88797Z" fill="#14C450"/>
<path d="M39.4347 4.78347C39.443 4.71171 39.3197 4.63841 39.1593 4.61977C38.9989 4.60113 38.8621 4.64419 38.8538 4.71595C38.8454 4.78771 38.9687 4.86099 39.1291 4.87963C39.2895 4.89827 39.4263 4.85523 39.4347 4.78347Z" fill="#F4F6F9"/>
<path d="M39.842 14.3653C42.0503 13.0111 44.1893 9.51788 44.1893 9.51788L45.1511 10.1488C45.1511 10.1488 42.7813 13.996 42.4581 16.0965" fill="#14C450"/>
<path d="M44.9664 10.4643C44.6267 10.2734 44.3327 10.0108 44.1046 9.69484L44.2047 9.54095L45.1665 10.1719L44.9664 10.4643Z" fill="#22A74F"/>
<path d="M46.1039 10.112C46.3042 9.80641 45.9712 9.23379 45.3599 8.83303C44.7487 8.43228 44.0907 8.35515 43.8903 8.66078C43.69 8.9664 44.023 9.53905 44.6343 9.9398C45.2455 10.3406 45.9035 10.4177 46.1039 10.112Z" fill="#14C450"/>
<path d="M44.8171 8.82033C44.8389 8.76045 44.7499 8.67291 44.6182 8.62478C44.4864 8.57666 44.3619 8.58618 44.3401 8.64605C44.3182 8.70592 44.4072 8.79347 44.539 8.84159C44.6707 8.88972 44.7952 8.8802 44.8171 8.82033Z" fill="#F4F6F9"/>
<path d="M22.0758 13.8729C22.3759 11.3337 20.9601 7.48657 20.9601 7.48657L22.0527 7.11725C22.0527 7.11725 23.6377 11.3722 25.0689 12.9111" fill="#14C450"/>
<path d="M22.1604 7.42503C21.7966 7.57114 21.4055 7.63677 21.014 7.6174L20.9601 7.48659L22.0527 7.11725L22.1604 7.42503Z" fill="#22A74F"/>
<path d="M21.5387 7.36335C22.2311 7.1295 22.6977 6.65924 22.5808 6.31299C22.4639 5.96675 21.8077 5.87564 21.1152 6.1095C20.4228 6.34335 19.9562 6.81361 20.0731 7.15986C20.19 7.5061 20.8462 7.59721 21.5387 7.36335Z" fill="#14C450"/>
<path d="M20.6217 6.74751C20.7408 6.67353 20.8101 6.56966 20.7765 6.51551C20.7428 6.46136 20.619 6.47744 20.4999 6.55141C20.3808 6.62539 20.3114 6.72926 20.3451 6.78341C20.3787 6.83756 20.5025 6.82149 20.6217 6.74751Z" fill="#F4F6F9"/>
<path d="M50.2986 28.0843C52.7531 28.9153 56.808 28.3228 56.808 28.3228L56.9388 29.4693C56.9388 29.4693 52.4453 30.1233 50.6372 31.2005" fill="#14C450"/>
<path d="M56.5772 29.5308C56.5125 29.1445 56.5282 28.749 56.6234 28.369H56.808L56.9388 29.5155L56.5772 29.5308Z" fill="#22A74F"/>
<path d="M57.5726 30.1731C57.9357 30.1318 58.1631 29.5096 58.0805 28.7834C57.9979 28.0571 57.6366 27.5019 57.2735 27.5432C56.9103 27.5845 56.683 28.2067 56.7656 28.933C56.8482 29.6592 57.2095 30.2144 57.5726 30.1731Z" fill="#14C450"/>
<path d="M57.7431 28.3639C57.8031 28.3424 57.8135 28.218 57.7663 28.0859C57.7191 27.9539 57.6322 27.8642 57.5721 27.8857C57.5121 27.9071 57.5017 28.0316 57.5489 28.1636C57.5961 28.2957 57.683 28.3853 57.7431 28.3639Z" fill="#F4F6F9"/>
<path d="M50.7526 32.4162C52.9685 33.755 57.0619 34.0397 57.0619 34.0397L56.9465 35.1939C56.9465 35.1939 52.4145 34.8707 50.4294 35.5324" fill="#14C450"/>
<path d="M56.5849 35.1862C56.6008 34.7927 56.7005 34.4071 56.8772 34.0551H57.0619L56.9465 35.2093L56.5849 35.1862Z" fill="#22A74F"/>
<path d="M58.2109 34.752C58.2852 34.0248 58.0507 33.4053 57.6871 33.3682C57.3235 33.3311 56.9686 33.8904 56.8944 34.6175C56.8201 35.3447 57.0547 35.9642 57.4182 36.0014C57.7818 36.0385 58.1367 35.4791 58.2109 34.752Z" fill="#14C450"/>
<path d="M57.9805 34.2635C58.0437 34.2554 58.0804 34.136 58.0625 33.9969C58.0445 33.8578 57.9787 33.7517 57.9155 33.7599C57.8523 33.768 57.8156 33.8874 57.8335 34.0264C57.8515 34.1655 57.9173 34.2717 57.9805 34.2635Z" fill="#F4F6F9"/>
<path d="M48.929 40.7877C50.3986 42.919 54.0073 44.8656 54.0073 44.8656L53.4225 45.8582C53.4225 45.8582 49.4292 43.7038 47.344 43.4884" fill="#14C450"/>
<path d="M53.107 45.6966C53.2847 45.3463 53.5337 45.0371 53.838 44.7887L53.9995 44.881L53.4148 45.8736L53.107 45.6966Z" fill="#22A74F"/>
<path d="M54.7642 45.9749C55.1315 45.343 55.1731 44.6818 54.8572 44.4982C54.5412 44.3145 53.9873 44.6779 53.62 45.3098C53.2527 45.9417 53.211 46.6028 53.527 46.7865C53.8429 46.9702 54.3968 46.6068 54.7642 45.9749Z" fill="#14C450"/>
<path d="M54.912 45.2177C54.953 45.0836 54.9368 44.9598 54.8759 44.9411C54.8149 44.9225 54.7323 45.0161 54.6913 45.1502C54.6503 45.2844 54.6665 45.4082 54.7275 45.4268C54.7884 45.4454 54.8711 45.3518 54.912 45.2177Z" fill="#F4F6F9"/>
<path d="M48.8675 23.2599C51.8683 23.5216 56.2771 21.7211 56.2771 21.7211L56.7388 22.9829C56.7388 22.9829 51.8529 24.9604 50.1216 26.6685" fill="#14C450"/>
<path d="M56.354 23.1523C56.1712 22.7353 56.0793 22.2841 56.0847 21.8288L56.2848 21.7519L56.7465 23.0138L56.354 23.1523Z" fill="#22A74F"/>
<path d="M57.6617 23.5786C58.0604 23.4313 58.1448 22.6657 57.8504 21.8684C57.556 21.0712 56.9941 20.5442 56.5955 20.6914C56.1969 20.8387 56.1124 21.6043 56.4068 22.4016C56.7013 23.1988 57.2631 23.7258 57.6617 23.5786Z" fill="#14C450"/>
<path d="M57.3385 21.4863C57.3988 21.4465 57.3755 21.305 57.2865 21.1702C57.1974 21.0355 57.0764 20.9586 57.0162 20.9984C56.9559 21.0382 56.9792 21.1797 57.0682 21.3144C57.1572 21.4492 57.2782 21.5261 57.3385 21.4863Z" fill="#F4F6F9"/>
<path d="M50.5064 36.8712C52.6685 38.9563 57.2158 40.3413 57.2158 40.3413L56.7926 41.6109C56.7926 41.6109 51.7451 40.072 49.3214 40.3105" fill="#14C450"/>
<path d="M56.354 41.4879C56.4754 41.0485 56.6878 40.6396 56.9773 40.2875L57.1773 40.3568L56.7541 41.6264L56.354 41.4879Z" fill="#22A74F"/>
<path d="M58.8041 40.6732C59.0761 39.8658 58.9693 39.101 58.5656 38.965C58.1619 38.8291 57.6142 39.3733 57.3422 40.1807C57.0703 40.9881 57.1771 41.7529 57.5808 41.8889C57.9845 42.0249 58.5322 41.4806 58.8041 40.6732Z" fill="#14C450"/>
<path d="M60.2259 40.2822C60.242 40.1207 60.1965 39.9839 60.1243 39.9767C60.052 39.9695 59.9804 40.0945 59.9642 40.256C59.9481 40.4175 59.9936 40.5542 60.0658 40.5615C60.138 40.5687 60.2097 40.4436 60.2259 40.2822Z" fill="#F4F6F9"/>
<path d="M42.5581 48.9744C42.812 51.9752 45.3281 56.007 45.3281 56.007L44.1662 56.6841C44.1662 56.6841 41.3809 52.206 39.4111 50.7825" fill="#14C450"/>
<path d="M43.9431 56.3301C44.324 56.0797 44.7544 55.9144 45.205 55.8454L45.3127 56.0224L44.1508 56.6995L43.9431 56.3301Z" fill="#22A74F"/>
<path d="M45.4406 57.5817C46.1761 57.156 46.5999 56.5127 46.387 56.1449C46.1742 55.7771 45.4053 55.8241 44.6697 56.2498C43.9341 56.6755 43.5104 57.3188 43.7232 57.6866C43.9361 58.0543 44.705 58.0074 45.4406 57.5817Z" fill="#14C450"/>
<path d="M46.0343 56.911C46.152 56.8004 46.2072 56.6681 46.1577 56.6154C46.1082 56.5628 45.9728 56.6098 45.8551 56.7205C45.7375 56.8311 45.6822 56.9634 45.7317 57.016C45.7812 57.0687 45.9167 57.0217 46.0343 56.911Z" fill="#F4F6F9"/>
<path d="M44.4894 16.866C48.2519 15.7734 52.7531 11.5184 52.7531 11.5184L53.9073 12.8188C53.9073 12.8188 48.9136 17.5277 47.621 20.4208" fill="#14C450"/>
<path d="M53.5148 13.2034C53.0974 12.7843 52.7747 12.2805 52.5684 11.7261L52.7685 11.5415L53.9226 12.8418L53.5148 13.2034Z" fill="#22A74F"/>
<path d="M55.3053 13.1017C55.7188 12.7353 55.46 11.7679 54.7274 10.941C53.9947 10.114 53.0655 9.74057 52.6521 10.1069C52.2386 10.4732 52.4973 11.4406 53.23 12.2676C53.9627 13.0946 54.8918 13.468 55.3053 13.1017Z" fill="#14C450"/>
<path d="M53.9334 10.7215C53.9874 10.6452 53.8905 10.4838 53.7171 10.3611C53.5436 10.2384 53.3592 10.2008 53.3052 10.2771C53.2512 10.3534 53.3481 10.5148 53.5215 10.6375C53.695 10.7602 53.8794 10.7978 53.9334 10.7215Z" fill="#F4F6F9"/>
<path d="M47.9441 43.8423C49.6061 47.3817 54.5074 51.175 54.5074 51.175L53.3994 52.5138C53.3994 52.5138 47.9749 48.3127 44.9357 47.4818" fill="#14C450"/>
<path d="M52.9609 52.1906C53.3126 51.7129 53.7609 51.3144 54.2766 51.0211L54.492 51.1981L53.3841 52.5369L52.9609 52.1906Z" fill="#22A74F"/>
<path d="M55.3628 53.0125C56.0662 52.1605 56.291 51.1846 55.865 50.8329C55.439 50.4813 54.5234 50.8869 53.8201 51.7389C53.1167 52.591 52.8918 53.5668 53.3179 53.9185C53.7439 54.2702 54.6595 53.8645 55.3628 53.0125Z" fill="#14C450"/>
<path d="M55.7837 51.9781C55.8781 51.7877 55.8867 51.5997 55.8029 51.5582C55.7192 51.5167 55.5748 51.6373 55.4804 51.8277C55.386 52.018 55.3774 52.206 55.4612 52.2475C55.5449 52.2891 55.6893 52.1684 55.7837 51.9781Z" fill="#F4F6F9"/>
<path d="M26.8693 52.9832C24.2764 55.9147 22.7529 61.9163 22.7529 61.9163L21.0755 61.4315C21.0755 61.4315 22.776 54.7836 22.3297 51.652" fill="#22A74F"/>
<path d="M21.2063 60.9006C21.7858 61.0412 22.3288 61.3034 22.7991 61.6701C22.7991 61.6701 22.7298 61.9317 22.7298 61.9317L21.0524 61.4469C21.0524 61.4469 21.1448 61.1391 21.2063 60.9006Z" fill="#00C708"/>
<path d="M23.5692 63.0392C23.7228 62.5085 22.9869 61.8294 21.9256 61.5222C20.8643 61.2151 19.8794 61.3963 19.7259 61.927C19.5723 62.4576 20.3082 63.1368 21.3695 63.4439C22.4308 63.7511 23.4157 63.5699 23.5692 63.0392Z" fill="#22A74F"/>
<path d="M22.9124 63.2421C22.9172 63.1488 22.7491 63.0642 22.5369 63.0532C22.3247 63.0422 22.1488 63.109 22.1439 63.2024C22.1391 63.2958 22.3072 63.3804 22.5194 63.3913C22.7316 63.4023 22.9075 63.3355 22.9124 63.2421Z" fill="#F4F6F9"/>
<path d="M12.3502 42.8805C8.43376 42.7728 2.85537 45.4581 2.85537 45.4581L2.14749 43.8577C2.14749 43.8577 8.30296 40.8954 10.4574 38.5409" fill="#22A74F"/>
<path d="M2.63994 43.6037C2.91231 44.1311 3.06718 44.7112 3.0939 45.3042L2.84769 45.4196L2.1398 43.8192L2.63994 43.6037Z" fill="#00C708"/>
<path d="M2.53038 46.7741C3.03579 46.5511 3.08392 45.5509 2.63788 44.5401C2.19184 43.5292 1.42054 42.8906 0.915132 43.1136C0.40972 43.3366 0.361587 44.3369 0.807625 45.3477C1.25366 46.3585 2.02497 46.9971 2.53038 46.7741Z" fill="#22A74F"/>
<path d="M1.93139 46.4489C2.00608 46.3927 1.96301 46.2095 1.8352 46.0397C1.70739 45.87 1.54323 45.778 1.46855 45.8342C1.39386 45.8905 1.43693 46.0737 1.56474 46.2434C1.69256 46.4131 1.85671 46.5051 1.93139 46.4489Z" fill="#F4F6F9"/>
<path d="M11.7269 23.1061C9.64175 19.7898 4.31726 16.6275 4.31726 16.6275L5.25597 15.1501C5.25597 15.1501 11.1498 18.6665 14.2891 19.1281" fill="#22A74F"/>
<path d="M5.70225 15.4271C5.41105 15.9443 5.01222 16.393 4.53271 16.7428L4.3019 16.6043L5.2406 15.127C5.2406 15.127 5.48681 15.3117 5.70225 15.4271Z" fill="#00C708"/>
<path d="M4.66723 16.7099C5.26385 15.7818 5.37133 14.7876 4.90728 14.4893C4.44324 14.191 3.5834 14.7015 2.98677 15.6296C2.39014 16.5577 2.28266 17.5519 2.74671 17.8502C3.21075 18.1485 4.0706 17.638 4.66723 16.7099Z" fill="#22A74F"/>
<path d="M3.23515 16.0886C3.30572 15.8882 3.29145 15.7005 3.20327 15.6695C3.11509 15.6384 2.98639 15.7757 2.91582 15.9761C2.84524 16.1765 2.85952 16.3642 2.9477 16.3952C3.03588 16.4263 3.16457 16.289 3.23515 16.0886Z" fill="#F4F6F9"/>
<path d="M16.6128 17.4892C15.928 14.5423 12.8503 10.8874 12.8503 10.8874L13.9044 10.0565C13.9044 10.0565 17.313 14.1114 19.4828 15.2348" fill="#22A74F"/>
<path d="M14.1814 10.3566C13.8386 10.6615 13.4346 10.8897 12.9965 11.026L12.8657 10.8567L13.9198 10.0257L14.1814 10.3566Z" fill="#00C708"/>
<path d="M13.4611 10.5466C14.1314 10.0172 14.4613 9.3177 14.1979 8.98421C13.9345 8.65072 13.1776 8.80952 12.5073 9.3389C11.837 9.86829 11.5071 10.5678 11.7705 10.9013C12.0338 11.2348 12.7907 11.076 13.4611 10.5466Z" fill="#22A74F"/>
<path d="M12.2215 10.2366C12.3221 10.1103 12.3578 9.9714 12.3013 9.92641C12.2448 9.88142 12.1174 9.94737 12.0168 10.0737C11.9163 10.2 11.8806 10.3389 11.9371 10.3839C11.9936 10.4289 12.1209 10.363 12.2215 10.2366Z" fill="#F4F6F9"/>
<path d="M10.4881 36.2403C7.62582 35.2554 2.89381 35.9402 2.89381 35.9402L2.74761 34.6014C2.74761 34.6014 7.98746 33.832 10.0957 32.6086" fill="#22A74F"/>
<path d="M3.16312 34.5398C3.24126 34.9925 3.22291 35.4566 3.10927 35.9017H2.89381L2.74761 34.5629L3.16312 34.5398Z" fill="#00C708"/>
<path d="M2.35682 36.8534C2.77913 36.8062 3.04454 36.0797 2.94962 35.2309C2.85471 34.382 2.43542 33.7322 2.01311 33.7794C1.59079 33.8266 1.32539 34.553 1.4203 35.4019C1.51521 36.2507 1.93451 36.9006 2.35682 36.8534Z" fill="#22A74F"/>
<path d="M1.98872 36.4708C2.0568 36.4466 2.06818 36.3036 2.01414 36.1515C1.9601 35.9993 1.86111 35.8955 1.79303 35.9197C1.72495 35.9439 1.71357 36.0868 1.76761 36.239C1.82165 36.3912 1.92064 36.4949 1.98872 36.4708Z" fill="#F4F6F9"/>
<path d="M20.8678 50.3055C18.3056 51.9059 15.8511 56.007 15.8511 56.007L14.72 55.2837C14.72 55.2837 17.4438 50.7364 17.7977 48.3204" fill="#22A74F"/>
<path d="M14.9278 54.9144C15.3247 55.1383 15.6685 55.4454 15.9357 55.8146L15.828 55.9916L14.6969 55.2683L14.9278 54.9144Z" fill="#00C708"/>
<path d="M16.2216 57.038C16.4513 56.6805 16.0548 56.0164 15.3361 55.5549C14.6174 55.0933 13.8487 55.009 13.619 55.3665C13.3894 55.7241 13.7859 56.3881 14.5045 56.8497C15.2232 57.3113 15.992 57.3956 16.2216 57.038Z" fill="#22A74F"/>
<path d="M15.6841 57.0414C15.7083 56.9733 15.6045 56.8744 15.4523 56.8204C15.3001 56.7664 15.1571 56.7778 15.133 56.8459C15.1088 56.914 15.2126 57.0129 15.3648 57.0669C15.517 57.1209 15.66 57.1095 15.6841 57.0414Z" fill="#F4F6F9"/>
<path d="M35.6562 51.8212C35.11 54.1988 36.0486 57.9306 36.0486 57.9306L34.9868 58.1614C34.9868 58.1614 33.9558 54.0218 32.7786 52.4445" fill="#22A74F"/>
<path d="M34.9022 57.8306C35.2574 57.7302 35.6299 57.7066 35.9948 57.7613L36.0333 57.9306L34.9715 58.1614L34.9022 57.8306Z" fill="#00C708"/>
<path d="M35.7371 59.1874C36.4097 59.0409 36.8956 58.6494 36.8223 58.3131C36.7491 57.9768 36.1444 57.8229 35.4717 57.9695C34.7991 58.116 34.3132 58.5074 34.3865 58.8438C34.4598 59.1801 35.0644 59.3339 35.7371 59.1874Z" fill="#22A74F"/>
<path d="M36.3684 58.8183C36.4873 58.7616 36.563 58.6722 36.5374 58.6185C36.5118 58.5648 36.3946 58.5671 36.2757 58.6238C36.1568 58.6804 36.0811 58.7699 36.1067 58.8236C36.1323 58.8773 36.2494 58.8749 36.3684 58.8183Z" fill="#F4F6F9"/>
<path d="M32.3631 52.6138C31.1089 55.3607 31.3321 60.1389 31.3321 60.1389H29.9856C29.9856 60.1389 29.7394 54.8528 28.7083 52.6369" fill="#22A74F"/>
<path d="M29.9548 59.7388C30.4123 59.7017 30.8724 59.7674 31.3013 59.9311V60.1389H29.9548C29.9548 60.1389 29.9702 59.9234 29.9548 59.7388Z" fill="#00C708"/>
<path d="M30.6709 61.5567C31.5249 61.5446 32.2124 61.1904 32.2064 60.7655C32.2004 60.3406 31.5032 60.0059 30.6491 60.018C29.7951 60.0301 29.1076 60.3843 29.1136 60.8092C29.1196 61.2341 29.8168 61.5688 30.6709 61.5567Z" fill="#22A74F"/>
<path d="M31.519 61.2575C31.6757 61.2184 31.7886 61.13 31.7711 61.0599C31.7537 60.9898 31.6125 60.9646 31.4558 61.0036C31.2991 61.0426 31.1862 61.1311 31.2037 61.2012C31.2211 61.2713 31.3623 61.2965 31.519 61.2575Z" fill="#F4F6F9"/>
<path d="M9.98029 28.2613C8.04132 26.8224 4.26341 26.1915 4.26341 26.1915L4.47885 25.1374C4.47885 25.1374 8.65687 25.8376 10.5651 25.399" fill="#22A74F"/>
<path d="M4.80203 25.1835C4.7486 25.5447 4.62016 25.8906 4.42499 26.1992H4.25571L4.47117 25.1451L4.80203 25.1835Z" fill="#00C708"/>
<path d="M4.46096 25.6781C4.59383 25.0113 4.43129 24.4168 4.09789 24.3504C3.76449 24.284 3.38649 24.7707 3.25362 25.4375C3.12074 26.1043 3.2833 26.6987 3.6167 26.7651C3.9501 26.8316 4.32808 26.3449 4.46096 25.6781Z" fill="#22A74F"/>
<path d="M3.46691 26.3708C3.52636 26.3689 3.571 26.2605 3.56661 26.1289C3.56222 25.9972 3.51047 25.8921 3.45101 25.8941C3.39155 25.896 3.34691 26.0044 3.3513 26.136C3.35569 26.2677 3.40745 26.3728 3.46691 26.3708Z" fill="#F4F6F9"/>
<path d="M16.8282 47.0816C14.3584 47.851 11.4422 50.7826 11.4422 50.7826L10.6728 49.9362C10.6728 49.9362 13.8967 46.72 14.7046 44.781" fill="#22A74F"/>
<path d="M10.9113 49.6746C11.2009 49.9432 11.4247 50.2749 11.5653 50.644L11.4345 50.7672L10.6651 49.9208L10.9113 49.6746Z" fill="#00C708"/>
<path d="M11.5285 51.7136C11.7954 51.4639 11.607 50.8289 11.1076 50.2951C10.6083 49.7613 9.98721 49.531 9.72033 49.7806C9.45344 50.0303 9.64187 50.6654 10.1412 51.1992C10.6405 51.7329 11.2616 51.9633 11.5285 51.7136Z" fill="#22A74F"/>
<path d="M11.0953 51.6033C11.1307 51.5503 11.0648 51.4441 10.9482 51.3663C10.8316 51.2884 10.7084 51.2683 10.673 51.3213C10.6376 51.3743 10.7034 51.4804 10.82 51.5582C10.9367 51.6361 11.0599 51.6563 11.0953 51.6033Z" fill="#F4F6F9"/>
</svg>
