<svg id="Capa_1" enable-background="new 0 0 510 510" height="512" viewBox="0 0 510 510" width="512" xmlns="http://www.w3.org/2000/svg" xmlns:xlink="http://www.w3.org/1999/xlink"><linearGradient id="lg1"><stop offset="0" stop-color="#edf5ff"/><stop offset="1" stop-color="#d5e8fe"/></linearGradient><linearGradient id="SVGID_1_" gradientTransform="matrix(.983 .186 -.186 .983 257.247 -23.687)" gradientUnits="userSpaceOnUse" x1="22.257" x2="105.795" xlink:href="#lg1" y1="291.704" y2="351.804"/><linearGradient id="lg2"><stop offset="0" stop-color="#07485e" stop-opacity="0"/><stop offset=".2708" stop-color="#074459" stop-opacity=".271"/><stop offset=".597" stop-color="#05394a" stop-opacity=".597"/><stop offset=".9505" stop-color="#032632" stop-opacity=".951"/><stop offset="1" stop-color="#03232e"/></linearGradient><linearGradient id="SVGID_2_" gradientTransform="matrix(.826 -.563 .563 .826 1052.197 -1238.131)" gradientUnits="userSpaceOnUse" x1="-1283.062" x2="-1197.044" xlink:href="#lg2" y1="853.378" y2="833.552"/><linearGradient id="SVGID_3_" gradientTransform="matrix(.826 -.563 .563 .826 1052.197 -1238.131)" gradientUnits="userSpaceOnUse" x1="-1757.233" x2="-1878.431" xlink:href="#lg2" y1="786.614" y2="849.247"/><linearGradient id="SVGID_4_" gradientTransform="matrix(.983 .186 -.186 .983 257.247 -23.687)" gradientUnits="userSpaceOnUse" x1="86.79" x2="281.584" xlink:href="#lg2" y1="326.142" y2="386.013"/><linearGradient id="SVGID_5_" gradientTransform="matrix(.983 .186 -.186 .983 257.247 -23.687)" gradientUnits="userSpaceOnUse" x1="-79.872" x2="-14.798" xlink:href="#lg2" y1="444.694" y2="406.209"/><linearGradient id="SVGID_6_" gradientTransform="matrix(-.983 .186 .186 .983 252.753 -23.687)" gradientUnits="userSpaceOnUse" x1="22.257" x2="105.795" xlink:href="#lg1" y1="291.704" y2="351.804"/><linearGradient id="SVGID_7_" gradientTransform="matrix(-.826 -.563 -.563 .826 -542.197 -1238.131)" gradientUnits="userSpaceOnUse" x1="-1283.062" x2="-1197.044" xlink:href="#lg2" y1="853.378" y2="833.552"/><linearGradient id="SVGID_8_" gradientTransform="matrix(-.826 -.563 -.563 .826 -542.197 -1238.131)" gradientUnits="userSpaceOnUse" x1="-1757.233" x2="-1878.431" xlink:href="#lg2" y1="786.614" y2="849.247"/><linearGradient id="SVGID_9_" gradientTransform="matrix(-.983 .186 .186 .983 252.753 -23.687)" gradientUnits="userSpaceOnUse" x1="86.79" x2="281.584" xlink:href="#lg2" y1="326.142" y2="386.013"/><linearGradient id="SVGID_10_" gradientTransform="matrix(-.983 .186 .186 .983 252.753 -23.687)" gradientUnits="userSpaceOnUse" x1="-79.872" x2="-14.798" xlink:href="#lg2" y1="444.694" y2="406.209"/><linearGradient id="SVGID_11_" gradientUnits="userSpaceOnUse" x1="218.663" x2="365.815" xlink:href="#lg1" y1="288.049" y2="400.165"/><linearGradient id="SVGID_12_" gradientUnits="userSpaceOnUse" x1="170.926" x2="231.609" xlink:href="#lg2" y1="436.336" y2="497.02"/><linearGradient id="SVGID_13_" gradientUnits="userSpaceOnUse" x1="248.003" x2="303.647" xlink:href="#lg2" y1="436.102" y2="491.746"/><linearGradient id="SVGID_14_" gradientUnits="userSpaceOnUse" x1="323.86" x2="385.018" xlink:href="#lg2" y1="434.648" y2="495.806"/><linearGradient id="lg3"><stop offset="0" stop-color="#8a7889"/><stop offset="1" stop-color="#6e566e"/></linearGradient><linearGradient id="SVGID_15_" gradientUnits="userSpaceOnUse" x1="234.313" x2="124.505" xlink:href="#lg3" y1="361.556" y2="251.747"/><linearGradient id="SVGID_16_" gradientTransform="matrix(-1 0 0 1 1445.264 0)" gradientUnits="userSpaceOnUse" x1="1169.577" x2="1059.768" xlink:href="#lg3" y1="361.556" y2="251.747"/><linearGradient id="SVGID_17_" gradientUnits="userSpaceOnUse" x1="255" x2="255" xlink:href="#lg3" y1="389.536" y2="345.309"/><linearGradient id="SVGID_18_" gradientUnits="userSpaceOnUse" x1="313.011" x2="241.454" xlink:href="#lg2" y1="297.781" y2="124.58"/><linearGradient id="lg4"><stop offset="0" stop-color="#ff637b"/><stop offset="1" stop-color="#e63950"/></linearGradient><linearGradient id="SVGID_19_" gradientTransform="matrix(0 1 -1 0 -2150 -532)" gradientUnits="userSpaceOnUse" x1="661.389" x2="672.037" xlink:href="#lg4" y1="-2460.45" y2="-2460.45"/><linearGradient id="lg5"><stop offset="0" stop-color="#ff9690"/><stop offset="1" stop-color="#f9545b"/></linearGradient><linearGradient id="SVGID_20_" gradientTransform="matrix(0 1 -1 0 -2150 -532)" gradientUnits="userSpaceOnUse" x1="662.749" x2="670.08" xlink:href="#lg5" y1="-2479.64" y2="-2472.309"/><linearGradient id="SVGID_21_" gradientTransform="matrix(.707 .707 -.707 .707 -1185.181 179.28)" gradientUnits="userSpaceOnUse" x1="981.916" x2="992.565" xlink:href="#lg4" y1="-1106.272" y2="-1106.272"/><linearGradient id="SVGID_22_" gradientTransform="matrix(.707 .707 -.707 .707 -1185.181 179.28)" gradientUnits="userSpaceOnUse" x1="983.277" x2="990.608" xlink:href="#lg5" y1="-1125.462" y2="-1118.131"/><linearGradient id="SVGID_23_" gradientTransform="matrix(-.707 .707 -.707 -.707 -2329.28 -1717.181)" gradientUnits="userSpaceOnUse" x1="-522.808" x2="-512.159" xlink:href="#lg4" y1="-3191.351" y2="-3191.351"/><linearGradient id="SVGID_24_" gradientTransform="matrix(-.707 .707 -.707 -.707 -2329.28 -1717.181)" gradientUnits="userSpaceOnUse" x1="-521.447" x2="-514.116" xlink:href="#lg5" y1="-3210.542" y2="-3203.21"/><linearGradient id="SVGID_25_" gradientUnits="userSpaceOnUse" x1="251.015" x2="261.664" xlink:href="#lg4" y1="77.925" y2="77.925"/><linearGradient id="SVGID_26_" gradientUnits="userSpaceOnUse" x1="252.376" x2="259.707" xlink:href="#lg5" y1="58.734" y2="66.065"/><linearGradient id="SVGID_27_" gradientTransform="matrix(-1 0 0 -1 -1618 -2478.034)" gradientUnits="userSpaceOnUse" x1="-1876.986" x2="-1866.337" xlink:href="#lg4" y1="-2666.857" y2="-2666.857"/><linearGradient id="SVGID_28_" gradientTransform="matrix(-1 0 0 -1 -1618 -2478.034)" gradientUnits="userSpaceOnUse" x1="-1875.626" x2="-1868.294" xlink:href="#lg5" y1="-2686.048" y2="-2678.717"/><linearGradient id="SVGID_29_" gradientTransform="matrix(0 -1 1 0 328.034 -2150)" gradientUnits="userSpaceOnUse" x1="-2287.36" x2="-2276.711" xlink:href="#lg4" y1="-128.483" y2="-128.483"/><linearGradient id="SVGID_30_" gradientTransform="matrix(0 -1 1 0 328.034 -2150)" gradientUnits="userSpaceOnUse" x1="-2285.999" x2="-2278.668" xlink:href="#lg5" y1="-147.673" y2="-140.342"/><linearGradient id="SVGID_31_" gradientTransform="matrix(-.707 -.707 .707 -.707 -577.045 -2717.054)" gradientUnits="userSpaceOnUse" x1="-2607.888" x2="-2597.239" xlink:href="#lg4" y1="-1482.661" y2="-1482.661"/><linearGradient id="SVGID_32_" gradientTransform="matrix(-.707 -.707 .707 -.707 -577.045 -2717.054)" gradientUnits="userSpaceOnUse" x1="-2606.527" x2="-2599.196" xlink:href="#lg5" y1="-1501.852" y2="-1494.52"/><linearGradient id="SVGID_33_" gradientTransform="matrix(.707 -.707 .707 .707 567.054 -1109.045)" gradientUnits="userSpaceOnUse" x1="-1103.163" x2="-1092.515" xlink:href="#lg4" y1="602.419" y2="602.419"/><linearGradient id="SVGID_34_" gradientTransform="matrix(.707 -.707 .707 .707 567.054 -1109.045)" gradientUnits="userSpaceOnUse" x1="-1101.803" x2="-1094.472" xlink:href="#lg5" y1="583.228" y2="590.559"/><linearGradient id="SVGID_35_" gradientUnits="userSpaceOnUse" x1="216.474" x2="297.263" xlink:href="#lg5" y1="94.847" y2="175.637"/><linearGradient id="lg6"><stop offset="0" stop-color="#e63950" stop-opacity="0"/><stop offset=".0467" stop-color="#e4354b" stop-opacity=".047"/><stop offset=".4669" stop-color="#d31822" stop-opacity=".467"/><stop offset=".7991" stop-color="#c90709" stop-opacity=".799"/><stop offset="1" stop-color="#c50000"/></linearGradient><linearGradient id="SVGID_36_" gradientUnits="userSpaceOnUse" x1="290.601" x2="260.848" xlink:href="#lg6" y1="105.855" y2="76.103"/><linearGradient id="SVGID_37_" gradientUnits="userSpaceOnUse" x1="262.507" x2="248.557" xlink:href="#lg6" y1="148.483" y2="120.917"/><linearGradient id="SVGID_38_" gradientTransform="matrix(.927 .375 -.375 .927 -561.742 205.488)" gradientUnits="userSpaceOnUse" x1="726.942" x2="735.483" xlink:href="#lg4" y1="-417.524" y2="-417.524"/><linearGradient id="SVGID_39_" gradientTransform="matrix(.927 .375 -.375 .927 -561.742 205.488)" gradientUnits="userSpaceOnUse" x1="728.033" x2="733.914" xlink:href="#lg5" y1="-432.916" y2="-427.036"/><linearGradient id="SVGID_40_" gradientTransform="matrix(-.375 .927 -.927 -.375 -2355.488 -1093.742)" gradientUnits="userSpaceOnUse" x1="155.754" x2="164.295" xlink:href="#lg4" y1="-2924.613" y2="-2924.613"/><linearGradient id="SVGID_41_" gradientTransform="matrix(-.375 .927 -.927 -.375 -2355.488 -1093.742)" gradientUnits="userSpaceOnUse" x1="156.845" x2="162.725" xlink:href="#lg5" y1="-2940.005" y2="-2934.125"/><linearGradient id="SVGID_42_" gradientTransform="matrix(.39 .921 -.921 .39 -1727.694 -72.63)" gradientUnits="userSpaceOnUse" x1="960.583" x2="969.124" xlink:href="#lg4" y1="-1789.365" y2="-1789.365"/><linearGradient id="SVGID_43_" gradientTransform="matrix(.39 .921 -.921 .39 -1727.694 -72.63)" gradientUnits="userSpaceOnUse" x1="961.674" x2="967.554" xlink:href="#lg5" y1="-1804.757" y2="-1798.877"/><linearGradient id="SVGID_44_" gradientTransform="matrix(-.921 .39 -.39 -.921 -2077.37 -2259.694)" gradientUnits="userSpaceOnUse" x1="-1216.088" x2="-1207.547" xlink:href="#lg4" y1="-3158.254" y2="-3158.254"/><linearGradient id="SVGID_45_" gradientTransform="matrix(-.921 .39 -.39 -.921 -2077.37 -2259.694)" gradientUnits="userSpaceOnUse" x1="-1214.997" x2="-1209.117" xlink:href="#lg5" y1="-3173.646" y2="-3167.766"/><linearGradient id="SVGID_46_" gradientTransform="matrix(-.927 -.375 .375 -.927 -1132.725 -2698.398)" gradientUnits="userSpaceOnUse" x1="-2351.335" x2="-2342.794" xlink:href="#lg4" y1="-2149.458" y2="-2149.458"/><linearGradient id="SVGID_47_" gradientTransform="matrix(-.927 -.375 .375 -.927 -1132.725 -2698.398)" gradientUnits="userSpaceOnUse" x1="-2350.244" x2="-2344.364" xlink:href="#lg5" y1="-2164.85" y2="-2158.97"/><linearGradient id="SVGID_48_" gradientUnits="userSpaceOnUse" x1="213.022" x2="208.372" xlink:href="#lg6" y1="129.097" y2="96.383"/><linearGradient id="SVGID_49_" gradientTransform="matrix(.375 -.927 .927 .375 548.398 -1664.725)" gradientUnits="userSpaceOnUse" x1="-1780.147" x2="-1771.606" xlink:href="#lg4" y1="357.631" y2="357.631"/><linearGradient id="SVGID_50_" gradientTransform="matrix(.375 -.927 .927 .375 548.398 -1664.725)" gradientUnits="userSpaceOnUse" x1="-1779.056" x2="-1773.176" xlink:href="#lg5" y1="342.239" y2="348.119"/><linearGradient id="SVGID_51_" gradientTransform="matrix(-.39 -.921 .921 -.39 -78.083 -2529.733)" gradientUnits="userSpaceOnUse" x1="-2584.976" x2="-2576.435" xlink:href="#lg4" y1="-777.617" y2="-777.617"/><linearGradient id="SVGID_52_" gradientTransform="matrix(-.39 -.921 .921 -.39 -78.083 -2529.733)" gradientUnits="userSpaceOnUse" x1="-2583.885" x2="-2578.005" xlink:href="#lg5" y1="-793.009" y2="-787.129"/><linearGradient id="SVGID_53_" gradientUnits="userSpaceOnUse" x1="251.113" x2="218.565" xlink:href="#lg6" y1="97.846" y2="72.438"/><linearGradient id="SVGID_54_" gradientTransform="matrix(.921 -.39 .39 .921 379.733 -610.083)" gradientUnits="userSpaceOnUse" x1="-408.306" x2="-399.765" xlink:href="#lg4" y1="591.272" y2="591.272"/><linearGradient id="SVGID_55_" gradientTransform="matrix(.921 -.39 .39 .921 379.733 -610.083)" gradientUnits="userSpaceOnUse" x1="-407.214" x2="-401.334" xlink:href="#lg5" y1="575.88" y2="581.76"/><linearGradient id="SVGID_56_" gradientUnits="userSpaceOnUse" x1="244.705" x2="273.46" xlink:href="#lg4" y1="123.078" y2="151.833"/><linearGradient id="SVGID_57_" gradientTransform="matrix(-1 0 0 1 -1377.637 -534.97)" gradientUnits="userSpaceOnUse" x1="-1632.637" x2="-1632.637" y1="753.78" y2="545.949"><stop offset="0" stop-color="#fff" stop-opacity="0"/><stop offset="1" stop-color="#fff"/></linearGradient><linearGradient id="lg7"><stop offset="0" stop-color="#9ae1d3"/><stop offset="1" stop-color="#80d1c1"/></linearGradient><linearGradient id="SVGID_58_" gradientTransform="matrix(-1 0 0 1 -1377.637 -534.97)" gradientUnits="userSpaceOnUse" x1="-1704.742" x2="-1547.261" xlink:href="#lg7" y1="596.239" y2="753.72"/><linearGradient id="SVGID_59_" gradientTransform="matrix(1 0 0 -1 -809.687 3269.22)" gradientUnits="userSpaceOnUse" x1="998.006" x2="1143.639" xlink:href="#lg7" y1="3069.165" y2="3214.799"/><g><g><g><g><path d="m473.546 149.67c2.725-11.184.883-23.433-6.113-33.692-13.097-19.206-39.284-24.158-58.49-11.06-19.206 13.097-24.158 39.284-11.06 58.49l-321.012 218.914c-13.097-19.206-39.284-24.158-58.49-11.06-19.206 13.097-24.158 39.284-11.06 58.49 6.996 10.259 17.727 16.447 29.134 17.993-2.725 11.184-.883 23.433 6.113 33.692 13.097 19.206 39.284 24.158 58.49 11.06 19.206-13.097 24.158-39.284 11.06-58.49l321.01-218.913c13.097 19.206 39.284 24.158 58.49 11.06 19.206-13.097 24.158-39.285 11.06-58.49-6.995-10.259-17.726-16.447-29.132-17.994z" fill="url(#SVGID_1_)"/><g><path d="m502.677 167.662c13.099 19.208 8.147 45.394-11.061 58.493-19.203 13.095-45.389 8.144-58.488-11.064-6.995-10.257-8.839-22.512-6.111-33.691 9.947 1.354 20.405-.83 29.351-6.931s14.803-15.043 17.175-24.797c11.404 1.541 22.14 7.733 29.134 17.99z" fill="url(#SVGID_2_)"/></g><path d="m76.872 382.324c6.995 10.257 8.839 22.512 6.11 33.691-9.947-1.354-20.405.83-29.351 6.931s-14.803 15.043-17.175 24.797c-11.404-1.542-22.139-7.734-29.134-17.99-13.099-19.208-8.147-45.394 11.061-58.493 19.203-13.096 45.39-8.144 58.489 11.064z" fill="url(#SVGID_3_)"/><path d="m427.015 181.401c-11.406-1.547-22.138-7.734-29.134-17.993l-321.01 218.914c6.996 10.259 8.838 22.508 6.113 33.692 11.406 1.547 22.138 7.734 29.134 17.993l321.01-218.913c-6.995-10.259-8.838-22.509-6.113-33.693z" fill="url(#SVGID_4_)"/><path d="m169.261 395.039-35.247-51.685-57.142 38.968c6.996 10.259 8.838 22.508 6.113 33.692 11.406 1.547 22.138 7.734 29.134 17.993z" fill="url(#SVGID_5_)"/></g></g><g><g><path d="m36.454 149.67c-2.725-11.184-.883-23.433 6.113-33.692 13.097-19.206 39.284-24.158 58.49-11.06 19.206 13.097 24.158 39.284 11.06 58.49l321.01 218.913c13.097-19.206 39.284-24.158 58.49-11.06 19.206 13.097 24.158 39.284 11.06 58.49-6.996 10.259-17.727 16.447-29.134 17.993 2.725 11.184.883 23.433-6.113 33.692-13.097 19.206-39.284 24.158-58.49 11.06-19.206-13.097-24.158-39.284-11.06-58.49l-321.009-218.912c-13.097 19.206-39.284 24.158-58.49 11.06-19.206-13.097-24.158-39.285-11.06-58.49 6.996-10.259 17.727-16.447 29.133-17.994z" fill="url(#SVGID_6_)"/><g><path d="m7.323 167.662c-13.099 19.208-8.147 45.394 11.061 58.493 19.203 13.095 45.389 8.144 58.488-11.064 6.995-10.257 8.839-22.512 6.111-33.691-9.947 1.354-20.405-.83-29.351-6.931s-14.803-15.043-17.175-24.797c-11.404 1.541-22.14 7.733-29.134 17.99z" fill="url(#SVGID_7_)"/></g><path d="m433.128 382.324c-6.995 10.257-8.839 22.512-6.111 33.691 9.947-1.354 20.405.83 29.351 6.931s14.803 15.043 17.175 24.797c11.404-1.542 22.139-7.734 29.134-17.99 13.099-19.208 8.147-45.394-11.061-58.493-19.202-13.096-45.389-8.144-58.488 11.064z" fill="url(#SVGID_8_)"/><path d="m82.985 181.401c11.406-1.547 22.138-7.734 29.134-17.993l321.01 218.913c-6.996 10.259-8.838 22.508-6.113 33.692-11.406 1.547-22.138 7.734-29.134 17.993l-321.011-218.912c6.996-10.259 8.839-22.509 6.114-33.693z" fill="url(#SVGID_9_)"/><path d="m340.739 395.039 35.247-51.685 57.142 38.968c-6.996 10.259-8.838 22.508-6.113 33.692-11.406 1.547-22.138 7.734-29.134 17.993z" fill="url(#SVGID_10_)"/></g></g><g><path d="m412.344 273.825c0-86.899-70.445-157.344-157.344-157.344s-157.344 70.445-157.344 157.344c0 22.794 4.854 44.453 13.574 64.009-8.72 9.3-13.574 19.6-13.574 30.44 0 20.229 16.888 38.58 44.315 52.048-1.875 3.71-2.939 7.9-2.939 12.341v20.874c0 15.131 12.266 27.398 27.398 27.398h22.517c15.131 0 27.397-12.266 27.397-27.398 0 15.131 12.266 27.398 27.398 27.398h22.517c15.131 0 27.398-12.266 27.398-27.398 0 15.131 12.266 27.398 27.397 27.398h22.517c15.132 0 27.398-12.266 27.398-27.398v-20.874c0-4.441-1.063-8.631-2.939-12.341 27.428-13.468 44.315-31.818 44.315-52.048 0-10.84-4.854-21.14-13.574-30.44 8.719-19.556 13.573-41.214 13.573-64.009z" fill="url(#SVGID_11_)"/><g><path d="m216.344 453.536v-20.874c0-15.131-12.266-27.398-27.398-27.398h-22.516c-15.131 0-27.398 12.266-27.398 27.398v20.874c0 15.131 12.266 27.398 27.398 27.398h22.517c15.131 0 27.397-12.266 27.397-27.398z" fill="url(#SVGID_12_)"/><path d="m293.656 453.536v-20.874c0-15.131-12.266-27.398-27.398-27.398h-22.517c-15.131 0-27.398 12.266-27.398 27.398v20.874c0 15.131 12.266 27.398 27.398 27.398h22.517c15.132 0 27.398-12.266 27.398-27.398z" fill="url(#SVGID_13_)"/><path d="m370.967 453.536v-20.874c0-15.131-12.266-27.398-27.398-27.398h-22.517c-15.131 0-27.398 12.266-27.398 27.398v20.874c0 15.131 12.266 27.398 27.398 27.398h22.517c15.132 0 27.398-12.266 27.398-27.398z" fill="url(#SVGID_14_)"/></g><g><path d="m232.516 338.336c-13.125 22.848-46.305 28.421-74.109 12.448s-39.703-47.443-26.578-70.291 46.305-28.421 74.109-12.448 39.703 47.443 26.578 70.291z" fill="url(#SVGID_15_)"/><path d="m277.484 338.336c13.125 22.848 46.305 28.421 74.109 12.448s39.703-47.443 26.578-70.291-46.305-28.421-74.109-12.448-39.703 47.443-26.578 70.291z" fill="url(#SVGID_16_)"/></g><path d="m238.518 392.325c7.625-12.158 25.339-12.158 32.965 0 3.178 5.066 11.034 3.676 12.097-2.209.808-4.474.059-9.31-2.696-13.701l-9.401-14.989c-7.625-12.158-25.339-12.158-32.965 0l-9.401 14.99c-2.754 4.392-3.504 9.227-2.695 13.701 1.062 5.884 8.918 7.274 12.096 2.208z" fill="url(#SVGID_17_)"/></g></g><path d="m398.769 337.837c8.721 9.294 13.576 19.601 13.576 30.432 0 20.235-16.893 38.58-44.313 52.058.098.195.195.39.281.586l-200.425-200.425c-14.759-14.759-23.98-33.335-29.676-51.984.012-.024 8.489-9.014 13.661-13.503 4.037 19.369 13.588 37.836 28.627 52.875 41.141 41.153 107.86 41.153 149.001 0 15.051-15.051 24.589-33.506 28.627-52.887 3.684 3.183 7.221 6.55 10.587 10.075.244.256.488.524.732.781 26.59 28.176 42.897 66.182 42.897 107.982 0 22.796-4.854 44.446-13.575 64.01z" fill="url(#SVGID_18_)"/><g><g><g><path d="m296.874 133.374c0-1.651 1.338-2.989 2.989-2.989h21.174c1.651 0 2.989 1.338 2.989 2.989 0 1.651-1.338 2.989-2.989 2.989h-21.174c-1.651 0-2.989-1.338-2.989-2.989z" fill="url(#SVGID_19_)"/><circle cx="327.015" cy="133.374" fill="url(#SVGID_20_)" r="9.3"/></g><g><path d="m284.609 103.765c-1.167-1.167-1.167-3.06 0-4.227l14.973-14.973c1.167-1.167 3.06-1.167 4.227 0 1.167 1.167 1.167 3.06 0 4.227l-14.973 14.973c-1.167 1.168-3.059 1.168-4.227 0z" fill="url(#SVGID_21_)"/><circle cx="305.923" cy="82.452" fill="url(#SVGID_22_)" r="9.3"/></g><g><path d="m284.609 162.983c1.167-1.167 3.06-1.167 4.227 0l14.973 14.973c1.167 1.167 1.167 3.06 0 4.227-1.167 1.167-3.06 1.167-4.227 0l-14.973-14.973c-1.167-1.167-1.167-3.06 0-4.227z" fill="url(#SVGID_23_)"/><circle cx="305.923" cy="184.296" fill="url(#SVGID_24_)" r="9.3"/></g><g><path d="m255.001 91.501c-1.651 0-2.989-1.338-2.989-2.989v-21.175c0-1.651 1.338-2.989 2.989-2.989 1.651 0 2.989 1.338 2.989 2.989v21.174c0 1.652-1.339 2.99-2.989 2.99z" fill="url(#SVGID_25_)"/><circle cx="255.001" cy="61.359" fill="url(#SVGID_26_)" r="9.3"/></g><g><path d="m255.001 175.247c1.651 0 2.989 1.338 2.989 2.989v21.174c0 1.651-1.338 2.989-2.989 2.989-1.651 0-2.989-1.338-2.989-2.989v-21.174c-.001-1.651 1.338-2.989 2.989-2.989z" fill="url(#SVGID_27_)"/><circle cx="255.001" cy="205.389" fill="url(#SVGID_28_)" r="9.3"/></g><g><path d="m213.128 133.374c0 1.651-1.338 2.989-2.989 2.989h-21.174c-1.651 0-2.989-1.338-2.989-2.989 0-1.651 1.338-2.989 2.989-2.989h21.174c1.65 0 2.989 1.338 2.989 2.989z" fill="url(#SVGID_29_)"/><circle cx="182.986" cy="133.374" fill="url(#SVGID_30_)" r="9.3"/></g><g><path d="m225.392 162.983c1.167 1.167 1.167 3.06 0 4.227l-14.973 14.973c-1.167 1.167-3.06 1.167-4.227 0-1.167-1.167-1.167-3.06 0-4.227l14.973-14.973c1.167-1.168 3.06-1.168 4.227 0z" fill="url(#SVGID_31_)"/><circle cx="204.078" cy="184.296" fill="url(#SVGID_32_)" r="9.3"/></g><g><path d="m225.392 103.765c-1.167 1.167-3.06 1.167-4.227 0l-14.973-14.973c-1.167-1.167-1.167-3.06 0-4.227 1.167-1.167 3.06-1.167 4.227 0l14.973 14.973c1.167 1.167 1.167 3.06 0 4.227z" fill="url(#SVGID_33_)"/><circle cx="204.078" cy="82.452" fill="url(#SVGID_34_)" r="9.3"/></g><circle cx="255.001" cy="133.374" fill="url(#SVGID_35_)" r="57.263"/><path d="m277.844 80.854-8.65 21.454s9.166 2.348 17.801 16.873l20.69-8.273c-5.735-13.434-16.458-24.225-29.841-30.054z" fill="url(#SVGID_36_)"/><path d="m255.001 190.637c31.625 0 57.263-25.637 57.263-57.263 0-7.396-1.403-14.464-3.955-20.953l-105.472 44.603c9.001 19.825 28.972 33.613 52.164 33.613z" fill="url(#SVGID_37_)"/><g><path d="m267.591 102.239c-1.228-.496-1.82-1.894-1.324-3.121l6.367-15.745c.496-1.228 1.894-1.82 3.121-1.324 1.228.496 1.82 1.894 1.324 3.121l-6.367 15.745c-.495 1.227-1.893 1.82-3.121 1.324z" fill="url(#SVGID_38_)"/><circle cx="276.655" cy="79.826" fill="url(#SVGID_39_)" r="7.459"/></g><g><path d="m286.136 145.965c.496-1.228 1.894-1.82 3.121-1.324l15.745 6.367c1.228.496 1.82 1.894 1.324 3.121-.496 1.228-1.894 1.82-3.121 1.324l-15.745-6.367c-1.228-.496-1.82-1.894-1.324-3.121z" fill="url(#SVGID_40_)"/><circle cx="308.548" cy="155.028" fill="url(#SVGID_41_)" r="7.459"/></g><g><path d="m285.92 120.261c-.517-1.219.052-2.626 1.271-3.143l15.635-6.631c1.219-.517 2.626.052 3.143 1.271.517 1.219-.052 2.626-1.271 3.143l-15.635 6.631c-1.219.517-2.626-.052-3.143-1.271z" fill="url(#SVGID_42_)"/><circle cx="308.177" cy="110.822" fill="url(#SVGID_43_)" r="7.459"/></g><g><path d="m268.114 164.293c1.219-.517 2.626.052 3.143 1.271l6.631 15.635c.517 1.219-.052 2.626-1.271 3.143-1.219.517-2.626-.052-3.143-1.271l-6.631-15.635c-.518-1.219.052-2.626 1.271-3.143z" fill="url(#SVGID_44_)"/><circle cx="277.553" cy="186.55" fill="url(#SVGID_45_)" r="7.459"/></g><g><path d="m242.41 164.509c1.228.496 1.82 1.894 1.324 3.121l-6.367 15.745c-.496 1.228-1.894 1.82-3.121 1.324-1.228-.496-1.82-1.894-1.324-3.121l6.367-15.745c.496-1.227 1.893-1.82 3.121-1.324z" fill="url(#SVGID_46_)"/><circle cx="233.346" cy="186.922" fill="url(#SVGID_47_)" r="7.459"/></g><path d="m199.551 118.93 21.08 21.08s-1.996-14.216 3.234-19.228l-21.888-9.063z" fill="url(#SVGID_48_)"/><g><path d="m223.865 120.783c-.496 1.228-1.894 1.82-3.121 1.324l-15.745-6.367c-1.228-.496-1.82-1.894-1.324-3.121.496-1.228 1.894-1.82 3.121-1.324l15.745 6.367c1.228.496 1.821 1.894 1.324 3.121z" fill="url(#SVGID_49_)"/><circle cx="201.453" cy="111.72" fill="url(#SVGID_50_)" r="7.459"/></g><g><path d="m224.081 146.487c.517 1.219-.052 2.626-1.271 3.143l-15.635 6.631c-1.219.517-2.626-.052-3.143-1.271-.517-1.219.052-2.626 1.271-3.143l15.635-6.631c1.219-.517 2.626.052 3.143 1.271z" fill="url(#SVGID_51_)"/><circle cx="201.825" cy="155.926" fill="url(#SVGID_52_)" r="7.459"/></g><path d="m232.758 80.592 9.123 20.732c7.639-3.819 17.867-3.009 17.867-3.009l-20.114-20.115c-2.357.655-4.652 1.454-6.876 2.392z" fill="url(#SVGID_53_)"/><g><path d="m241.888 102.455c-1.219.517-2.626-.052-3.143-1.271l-6.631-15.635c-.517-1.219.052-2.626 1.271-3.143 1.219-.517 2.626.052 3.143 1.271l6.631 15.635c.517 1.219-.052 2.626-1.271 3.143z" fill="url(#SVGID_54_)"/><circle cx="232.448" cy="80.198" fill="url(#SVGID_55_)" r="7.459"/></g><circle cx="255.001" cy="133.374" fill="url(#SVGID_56_)" r="36.476"/></g><g><circle cx="255.001" cy="133.374" fill="url(#SVGID_57_)" r="105.366"/><g><path d="m167.892 220.482c48.112 48.112 126.105 48.112 174.216 0 48.112-48.112 48.112-126.105 0-174.216-48.112-48.112-126.105-48.112-174.216 0-48.112 48.111-48.112 126.104 0 174.216zm18.158-18.148c-38.086-38.086-38.086-99.833 0-137.92 38.077-38.076 99.824-38.076 137.91 0 38.077 38.086 38.077 99.833 0 137.92-38.086 38.076-99.834 38.076-137.91 0z" fill="url(#SVGID_58_)"/><path d="m335.555 52.819c-44.491-44.491-116.619-44.491-161.11 0s-44.491 116.619 0 161.11 116.619 44.491 161.11 0 44.491-116.619 0-161.11zm-11.605 149.515c-38.077 38.076-99.824 38.076-137.91 0-38.077-38.086-38.077-99.833 0-137.92 38.086-38.077 99.833-38.077 137.91 0 38.086 38.086 38.086 99.833 0 137.92z" fill="url(#SVGID_59_)"/></g></g></g></g></svg>