<svg id="Capa_1" enable-background="new 0 0 510 510" height="512" viewBox="0 0 510 510" width="512" xmlns="http://www.w3.org/2000/svg" xmlns:xlink="http://www.w3.org/1999/xlink"><linearGradient id="lg1"><stop offset="0" stop-color="#ff9690"/><stop offset="1" stop-color="#f9545b"/></linearGradient><linearGradient id="SVGID_1_" gradientUnits="userSpaceOnUse" x1="57.11" x2="151.651" xlink:href="#lg1" y1="255.375" y2="349.916"/><linearGradient id="SVGID_2_" gradientUnits="userSpaceOnUse" x1="166.112" x2="116.112" y1="332.433" y2="108.433"><stop offset="0" stop-color="#e63950" stop-opacity="0"/><stop offset=".8274" stop-color="#cb0a0e" stop-opacity=".827"/><stop offset="1" stop-color="#c50000"/></linearGradient><linearGradient id="SVGID_3_" gradientUnits="userSpaceOnUse" x1="304.684" x2="460.684" xlink:href="#lg1" y1="263.064" y2="361.064"/><linearGradient id="lg2"><stop offset="0" stop-color="#e63950" stop-opacity="0"/><stop offset=".0467" stop-color="#e4354b" stop-opacity=".047"/><stop offset=".4669" stop-color="#d31822" stop-opacity=".467"/><stop offset=".7991" stop-color="#c90709" stop-opacity=".799"/><stop offset="1" stop-color="#c50000"/></linearGradient><linearGradient id="SVGID_4_" gradientUnits="userSpaceOnUse" x1="450.684" x2="142.684" xlink:href="#lg2" y1="298.116" y2="332.116"/><linearGradient id="SVGID_5_" gradientUnits="userSpaceOnUse" x1="269.307" x2="212.116" xlink:href="#lg2" y1="314.608" y2="257.417"/><linearGradient id="lg3"><stop offset="0" stop-color="#9ae1d3"/><stop offset="1" stop-color="#80d1c1"/></linearGradient><linearGradient id="SVGID_6_" gradientUnits="userSpaceOnUse" x1="201.334" x2="323.522" xlink:href="#lg3" y1="160.915" y2="160.915"/><linearGradient id="lg4"><stop offset="0" stop-color="#0b799d" stop-opacity="0"/><stop offset=".1739" stop-color="#117d9e" stop-opacity=".174"/><stop offset=".414" stop-color="#2389a0" stop-opacity=".414"/><stop offset=".6928" stop-color="#409ca3" stop-opacity=".693"/><stop offset=".9986" stop-color="#69b7a8" stop-opacity=".999"/><stop offset="1" stop-color="#69b7a8"/></linearGradient><linearGradient id="SVGID_7_" gradientUnits="userSpaceOnUse" x1="262.748" x2="196.748" xlink:href="#lg4" y1="221.746" y2="192.746"/><linearGradient id="SVGID_8_" gradientUnits="userSpaceOnUse" x1="285.523" x2="214.856" xlink:href="#lg4" y1="170.289" y2="215.622"/><linearGradient id="SVGID_9_" gradientUnits="userSpaceOnUse" x1="260.564" x2="290.734" xlink:href="#lg4" y1="99.59" y2="201.249"/><linearGradient id="SVGID_10_" gradientUnits="userSpaceOnUse" x1="258.49" x2="310.318" xlink:href="#lg4" y1="73.456" y2="219.813"/><linearGradient id="SVGID_11_" gradientUnits="userSpaceOnUse" x1="260.301" x2="287.328" xlink:href="#lg4" y1="62.487" y2="124.907"/><linearGradient id="SVGID_12_" gradientUnits="userSpaceOnUse" x1="259.562" x2="278.343" xlink:href="#lg4" y1="51.658" y2="102.591"/><linearGradient id="SVGID_13_" gradientUnits="userSpaceOnUse" x1="253.148" x2="289.544" xlink:href="#lg4" y1="23.78" y2="92.901"/><linearGradient id="lg5"><stop offset="0" stop-color="#ff637b"/><stop offset="1" stop-color="#e63950"/></linearGradient><linearGradient id="SVGID_14_" gradientTransform="matrix(0 1 -1 0 -3746 -2128)" gradientUnits="userSpaceOnUse" x1="2252.121" x2="2262.77" xlink:href="#lg5" y1="-3924.642" y2="-3924.642"/><linearGradient id="SVGID_15_" gradientTransform="matrix(0 1 -1 0 -3746 -2128)" gradientUnits="userSpaceOnUse" x1="2253.482" x2="2260.813" xlink:href="#lg1" y1="-3943.832" y2="-3936.501"/><linearGradient id="SVGID_16_" gradientTransform="matrix(.707 .707 -.707 .707 -2313.723 -288.178)" gradientUnits="userSpaceOnUse" x1="2013.532" x2="2024.181" xlink:href="#lg5" y1="-1484.251" y2="-1484.251"/><linearGradient id="SVGID_17_" gradientTransform="matrix(.707 .707 -.707 .707 -2313.723 -288.178)" gradientUnits="userSpaceOnUse" x1="2014.892" x2="2022.224" xlink:href="#lg1" y1="-1503.442" y2="-1496.111"/><linearGradient id="SVGID_18_" gradientTransform="matrix(-.707 .707 -.707 -.707 -3457.822 -4441.723)" gradientUnits="userSpaceOnUse" x1="695.213" x2="705.861" xlink:href="#lg5" y1="-5818.967" y2="-5818.967"/><linearGradient id="SVGID_19_" gradientTransform="matrix(-.707 .707 -.707 -.707 -3457.822 -4441.723)" gradientUnits="userSpaceOnUse" x1="696.573" x2="703.904" xlink:href="#lg1" y1="-5838.157" y2="-5830.826"/><linearGradient id="SVGID_20_" gradientUnits="userSpaceOnUse" x1="119.207" x2="129.856" xlink:href="#lg5" y1="72.657" y2="72.657"/><linearGradient id="SVGID_21_" gradientUnits="userSpaceOnUse" x1="120.568" x2="127.899" xlink:href="#lg1" y1="53.467" y2="60.798"/><linearGradient id="SVGID_22_" gradientTransform="matrix(-1 0 0 -1 -1618 -5670.034)" gradientUnits="userSpaceOnUse" x1="-1745.178" x2="-1734.529" xlink:href="#lg5" y1="-5853.59" y2="-5853.59"/><linearGradient id="SVGID_23_" gradientTransform="matrix(-1 0 0 -1 -1618 -5670.034)" gradientUnits="userSpaceOnUse" x1="-1743.817" x2="-1736.486" xlink:href="#lg1" y1="-5872.78" y2="-5865.449"/><linearGradient id="SVGID_24_" gradientTransform="matrix(0 -1 1 0 1924.034 -3746)" gradientUnits="userSpaceOnUse" x1="-3878.092" x2="-3867.443" xlink:href="#lg5" y1="-1856.291" y2="-1856.291"/><linearGradient id="SVGID_25_" gradientTransform="matrix(0 -1 1 0 1924.034 -3746)" gradientUnits="userSpaceOnUse" x1="-3876.732" x2="-3869.4" xlink:href="#lg1" y1="-1875.481" y2="-1868.15"/><linearGradient id="SVGID_26_" gradientTransform="matrix(-.707 -.707 .707 -.707 551.497 -5441.596)" gradientUnits="userSpaceOnUse" x1="-3639.503" x2="-3628.854" xlink:href="#lg5" y1="-4296.681" y2="-4296.681"/><linearGradient id="SVGID_27_" gradientTransform="matrix(-.707 -.707 .707 -.707 551.497 -5441.596)" gradientUnits="userSpaceOnUse" x1="-3638.142" x2="-3630.811" xlink:href="#lg1" y1="-4315.872" y2="-4308.541"/><linearGradient id="SVGID_28_" gradientTransform="matrix(.707 -.707 .707 .707 1695.596 -1576.503)" gradientUnits="userSpaceOnUse" x1="-2321.184" x2="-2310.535" xlink:href="#lg5" y1="38.034" y2="38.034"/><linearGradient id="SVGID_29_" gradientTransform="matrix(.707 -.707 .707 .707 1695.596 -1576.503)" gradientUnits="userSpaceOnUse" x1="-2319.823" x2="-2312.492" xlink:href="#lg1" y1="18.844" y2="26.175"/><linearGradient id="SVGID_30_" gradientUnits="userSpaceOnUse" x1="84.666" x2="165.455" xlink:href="#lg1" y1="89.58" y2="170.369"/><linearGradient id="SVGID_31_" gradientUnits="userSpaceOnUse" x1="158.793" x2="129.04" xlink:href="#lg2" y1="100.588" y2="70.836"/><linearGradient id="SVGID_32_" gradientUnits="userSpaceOnUse" x1="130.698" x2="116.749" xlink:href="#lg2" y1="143.216" y2="115.649"/><linearGradient id="SVGID_33_" gradientTransform="matrix(.927 .375 -.375 .927 -1160.079 89.086)" gradientUnits="userSpaceOnUse" x1="1201.11" x2="1209.651" xlink:href="#lg5" y1="-489.395" y2="-489.395"/><linearGradient id="SVGID_34_" gradientTransform="matrix(.927 .375 -.375 .927 -1160.079 89.086)" gradientUnits="userSpaceOnUse" x1="1202.201" x2="1208.081" xlink:href="#lg1" y1="-504.787" y2="-498.907"/><linearGradient id="SVGID_35_" gradientTransform="matrix(-.375 .927 -.927 -.375 -3835.085 -3288.079)" gradientUnits="userSpaceOnUse" x1="1679.883" x2="1688.424" xlink:href="#lg5" y1="-4994.78" y2="-4994.78"/><linearGradient id="SVGID_36_" gradientTransform="matrix(-.375 .927 -.927 -.375 -3835.085 -3288.079)" gradientUnits="userSpaceOnUse" x1="1680.974" x2="1686.854" xlink:href="#lg1" y1="-5010.172" y2="-5004.293"/><linearGradient id="SVGID_37_" gradientTransform="matrix(.39 .921 -.921 .39 -3197.016 -1045.485)" gradientUnits="userSpaceOnUse" x1="2373.592" x2="2382.133" xlink:href="#lg5" y1="-2642.931" y2="-2642.931"/><linearGradient id="SVGID_38_" gradientTransform="matrix(.39 .921 -.921 .39 -3197.016 -1045.485)" gradientUnits="userSpaceOnUse" x1="2374.683" x2="2380.564" xlink:href="#lg1" y1="-2658.323" y2="-2652.442"/><linearGradient id="SVGID_39_" gradientTransform="matrix(-.921 .39 -.39 -.921 -2700.515 -5325.016)" gradientUnits="userSpaceOnUse" x1="-473.653" x2="-465.112" xlink:href="#lg5" y1="-6167.263" y2="-6167.263"/><linearGradient id="SVGID_40_" gradientTransform="matrix(-.921 .39 -.39 -.921 -2700.515 -5325.016)" gradientUnits="userSpaceOnUse" x1="-472.562" x2="-466.682" xlink:href="#lg1" y1="-6182.655" y2="-6176.774"/><linearGradient id="SVGID_41_" gradientTransform="matrix(-.927 -.375 .375 -.927 -534.387 -5773.996)" gradientUnits="userSpaceOnUse" x1="-2825.503" x2="-2816.962" xlink:href="#lg5" y1="-5269.587" y2="-5269.587"/><linearGradient id="SVGID_42_" gradientTransform="matrix(-.927 -.375 .375 -.927 -534.387 -5773.996)" gradientUnits="userSpaceOnUse" x1="-2824.412" x2="-2818.532" xlink:href="#lg1" y1="-5284.979" y2="-5279.099"/><linearGradient id="SVGID_43_" gradientUnits="userSpaceOnUse" x1="81.213" x2="76.564" xlink:href="#lg2" y1="123.83" y2="91.115"/><linearGradient id="SVGID_44_" gradientTransform="matrix(.375 -.927 .927 .375 2027.995 -2662.388)" gradientUnits="userSpaceOnUse" x1="-3304.276" x2="-3295.735" xlink:href="#lg5" y1="-764.201" y2="-764.201"/><linearGradient id="SVGID_45_" gradientTransform="matrix(.375 -.927 .927 .375 2027.995 -2662.388)" gradientUnits="userSpaceOnUse" x1="-3303.185" x2="-3297.304" xlink:href="#lg1" y1="-779.593" y2="-773.713"/><linearGradient id="SVGID_46_" gradientTransform="matrix(-.39 -.921 .921 -.39 1391.239 -4748.878)" gradientUnits="userSpaceOnUse" x1="-3997.985" x2="-3989.444" xlink:href="#lg5" y1="-3116.051" y2="-3116.051"/><linearGradient id="SVGID_47_" gradientTransform="matrix(-.39 -.921 .921 -.39 1391.239 -4748.878)" gradientUnits="userSpaceOnUse" x1="-3996.894" x2="-3991.014" xlink:href="#lg1" y1="-3131.443" y2="-3125.563"/><linearGradient id="SVGID_48_" gradientUnits="userSpaceOnUse" x1="119.305" x2="86.757" xlink:href="#lg2" y1="92.578" y2="67.17"/><linearGradient id="SVGID_49_" gradientTransform="matrix(.921 -.39 .39 .921 1002.878 -736.761)" gradientUnits="userSpaceOnUse" x1="-1150.74" x2="-1142.199" xlink:href="#lg5" y1="408.281" y2="408.281"/><linearGradient id="SVGID_50_" gradientTransform="matrix(.921 -.39 .39 .921 1002.878 -736.761)" gradientUnits="userSpaceOnUse" x1="-1149.649" x2="-1143.769" xlink:href="#lg1" y1="392.889" y2="398.769"/><linearGradient id="SVGID_51_" gradientUnits="userSpaceOnUse" x1="112.897" x2="141.652" xlink:href="#lg5" y1="117.811" y2="146.566"/><linearGradient id="SVGID_52_" gradientTransform="matrix(-1 0 0 1 -1377.637 -534.97)" gradientUnits="userSpaceOnUse" x1="-1500.829" x2="-1500.829" y1="748.512" y2="540.682"><stop offset="0" stop-color="#fff" stop-opacity="0"/><stop offset="1" stop-color="#fff"/></linearGradient><linearGradient id="SVGID_53_" gradientTransform="matrix(-1 0 0 1 -1377.637 -534.97)" gradientUnits="userSpaceOnUse" x1="-1572.934" x2="-1415.453" xlink:href="#lg3" y1="590.972" y2="748.452"/><linearGradient id="SVGID_54_" gradientTransform="matrix(1 0 0 -1 -809.687 77.22)" gradientUnits="userSpaceOnUse" x1="866.198" x2="1011.831" xlink:href="#lg3" y1="-117.568" y2="28.066"/><g><g><g><g><g><path d="m222.012 149.237 3.99 22.071c15.254 84.389 4.878 171.24-29.875 250.055l-.86 1.951c-12.477 28.296-41.24 46.66-73.08 46.658h-1.371c-21.518-.002-42.038 8.765-56.512 24.145l-.82.871c-17.392 18.48-48.926 10.287-54.34-13.962-.003-.011-.004-.017-.004-.017-14.923-66.835-11.525-136.275 9.86-201.452 23.692-71.349 78.435-129.16 149.899-158.299 22.898-9.337 48.837 4.327 53.113 27.979z" fill="url(#SVGID_1_)"/><path d="m223.1 338.43c-4.68 18.78-9.27 35.81-13.31 47.86-.22.65-.45 1.31-.67 1.96l-163.95-163.95c4.11-6.52 8.52-12.85 13.2-18.97 39.61 33.32 98.83 31.34 136.1-5.93 14.44-14.44 23.58-32.16 27.42-50.76.05.2.08.4.12.6l3.99 22.07c10.06 55.64 8.97 112.35-2.9 167.12z" fill="url(#SVGID_2_)"/><path d="m287.988 149.237-3.99 22.071c-15.254 84.389-4.878 171.24 29.875 250.055l.86 1.951c12.477 28.296 41.24 46.66 73.08 46.658h1.371c21.518-.002 42.038 8.765 56.512 24.145l.82.871c17.392 18.48 48.926 10.287 54.34-13.962.003-.011.004-.017.004-.017 14.923-66.835 11.525-136.275-9.86-201.452-23.692-71.349-78.435-129.16-149.899-158.299-22.898-9.337-48.837 4.327-53.113 27.979z" fill="url(#SVGID_3_)"/><path d="m508.834 427.726c-.152 1.948-.315 3.895-.498 5.841-.06.74-.13 1.48-.21 2.21-.25 2.6-.54 5.2-.86 7.8-1.5 12.54-3.64 25.03-6.41 37.43v.02c-.11.47-.22.94-.35 1.4-.04.15-.07.29-.13.43-.37 1.3-.83 2.54-1.35 3.74l-176.27-176.27c-8.8-8.8-17-18.05-24.6-27.73-7.6-9.69-14.59-19.8-20.96-30.31 0-.01 0-.02-.01-.03-.3-27 1.96-54.1 6.81-80.95l2.12-11.73 1.87-10.34c4.28-23.65 30.22-37.32 53.11-27.98h.01c35.73 14.57 67.28 36.31 92.86 63.32s45.19 59.31 57.03 94.98c13.03 39.719 19.379 81.016 18.972 122.343-.001.105-.002.21-.003.315-.065 6.1-.277 12.201-.637 18.297-.022.369-.045.739-.068 1.108-.1 1.612-.21 3.223-.331 4.834-.032.424-.062.848-.095 1.272z" fill="url(#SVGID_4_)"/></g><path d="m226.001 171.308-2.12-11.726c-11.684 44.585-35.003 85.468-68.458 118.923-8.787 8.787-8.787 23.033 0 31.819l59.595 59.595c19.111-64.321 22.982-132.226 10.983-198.611z" fill="url(#SVGID_5_)"/><path d="m354.576 278.505c-49.703-49.704-77.076-115.788-77.076-186.079v-65.011c0-12.426-10.074-22.5-22.5-22.5s-22.5 10.074-22.5 22.5v65.011c0 70.292-27.373 136.375-77.076 186.079-8.787 8.787-8.787 23.033 0 31.819 4.393 4.394 10.151 6.59 15.91 6.59s11.517-2.197 15.91-6.59c28.76-28.76 51.234-62.396 66.799-99.973.329-.795.635-1.596.957-2.392.322.797.628 1.598.957 2.392 15.565 37.577 38.04 71.213 66.799 99.973 4.394 4.394 10.152 6.59 15.91 6.59s11.517-2.197 15.91-6.59c8.787-8.786 8.787-23.032 0-31.819z" fill="url(#SVGID_6_)"/><path d="m354.58 310.32c-4.4 4.4-10.16 6.59-15.91 6.59-5.76 0-11.52-2.19-15.91-6.59-28.76-28.76-51.24-62.39-66.8-99.97-.33-.79-.64-1.59-.96-2.39-.32.8-.63 1.6-.96 2.39-15.56 37.58-38.04 71.21-66.8 99.97-4.39 4.4-10.15 6.59-15.91 6.59-5.75 0-11.51-2.19-15.91-6.59-8.78-8.78-8.78-23.03 0-31.81 49.71-49.71 77.08-115.79 77.08-186.08v-21.39l46.17 46.17c5.65 60.93 32.09 117.48 75.91 161.3 8.78 8.78 8.78 23.03 0 31.81z" fill="url(#SVGID_7_)"/><path d="m255.957 210.352c15.565 37.577 38.04 71.213 66.799 99.973 4.394 4.394 10.152 6.59 15.91 6.59s11.517-2.197 15.91-6.59c8.787-8.787 8.787-23.033 0-31.819-49.703-49.705-77.076-115.789-77.076-186.08v-65.011c0-12.426-10.074-22.5-22.5-22.5v203.045c.322.796.628 1.597.957 2.392z" fill="url(#SVGID_8_)"/></g></g><path d="m255 142.147c3.886 0 7.725-.139 11.508-.41 8.133-.582 14.113-7.824 13.091-15.914-1.389-10.991-2.099-22.139-2.099-33.398v-64.471c0-12.2-9.487-22.591-21.679-23.025-12.8-.455-23.321 9.787-23.321 22.485v65.011c0 11.258-.71 22.407-2.099 33.398-1.022 8.09 4.958 15.332 13.091 15.914 3.783.271 7.622.41 11.508.41z" fill="url(#SVGID_9_)"/><path d="m254.179 4.929c-12.192.434-21.679 10.825-21.679 23.025v64.472c0 2.745-.045 5.483-.132 8.214-.217 6.828 4.92 12.679 11.736 13.14 3.585.243 7.219.367 10.896.367s7.311-.125 10.896-.367c6.816-.461 11.953-6.312 11.736-13.14-.087-2.731-.132-5.469-.132-8.214v-65.011c0-12.699-10.52-22.941-23.321-22.486z" fill="url(#SVGID_10_)"/><path d="m254.179 4.929c-12.192.434-21.679 10.825-21.679 23.025v47.049c0 6.921 5.347 12.718 12.254 13.155 3.374.213 6.792.323 10.246.323s6.872-.109 10.246-.323c6.907-.437 12.254-6.234 12.254-13.155v-47.588c0-12.699-10.52-22.941-23.321-22.486z" fill="url(#SVGID_11_)"/><path d="m254.179 4.929c-12.192.434-21.679 10.825-21.679 23.025v24.542c0 8.018 6.282 14.634 14.29 15.039 2.711.137 5.449.207 8.21.207s5.499-.07 8.21-.207c8.007-.405 14.29-7.022 14.29-15.039v-25.081c0-12.699-10.52-22.941-23.321-22.486z" fill="url(#SVGID_12_)"/><path d="m254.179 4.929c-12.192.434-21.679 10.825-21.679 23.025v1.363c0 7.412 5.811 13.475 13.211 13.899 3.063.175 6.161.265 9.289.265s6.226-.089 9.289-.265c7.4-.424 13.211-6.488 13.211-13.899v-1.902c0-12.699-10.52-22.941-23.321-22.486z" fill="url(#SVGID_13_)"/></g><g><g><g><path d="m165.066 128.107c0-1.651 1.338-2.989 2.989-2.989h21.174c1.651 0 2.989 1.338 2.989 2.989 0 1.651-1.338 2.989-2.989 2.989h-21.174c-1.651 0-2.989-1.339-2.989-2.989z" fill="url(#SVGID_14_)"/><circle cx="195.207" cy="128.107" fill="url(#SVGID_15_)" r="9.3"/></g><g><path d="m152.801 98.498c-1.167-1.167-1.167-3.06 0-4.227l14.973-14.973c1.167-1.167 3.06-1.167 4.227 0 1.167 1.167 1.167 3.06 0 4.227l-14.973 14.973c-1.167 1.167-3.059 1.167-4.227 0z" fill="url(#SVGID_16_)"/><circle cx="174.115" cy="77.184" fill="url(#SVGID_17_)" r="9.3"/></g><g><path d="m152.801 157.715c1.167-1.167 3.06-1.167 4.227 0l14.973 14.973c1.167 1.167 1.167 3.06 0 4.227-1.167 1.167-3.06 1.167-4.227 0l-14.973-14.973c-1.167-1.167-1.167-3.059 0-4.227z" fill="url(#SVGID_18_)"/><circle cx="174.115" cy="179.029" fill="url(#SVGID_19_)" r="9.3"/></g><g><path d="m123.192 86.234c-1.651 0-2.989-1.338-2.989-2.989v-21.175c0-1.651 1.338-2.989 2.989-2.989 1.651 0 2.989 1.338 2.989 2.989v21.174c.001 1.651-1.338 2.99-2.989 2.99z" fill="url(#SVGID_20_)"/><circle cx="123.192" cy="56.092" fill="url(#SVGID_21_)" r="9.3"/></g><g><path d="m123.192 169.98c1.651 0 2.989 1.338 2.989 2.989v21.174c0 1.651-1.338 2.989-2.989 2.989-1.651 0-2.989-1.338-2.989-2.989v-21.174c0-1.651 1.339-2.989 2.989-2.989z" fill="url(#SVGID_22_)"/><circle cx="123.192" cy="200.121" fill="url(#SVGID_23_)" r="9.3"/></g><g><path d="m81.319 128.107c0 1.651-1.338 2.989-2.989 2.989h-21.174c-1.651 0-2.989-1.338-2.989-2.989 0-1.651 1.338-2.989 2.989-2.989h21.174c1.651-.001 2.989 1.338 2.989 2.989z" fill="url(#SVGID_24_)"/><circle cx="51.178" cy="128.107" fill="url(#SVGID_25_)" r="9.3"/></g><g><path d="m93.584 157.715c1.167 1.167 1.167 3.06 0 4.227l-14.973 14.973c-1.167 1.167-3.06 1.167-4.227 0-1.167-1.167-1.167-3.06 0-4.227l14.973-14.973c1.167-1.167 3.059-1.167 4.227 0z" fill="url(#SVGID_26_)"/><circle cx="72.27" cy="179.029" fill="url(#SVGID_27_)" r="9.3"/></g><g><path d="m93.584 98.498c-1.167 1.167-3.06 1.167-4.227 0l-14.973-14.973c-1.167-1.167-1.167-3.06 0-4.227 1.167-1.167 3.06-1.167 4.227 0l14.973 14.973c1.167 1.167 1.167 3.06 0 4.227z" fill="url(#SVGID_28_)"/><circle cx="72.27" cy="77.184" fill="url(#SVGID_29_)" r="9.3"/></g><circle cx="123.192" cy="128.107" fill="url(#SVGID_30_)" r="57.263"/><path d="m146.036 75.586-8.65 21.454s9.166 2.348 17.801 16.873l20.69-8.273c-5.735-13.433-16.458-24.225-29.841-30.054z" fill="url(#SVGID_31_)"/><path d="m123.192 185.369c31.625 0 57.263-25.637 57.263-57.263 0-7.396-1.403-14.464-3.955-20.953l-105.473 44.603c9.003 19.826 28.974 33.613 52.165 33.613z" fill="url(#SVGID_32_)"/><g><path d="m135.783 96.971c-1.228-.496-1.82-1.894-1.324-3.121l6.367-15.745c.496-1.228 1.894-1.82 3.121-1.324 1.228.496 1.82 1.894 1.324 3.121l-6.367 15.745c-.496 1.228-1.893 1.821-3.121 1.324z" fill="url(#SVGID_33_)"/><circle cx="144.847" cy="74.559" fill="url(#SVGID_34_)" r="7.459"/></g><g><path d="m154.328 140.698c.496-1.228 1.894-1.82 3.121-1.324l15.745 6.367c1.228.496 1.82 1.894 1.324 3.121-.496 1.228-1.894 1.82-3.121 1.324l-15.745-6.367c-1.228-.496-1.821-1.894-1.324-3.121z" fill="url(#SVGID_35_)"/><circle cx="176.74" cy="149.761" fill="url(#SVGID_36_)" r="7.459"/></g><g><path d="m154.112 114.994c-.517-1.219.052-2.626 1.271-3.143l15.635-6.631c1.219-.517 2.626.052 3.143 1.271.517 1.219-.052 2.626-1.271 3.143l-15.635 6.631c-1.219.517-2.626-.052-3.143-1.271z" fill="url(#SVGID_37_)"/><circle cx="176.368" cy="105.554" fill="url(#SVGID_38_)" r="7.459"/></g><g><path d="m136.305 159.026c1.219-.517 2.626.052 3.143 1.271l6.631 15.635c.517 1.219-.052 2.626-1.271 3.143-1.219.517-2.626-.052-3.143-1.271l-6.631-15.635c-.517-1.219.052-2.626 1.271-3.143z" fill="url(#SVGID_39_)"/><circle cx="145.745" cy="181.283" fill="url(#SVGID_40_)" r="7.459"/></g><g><path d="m110.602 159.242c1.228.496 1.82 1.894 1.324 3.121l-6.367 15.745c-.496 1.228-1.894 1.82-3.121 1.324-1.228-.496-1.82-1.894-1.324-3.121l6.367-15.745c.496-1.228 1.893-1.82 3.121-1.324z" fill="url(#SVGID_41_)"/><circle cx="101.538" cy="181.654" fill="url(#SVGID_42_)" r="7.459"/></g><path d="m67.743 113.663 21.08 21.08s-1.996-14.216 3.234-19.228l-21.888-9.063z" fill="url(#SVGID_43_)"/><g><path d="m92.057 115.516c-.496 1.228-1.894 1.82-3.121 1.324l-15.745-6.367c-1.228-.496-1.82-1.894-1.324-3.121.496-1.228 1.894-1.82 3.121-1.324l15.745 6.367c1.228.496 1.82 1.893 1.324 3.121z" fill="url(#SVGID_44_)"/><circle cx="69.645" cy="106.452" fill="url(#SVGID_45_)" r="7.459"/></g><g><path d="m92.273 141.22c.517 1.219-.052 2.626-1.271 3.143l-15.635 6.631c-1.219.517-2.626-.052-3.143-1.271-.517-1.219.052-2.626 1.271-3.143l15.635-6.631c1.219-.518 2.626.052 3.143 1.271z" fill="url(#SVGID_46_)"/><circle cx="70.017" cy="150.659" fill="url(#SVGID_47_)" r="7.459"/></g><path d="m100.95 75.325 9.123 20.732c7.639-3.819 17.867-3.009 17.867-3.009l-20.115-20.115c-2.356.654-4.652 1.454-6.875 2.392z" fill="url(#SVGID_48_)"/><g><path d="m110.08 97.187c-1.219.517-2.626-.052-3.143-1.271l-6.631-15.635c-.517-1.219.052-2.626 1.271-3.143 1.219-.517 2.626.052 3.143 1.271l6.631 15.635c.517 1.219-.052 2.626-1.271 3.143z" fill="url(#SVGID_49_)"/><circle cx="100.64" cy="74.931" fill="url(#SVGID_50_)" r="7.459"/></g><circle cx="123.192" cy="128.107" fill="url(#SVGID_51_)" r="36.476"/></g><g><circle cx="123.192" cy="128.107" fill="url(#SVGID_52_)" r="105.366"/><g><path d="m36.084 215.215c48.112 48.112 126.105 48.112 174.216 0 48.112-48.112 48.112-126.105 0-174.216-48.112-48.112-126.105-48.112-174.216 0-48.112 48.111-48.112 126.104 0 174.216zm18.158-18.149c-38.086-38.086-38.086-99.833 0-137.92 38.077-38.076 99.824-38.076 137.91 0 38.077 38.086 38.077 99.833 0 137.92-38.087 38.077-99.834 38.077-137.91 0z" fill="url(#SVGID_53_)"/><path d="m203.747 47.551c-44.491-44.491-116.619-44.491-161.11 0s-44.491 116.619 0 161.11 116.619 44.491 161.11 0c44.491-44.49 44.491-116.618 0-161.11zm-11.605 149.515c-38.077 38.076-99.824 38.076-137.91 0-38.077-38.086-38.077-99.833 0-137.92 38.086-38.077 99.833-38.077 137.91 0 38.086 38.087 38.086 99.834 0 137.92z" fill="url(#SVGID_54_)"/></g></g></g></g></svg>